<?xml version="1.0" encoding="utf-8"?>
<!-- Generator: Adobe Illustrator 22.0.0, SVG Export Plug-In . SVG Version: 6.00 Build 0)  -->
<svg version="1.1" id="Layer_1" xmlns="http://www.w3.org/2000/svg" xmlns:xlink="http://www.w3.org/1999/xlink" x="0px" y="0px"
	 viewBox="0 0 1920 688.6" style="enable-background:new 0 0 1920 688.6;" xml:space="preserve">
<style type="text/css">
	.st0{fill:#666666;}
	.st1{fill:none;stroke:#000000;stroke-width:2.6785;stroke-miterlimit:10;}
	.st2{fill-rule:evenodd;clip-rule:evenodd;stroke:#FFFFFF;stroke-width:1.7007;stroke-miterlimit:10;}
	.st3{fill:none;stroke:#0000FF;stroke-width:2.6785;stroke-miterlimit:10;stroke-dasharray:8.9285;}
	.st4{fill:#39B54A;}
	.st5{stroke:#39B54A;stroke-width:15;stroke-miterlimit:10;}
	.st6{fill:none;stroke:#0000FF;stroke-width:2.5172;stroke-miterlimit:10;}
	.st7{fill:#29ABE2;stroke:#29ABE2;stroke-width:0.2278;stroke-miterlimit:10;}
	.st8{fill:#29ABE2;}
	.st9{fill:none;stroke:#29ABE2;stroke-width:4.5559;stroke-miterlimit:10;}
	.st10{fill:none;}
	.st11{font-family:'MyriadPro-Regular';}
	.st12{font-size:48px;}
</style>
<g>
	
		<rect x="150.5" y="313.7" transform="matrix(0.9659 -0.2588 0.2588 0.9659 -77.8678 98.4286)" class="st0" width="368.7" height="62.5"/>
	<path d="M504.6,267.6l15.9,59.5l-355.3,95.2l-15.9-59.5L504.6,267.6 M505.2,266.5l-357,95.7l16.4,61.2l357-95.7L505.2,266.5
		L505.2,266.5z"/>
</g>
<g>
	<rect x="777.5" y="313.7" class="st0" width="368.7" height="62.5"/>
	<path d="M1145.8,314.1v61.6H778v-61.6H1145.8 M1146.7,313.3H777.1v63.4h369.6V313.3L1146.7,313.3z"/>
</g>
<g>
	
		<rect x="1556" y="160.6" transform="matrix(0.2588 -0.9659 0.9659 0.2588 843.238 1788.8223)" class="st0" width="62.5" height="368.7"/>
	<path d="M1417.5,267.6l355.3,95.2l-15.9,59.5l-355.3-95.2L1417.5,267.6 M1416.9,266.5l-16.4,61.2l357,95.7l16.4-61.2L1416.9,266.5
		L1416.9,266.5z"/>
</g>
<g>
	<g>
		<g>
			<line class="st1" x1="89.5" y1="142.5" x2="149.6" y2="362.8"/>
			<g>
				<polygon points="82,152.4 90.4,145.7 101.1,147.2 85.3,127.1 				"/>
			</g>
		</g>
	</g>
	<g>
		<g>
			<line class="st1" x1="139.5" y1="129.1" x2="199.6" y2="349.4"/>
			<g>
				<polygon points="132,139 140.4,132.3 151.1,133.8 135.3,113.7 				"/>
			</g>
		</g>
	</g>
	<g>
		<g>
			<line class="st1" x1="189.5" y1="115.7" x2="249.6" y2="336"/>
			<g>
				<polygon points="182,125.6 190.4,118.9 201.1,120.4 185.3,100.3 				"/>
			</g>
		</g>
	</g>
	<g>
		<g>
			<line class="st1" x1="243.1" y1="99.7" x2="303.2" y2="319.9"/>
			<g>
				<polygon points="235.5,109.5 244,102.9 254.7,104.3 238.9,84.2 				"/>
			</g>
		</g>
	</g>
	<g>
		<g>
			<line class="st1" x1="293.1" y1="87.2" x2="353.2" y2="307.4"/>
			<g>
				<polygon points="285.5,97 294,90.4 304.7,91.8 288.9,71.7 				"/>
			</g>
		</g>
	</g>
	<g>
		<g>
			<line class="st1" x1="341.3" y1="72.9" x2="401.4" y2="293.2"/>
			<g>
				<polygon points="333.7,82.7 342.2,76.1 352.9,77.5 337.1,57.5 				"/>
			</g>
		</g>
	</g>
	<g>
		<g>
			<line class="st1" x1="390.4" y1="62.2" x2="450.5" y2="282.4"/>
			<g>
				<polygon points="382.8,72 391.3,65.4 402,66.8 386.2,46.7 				"/>
			</g>
		</g>
	</g>
	<g>
		<g>
			<line class="st1" x1="444.9" y1="49.7" x2="505" y2="269.9"/>
			<g>
				<polygon points="437.3,59.5 445.8,52.9 456.4,54.3 440.7,34.2 				"/>
			</g>
		</g>
	</g>
</g>
<g>
	<g>
		<g>
			<line class="st1" x1="778.9" y1="84.7" x2="778.6" y2="313"/>
			<g>
				<polygon points="769,92.2 778.9,88 788.8,92.2 778.9,68.7 				"/>
			</g>
		</g>
	</g>
	<g>
		<g>
			<line class="st1" x1="830.6" y1="85" x2="830.3" y2="313.3"/>
			<g>
				<polygon points="820.7,92.5 830.6,88.3 840.5,92.5 830.7,69 				"/>
			</g>
		</g>
	</g>
	<g>
		<g>
			<line class="st1" x1="882.4" y1="85.3" x2="882.1" y2="313.6"/>
			<g>
				<polygon points="872.5,92.8 882.4,88.6 892.3,92.8 882.4,69.3 				"/>
			</g>
		</g>
	</g>
	<g>
		<g>
			<line class="st1" x1="938.3" y1="84" x2="938" y2="312.3"/>
			<g>
				<polygon points="928.4,91.5 938.3,87.3 948.2,91.5 938.3,68 				"/>
			</g>
		</g>
	</g>
	<g>
		<g>
			<line class="st1" x1="989.8" y1="85.1" x2="989.5" y2="313.5"/>
			<g>
				<polygon points="979.9,92.6 989.8,88.4 999.7,92.7 989.9,69.1 				"/>
			</g>
		</g>
	</g>
	<g>
		<g>
			<line class="st1" x1="1040.1" y1="84.1" x2="1039.8" y2="312.4"/>
			<g>
				<polygon points="1030.2,91.6 1040.1,87.4 1050,91.6 1040.1,68.1 				"/>
			</g>
		</g>
	</g>
	<g>
		<g>
			<line class="st1" x1="1090.3" y1="86.8" x2="1090" y2="315.1"/>
			<g>
				<polygon points="1080.4,94.3 1090.3,90.1 1100.2,94.3 1090.3,70.8 				"/>
			</g>
		</g>
	</g>
	<g>
		<g>
			<line class="st1" x1="1146.1" y1="89.1" x2="1145.8" y2="317.4"/>
			<g>
				<polygon points="1136.2,96.6 1146.1,92.4 1156,96.7 1146.2,73.1 				"/>
			</g>
		</g>
	</g>
</g>
<g>
	<g>
		<g>
			<line class="st1" x1="1833.5" y1="141.6" x2="1773.4" y2="361.9"/>
			<g>
				<polygon points="1821.9,146.3 1832.6,144.8 1841.1,151.5 1837.7,126.2 				"/>
			</g>
		</g>
	</g>
	<g>
		<g>
			<line class="st1" x1="1783.5" y1="128.2" x2="1723.4" y2="348.5"/>
			<g>
				<polygon points="1771.9,132.9 1782.6,131.4 1791.1,138.1 1787.7,112.8 				"/>
			</g>
		</g>
	</g>
	<g>
		<g>
			<line class="st1" x1="1733.5" y1="114.8" x2="1673.4" y2="335.1"/>
			<g>
				<polygon points="1721.9,119.5 1732.6,118 1741.1,124.7 1737.7,99.4 				"/>
			</g>
		</g>
	</g>
	<g>
		<g>
			<line class="st1" x1="1679.9" y1="98.8" x2="1619.8" y2="319.1"/>
			<g>
				<polygon points="1668.4,103.4 1679,102 1687.5,108.6 1684.1,83.3 				"/>
			</g>
		</g>
	</g>
	<g>
		<g>
			<line class="st1" x1="1629.9" y1="86.3" x2="1569.8" y2="306.6"/>
			<g>
				<polygon points="1618.4,90.9 1629,89.5 1637.5,96.1 1634.1,70.8 				"/>
			</g>
		</g>
	</g>
	<g>
		<g>
			<line class="st1" x1="1581.7" y1="72" x2="1521.6" y2="292.3"/>
			<g>
				<polygon points="1570.1,76.6 1580.8,75.2 1589.3,81.9 1585.9,56.6 				"/>
			</g>
		</g>
	</g>
	<g>
		<g>
			<line class="st1" x1="1532.6" y1="61.3" x2="1472.5" y2="281.6"/>
			<g>
				<polygon points="1521,65.9 1531.7,64.5 1540.2,71.1 1536.8,45.8 				"/>
			</g>
		</g>
	</g>
	<g>
		<g>
			<line class="st1" x1="1478.1" y1="48.8" x2="1418" y2="269.1"/>
			<g>
				<polygon points="1466.6,53.4 1477.2,52 1485.7,58.6 1482.3,33.3 				"/>
			</g>
		</g>
	</g>
</g>
<g>
	<g>
		<g>
			<line class="st1" x1="777.7" y1="394.6" x2="779.6" y2="622.9"/>
			<g>
				<polygon points="767.9,402.2 777.8,397.9 787.7,402.1 777.6,378.6 				"/>
			</g>
		</g>
	</g>
	<g>
		<g>
			<line class="st1" x1="829.5" y1="394.4" x2="831.4" y2="622.7"/>
			<g>
				<polygon points="819.6,402 829.5,397.7 839.5,401.9 829.4,378.4 				"/>
			</g>
		</g>
	</g>
	<g>
		<g>
			<line class="st1" x1="881.2" y1="394.2" x2="883.1" y2="622.5"/>
			<g>
				<polygon points="871.4,401.8 881.3,397.5 891.2,401.7 881.1,378.2 				"/>
			</g>
		</g>
	</g>
	<g>
		<g>
			<line class="st1" x1="937.1" y1="392.4" x2="939" y2="620.7"/>
			<g>
				<polygon points="927.3,400 937.2,395.7 947.1,399.8 937,376.4 				"/>
			</g>
		</g>
	</g>
	<g>
		<g>
			<line class="st1" x1="988.7" y1="393" x2="990.6" y2="621.3"/>
			<g>
				<polygon points="978.8,400.6 988.7,396.3 998.7,400.5 988.5,377 				"/>
			</g>
		</g>
	</g>
	<g>
		<g>
			<line class="st1" x1="1038.9" y1="391.5" x2="1040.8" y2="619.8"/>
			<g>
				<polygon points="1029.1,399.1 1039,394.8 1048.9,398.9 1038.8,375.5 				"/>
			</g>
		</g>
	</g>
	<g>
		<g>
			<line class="st1" x1="1089.2" y1="393.7" x2="1091" y2="622"/>
			<g>
				<polygon points="1079.3,401.3 1089.2,397 1099.1,401.1 1089,377.7 				"/>
			</g>
		</g>
	</g>
	<g>
		<g>
			<line class="st1" x1="1145" y1="395.5" x2="1146.9" y2="623.8"/>
			<g>
				<polygon points="1135.2,403.1 1145,398.8 1155,402.9 1144.9,379.5 				"/>
			</g>
		</g>
	</g>
</g>
<circle class="st2" cx="328.6" cy="346.3" r="17.9"/>
<circle class="st2" cx="961.9" cy="346.3" r="17.9"/>
<circle class="st2" cx="1587.2" cy="346.3" r="17.9"/>
<g>
	<g>
		<line class="st1" x1="164.6" y1="439.1" x2="167.9" y2="623.1"/>
		<g>
			<polygon points="154.9,446.8 164.7,442.4 174.7,446.4 164.4,423.1 			"/>
		</g>
	</g>
</g>
<g>
	<g>
		<line class="st1" x1="518.2" y1="344.4" x2="523.3" y2="623.1"/>
		<g>
			<polygon points="508.4,352.1 518.3,347.7 528.3,351.8 517.9,328.4 			"/>
		</g>
	</g>
</g>
<g>
	<g>
		<line class="st1" x1="211.1" y1="427.5" x2="214.4" y2="622.2"/>
		<g>
			<polygon points="201.3,435.1 211.1,430.8 221.1,434.8 210.8,411.5 			"/>
		</g>
	</g>
</g>
<g>
	<g>
		<line class="st1" x1="262" y1="413.2" x2="266.1" y2="623.1"/>
		<g>
			<polygon points="252.2,420.9 262.1,416.5 272.1,420.5 261.7,397.2 			"/>
		</g>
	</g>
</g>
<g>
	<g>
		<line class="st1" x1="313.8" y1="402.5" x2="317.9" y2="623.1"/>
		<g>
			<polygon points="304,410.2 313.8,405.8 323.8,409.8 313.5,386.5 			"/>
		</g>
	</g>
</g>
<g>
	<g>
		<line class="st1" x1="365.5" y1="385.5" x2="369.7" y2="623.1"/>
		<g>
			<polygon points="355.7,393.2 365.6,388.8 375.6,392.8 365.2,369.5 			"/>
		</g>
	</g>
</g>
<g>
	<g>
		<line class="st1" x1="414.6" y1="372.1" x2="418.8" y2="622.2"/>
		<g>
			<polygon points="404.8,379.8 414.7,375.4 424.7,379.5 414.4,356.1 			"/>
		</g>
	</g>
</g>
<g>
	<g>
		<line class="st1" x1="464.7" y1="358.7" x2="469.7" y2="623.1"/>
		<g>
			<polygon points="454.9,366.4 464.7,362 474.7,366 464.4,342.7 			"/>
		</g>
	</g>
</g>
<g>
	<g>
		<g>
			<line class="st1" x1="1757" y1="438.2" x2="1753.8" y2="622.2"/>
			<g>
				<polygon points="1747,445.5 1757,441.5 1766.8,445.9 1757.3,422.2 				"/>
			</g>
		</g>
	</g>
	<g>
		<g>
			<line class="st1" x1="1403.5" y1="343.5" x2="1398.4" y2="622.2"/>
			<g>
				<polygon points="1393.4,350.9 1403.4,346.8 1413.2,351.2 1403.8,327.5 				"/>
			</g>
		</g>
	</g>
	<g>
		<g>
			<line class="st1" x1="1710.6" y1="426.6" x2="1707.3" y2="621.3"/>
			<g>
				<polygon points="1700.6,433.9 1710.6,429.9 1720.4,434.3 1710.9,410.6 				"/>
			</g>
		</g>
	</g>
	<g>
		<g>
			<line class="st1" x1="1659.7" y1="412.3" x2="1655.5" y2="622.2"/>
			<g>
				<polygon points="1649.6,419.6 1659.6,415.6 1669.5,420 1660,396.3 				"/>
			</g>
		</g>
	</g>
	<g>
		<g>
			<line class="st1" x1="1607.9" y1="401.6" x2="1603.8" y2="622.2"/>
			<g>
				<polygon points="1597.9,408.9 1607.9,404.9 1617.7,409.3 1608.2,385.6 				"/>
			</g>
		</g>
	</g>
	<g>
		<g>
			<line class="st1" x1="1556.1" y1="384.6" x2="1552" y2="622.2"/>
			<g>
				<polygon points="1546.1,391.9 1556.1,387.9 1565.9,392.3 1556.4,368.6 				"/>
			</g>
		</g>
	</g>
	<g>
		<g>
			<line class="st1" x1="1507.1" y1="371.2" x2="1502.9" y2="621.3"/>
			<g>
				<polygon points="1497,378.6 1507,374.5 1516.8,378.9 1507.3,355.2 				"/>
			</g>
		</g>
	</g>
	<g>
		<g>
			<line class="st1" x1="1457" y1="357.8" x2="1452" y2="622.2"/>
			<g>
				<polygon points="1447,365.1 1457,361.1 1466.8,365.5 1457.3,341.8 				"/>
			</g>
		</g>
	</g>
</g>
<line class="st3" x1="67.3" y1="415" x2="590" y2="274.9"/>
<line class="st3" x1="59" y1="345.8" x2="600.1" y2="345.8"/>
<g>
	<line class="st3" x1="1847.7" y1="414.1" x2="1325" y2="274"/>
	<line class="st3" x1="1856" y1="344.9" x2="1314.9" y2="344.9"/>
</g>
<line class="st3" x1="1195.8" y1="346.7" x2="728" y2="346.7"/>
<g>
	<line x1="315.3" y1="209.1" x2="314.8" y2="170.6"/>
	<g>
		<polygon class="st4" points="337.7,223 315.3,213.8 293.2,223.5 314.8,170.6 		"/>
	</g>
</g>
<line class="st5" x1="314.8" y1="291.1" x2="315.8" y2="191.1"/>
<g>
	<line x1="1586.3" y1="196.1" x2="1586.8" y2="157.6"/>
	<g>
		<polygon class="st4" points="1608.3,210.5 1586.2,200.8 1563.8,210 1586.8,157.6 		"/>
	</g>
</g>
<line class="st5" x1="1586.8" y1="283.1" x2="1585.8" y2="183.1"/>
<g>
	<g>
		<line x1="1456.5" y1="343.8" x2="1418" y2="343.3"/>
		<g>
			<polygon class="st4" points="1471,321.8 1461.2,343.9 1470.4,366.2 1418,343.3 			"/>
		</g>
	</g>
	<line class="st5" x1="1538.5" y1="343.3" x2="1438.5" y2="344.3"/>
</g>
<g>
	<g>
		<line x1="962.3" y1="209.1" x2="962.8" y2="170.6"/>
		<g>
			<polygon class="st4" points="984.3,223.5 962.2,213.8 939.8,223 962.8,170.6 			"/>
		</g>
	</g>
	<line class="st5" x1="962.8" y1="291.1" x2="961.8" y2="191.1"/>
</g>
<path class="st6" d="M564.9,343.8c14.8-22.8,10.4-43.8-12.4-58.6"/>
<path class="st6" d="M1826.9,347.1c14.8,22.8,10.4,43.8-12.4,58.6"/>
<g>
	<path class="st7" d="M373.8,279.1c33.9,26.1,40.2,74.7,14.1,108.6c-26.1,33.9-74.7,40.2-108.6,14.1
		c-33.9-26.1-40.2-74.7-14.1-108.6l-10.8-8.3c-30.7,39.9-23.3,97.1,16.6,127.8c39.9,30.7,97.1,23.3,127.8-16.6s23.3-97.1-16.6-127.8
		L373.8,279.1z"/>
	<g>
		<line class="st8" x1="280.8" y1="263.2" x2="252.5" y2="299.9"/>
		<g>
			<line class="st9" x1="264.2" y1="284.8" x2="252.5" y2="299.9"/>
			<g>
				<polygon class="st8" points="243,284.6 260.7,289.2 269.7,305.2 280.8,263.2 				"/>
			</g>
		</g>
	</g>
</g>
<rect x="579.3" y="290.2" class="st10" width="132.7" height="79.6"/>
<text transform="matrix(1 0 0 1 579.2598 324.3002)" class="st11 st12">+θ</text>
<rect x="1844.3" y="366.2" class="st10" width="132.7" height="79.6"/>
<text transform="matrix(1 0 0 1 1844.2598 400.3002)" class="st11 st12">-θ</text>
<g>
	<g>
		<line x1="457" y1="345.8" x2="495.5" y2="345.3"/>
		<g>
			<polygon class="st4" points="443.1,368.2 452.3,345.9 442.5,323.8 495.5,345.3 			"/>
		</g>
	</g>
	<line class="st5" x1="375" y1="345.3" x2="475" y2="346.3"/>
</g>
<g>
	<path class="st7" d="M1539.3,276.1c-33.9,26.1-40.2,74.7-14.1,108.6c26.1,33.9,74.7,40.2,108.6,14.1
		c33.9-26.1,40.2-74.7,14.1-108.6l10.8-8.3c30.7,39.9,23.3,97.1-16.6,127.8c-39.9,30.7-97.1,23.3-127.8-16.6
		c-30.7-39.9-23.3-97.1,16.6-127.8L1539.3,276.1z"/>
	<g>
		<line class="st8" x1="1632.3" y1="260.2" x2="1660.6" y2="296.9"/>
		<g>
			<line class="st9" x1="1648.9" y1="281.8" x2="1660.6" y2="296.9"/>
			<g>
				<polygon class="st8" points="1643.4,302.2 1652.4,286.2 1670.1,281.6 1632.3,260.2 				"/>
			</g>
		</g>
	</g>
</g>
</svg>
