<svg xmlns="http://www.w3.org/2000/svg" width="350" height="45" viewBox="0 -2171.9 16028.4 3843.8" xmlns:xlink="http://www.w3.org/1999/xlink"><defs><path id="a" d="M370 305h-21l-36 15-16 38q0 23 15 38 5 5 5 6t-10 2q-26 4-49 4-49 0-80-32-47-47-47-157 0-82 31-129 41-61 110-61 41 0 66 26t36 62q2 8 5 10t16 2h14q6-6 6-9 0-4-4-16t-16-33-29-38-48-31-69-13q-86 0-150 64T34 214q0 104 65 169t151 65 120-27 34-64q0-23-17-37z"/><path id="b" d="M28 214q0 95 65 164t157 70q90 0 155-68t66-165q0-95-64-160T250-10q-97 0-159 67T28 214zM250 30q122 0 122 163v57q0 22-1 38t-7 38-16 36-31 28-49 20q-5 1-16 1-30 0-57-12-43-22-56-61t-13-92v-20q0-96 19-135 32-61 105-61z"/><path id="c" d="M295 316q0 40-27 69t-78 29q-36 0-62-13-30-19-30-52-1-5 0-13t16-24 43-25q18-5 44-9t44-9 32-13q17-8 33-20t32-41 17-62q0-62-38-102T198-10h-8q-52 0-96 36l-8-7-9-9Q71 4 65-1L54-11H42q-3 0-9 6v137q0 21 2 25t10 5h9q12 0 16-4t5-12 7-27 19-42q35-51 97-51 97 0 97 78 0 29-18 47-20 24-83 36t-83 23q-36 17-57 46t-21 62q0 39 17 66t43 40 50 18 44 5h11q40 0 70-15l15-8 9 7q10 9 22 17h12q3 0 9-6V310l-6-6h-28q-6 6-6 12z"/><path id="d" d="M94 250q0 69 10 131t23 107 37 88 38 67 42 52 33 34 25 21h17q14 0 14-9 0-3-17-21t-41-53-49-86-42-138-17-193 17-192 41-139 49-86 42-53 17-21q0-9-15-9h-16l-28 24q-94 85-137 212T94 250z"/><path id="e" d="M34 156q0 114 86 200t189 86q70 0 112-40t57-98q6-29 7-67v-29q49 74 75 166 4 14 6 16t16 3q21 0 21-8 0-9-9-39t-36-85-61-100l-11-14 1-24q2-56 8-76t19-21q14 2 26 11t17 23q2 7 5 8t15 2q20 0 20-8 0-6-6-19-12-24-35-38t-44-15h-7q-67 0-91 72l-3 7-11-8q-10-8-30-20t-45-23-58-20-64-9q-79 0-124 50T34 156zM208 26q49 0 98 21t73 43l24 22q-2 143-7 178-14 115-92 115-69 0-121-73-27-40-44-108t-18-104q0-49 25-71t62-23z"/><path id="f" d="M213 578l-13-5q-14-5-40-10t-58-7H83v46h19q47 2 87 15t56 24 28 22q2 3 12 3 9 0 17-6V361l1-300q7-7 12-9t24-4 62-2h26V0h-11q-21 3-159 3-136 0-157-3H88v46h64q16 0 25 1t16 3 8 2 6 5 6 4v517z"/><path id="g" d="M60 749l4 1h22l28-24q94-85 137-212t43-264q0-68-10-131T261 12t-37-88-38-67-41-51-32-33-23-19l-4-4H63q-3 0-5 3t-3 9q1 1 11 13Q221-64 221 250T66 725q-10 12-11 13 0 8 5 11z"/><path id="h" d="M109 429q-27 0-43 18t-16 44q0 71 53 123t132 52q91 0 152-56t62-145q0-43-20-82t-48-68-80-74q-36-31-100-92l-59-56 76-1q157 0 167 5 7 2 24 89v3h40v-3q-1-3-13-91T421 3V0H50v31q0 7 6 15t30 35q29 32 50 56 9 10 34 37t34 37 29 33 28 34 23 30 21 32 15 29 13 32 7 30 3 33q0 63-34 109t-97 46q-33 0-58-17t-35-33-10-19q0-1 5-1 18 0 37-14t19-46q0-25-16-42t-45-18z"/><path id="i" d="M56 237v13l14 20h299v150l1 150q10 13 19 13 13 0 20-15V270h298q15-8 15-20t-15-20H409V-68q-8-14-18-14h-4q-12 0-18 14v298H70q-14 7-14 20z"/><path id="j" d="M127 463q-27 0-42 17t-16 44q0 55 48 98t116 43q35 0 44-1 74-12 113-53t40-89q0-52-34-101t-94-71l-3-2q0-1 9-3t29-9 38-21q82-53 82-140 0-79-62-138T238-22q-80 0-138 43T42 130q0 28 18 45t45 18q28 0 46-18t18-45q0-11-3-20t-7-16-11-12-12-8-10-4-8-3l-4-1q51-45 124-45 55 0 83 53 17 33 17 101v20q0 95-64 127-15 6-61 7l-42 1-3 2q-2 3-2 16 0 18 8 18 28 0 58 5 34 5 62 42t28 112v8q0 57-35 79-22 14-47 14-32 0-59-11t-38-23-11-12h3q3-1 8-2t10-5 12-7 10-11 8-15 3-20q0-22-14-39t-45-18z"/><path id="k" d="M56 347q0 13 14 20h637q15-8 15-20 0-11-14-19l-318-1H72q-16 5-16 20zm0-194q0 15 16 20h636q14-10 14-20 0-13-15-20H70q-14 7-14 20z"/></defs><g data-mml-node="math" stroke="currentColor" fill="currentColor" stroke-width="0"><g data-mml-node="mtable"><g data-mml-node="mtr"><g data-mml-node="mtd"><g data-mml-node="mtext" transform="matrix(1 0 0 -1 0 -1288)"><use xlink:href="#a"/><use xlink:href="#b" transform="translate(444)"/><use xlink:href="#c" transform="translate(944)"/></g><use xlink:href="#d" data-mml-node="mo" transform="matrix(1 0 0 -1 1338 -1288)"/><g data-mml-node="msub"><use xlink:href="#e" data-mml-node="mi" transform="matrix(1 0 0 -1 1727 -1288)"/><g data-mml-node="TeXAtom"><g data-mml-node="mn" transform="matrix(.707 0 0 -.707 2367 -1138)"><use xlink:href="#f"/><use xlink:href="#f" transform="translate(500)"/></g></g></g><g data-mml-node="msup"><use xlink:href="#g" data-mml-node="mo" transform="matrix(1 0 0 -1 3124.1 -1288)"/><use xlink:href="#h" data-mml-node="mn" transform="matrix(.707 0 0 -.707 3513.1 -1701)"/></g><use xlink:href="#i" data-mml-node="mo" transform="matrix(1 0 0 -1 4138.9 -1288)"/><g data-mml-node="mtext" transform="matrix(1 0 0 -1 5139.1 -1288)"><use xlink:href="#a"/><use xlink:href="#b" transform="translate(444)"/><use xlink:href="#c" transform="translate(944)"/></g><use xlink:href="#d" data-mml-node="mo" transform="matrix(1 0 0 -1 6477.1 -1288)"/><g data-mml-node="msub"><use xlink:href="#e" data-mml-node="mi" transform="matrix(1 0 0 -1 6866.1 -1288)"/><g data-mml-node="TeXAtom"><g data-mml-node="mn" transform="matrix(.707 0 0 -.707 7506.1 -1138)"><use xlink:href="#f"/><use xlink:href="#h" transform="translate(500)"/></g></g></g><g data-mml-node="msup"><use xlink:href="#g" data-mml-node="mo" transform="matrix(1 0 0 -1 8263.2 -1288)"/><use xlink:href="#h" data-mml-node="mn" transform="matrix(.707 0 0 -.707 8652.2 -1701)"/></g><use xlink:href="#i" data-mml-node="mo" transform="matrix(1 0 0 -1 9278 -1288)"/><g data-mml-node="mtext" transform="matrix(1 0 0 -1 10278.2 -1288)"><use xlink:href="#a"/><use xlink:href="#b" transform="translate(444)"/><use xlink:href="#c" transform="translate(944)"/></g><use xlink:href="#d" data-mml-node="mo" transform="matrix(1 0 0 -1 11616.2 -1288)"/><g data-mml-node="msub"><use xlink:href="#e" data-mml-node="mi" transform="matrix(1 0 0 -1 12005.2 -1288)"/><g data-mml-node="TeXAtom"><g data-mml-node="mn" transform="matrix(.707 0 0 -.707 12645.2 -1138)"><use xlink:href="#f"/><use xlink:href="#j" transform="translate(500)"/></g></g></g><g data-mml-node="msup"><use xlink:href="#g" data-mml-node="mo" transform="matrix(1 0 0 -1 13402.3 -1288)"/><use xlink:href="#h" data-mml-node="mn" transform="matrix(.707 0 0 -.707 13791.3 -1701)"/></g><use xlink:href="#k" data-mml-node="mo" transform="matrix(1 0 0 -1 14472.6 -1288)"/><use xlink:href="#f" data-mml-node="mn" transform="matrix(1 0 0 -1 15528.4 -1288)"/></g></g><g data-mml-node="mtr"><g data-mml-node="mtd"><g data-mml-node="mtext" transform="matrix(1 0 0 -1 0 67)"><use xlink:href="#a"/><use xlink:href="#b" transform="translate(444)"/><use xlink:href="#c" transform="translate(944)"/></g><use xlink:href="#d" data-mml-node="mo" transform="matrix(1 0 0 -1 1338 67)"/><g data-mml-node="msub"><use xlink:href="#e" data-mml-node="mi" transform="matrix(1 0 0 -1 1727 67)"/><g data-mml-node="TeXAtom"><g data-mml-node="mn" transform="matrix(.707 0 0 -.707 2367 217)"><use xlink:href="#h"/><use xlink:href="#f" transform="translate(500)"/></g></g></g><g data-mml-node="msup"><use xlink:href="#g" data-mml-node="mo" transform="matrix(1 0 0 -1 3124.1 67)"/><use xlink:href="#h" data-mml-node="mn" transform="matrix(.707 0 0 -.707 3513.1 -346)"/></g><use xlink:href="#i" data-mml-node="mo" transform="matrix(1 0 0 -1 4138.9 67)"/><g data-mml-node="mtext" transform="matrix(1 0 0 -1 5139.1 67)"><use xlink:href="#a"/><use xlink:href="#b" transform="translate(444)"/><use xlink:href="#c" transform="translate(944)"/></g><use xlink:href="#d" data-mml-node="mo" transform="matrix(1 0 0 -1 6477.1 67)"/><g data-mml-node="msub"><use xlink:href="#e" data-mml-node="mi" transform="matrix(1 0 0 -1 6866.1 67)"/><g data-mml-node="TeXAtom"><g data-mml-node="mn" transform="matrix(.707 0 0 -.707 7506.1 217)"><use xlink:href="#h"/><use xlink:href="#h" transform="translate(500)"/></g></g></g><g data-mml-node="msup"><use xlink:href="#g" data-mml-node="mo" transform="matrix(1 0 0 -1 8263.2 67)"/><use xlink:href="#h" data-mml-node="mn" transform="matrix(.707 0 0 -.707 8652.2 -346)"/></g><use xlink:href="#i" data-mml-node="mo" transform="matrix(1 0 0 -1 9278 67)"/><g data-mml-node="mtext" transform="matrix(1 0 0 -1 10278.2 67)"><use xlink:href="#a"/><use xlink:href="#b" transform="translate(444)"/><use xlink:href="#c" transform="translate(944)"/></g><use xlink:href="#d" data-mml-node="mo" transform="matrix(1 0 0 -1 11616.2 67)"/><g data-mml-node="msub"><use xlink:href="#e" data-mml-node="mi" transform="matrix(1 0 0 -1 12005.2 67)"/><g data-mml-node="TeXAtom"><g data-mml-node="mn" transform="matrix(.707 0 0 -.707 12645.2 217)"><use xlink:href="#h"/><use xlink:href="#j" transform="translate(500)"/></g></g></g><g data-mml-node="msup"><use xlink:href="#g" data-mml-node="mo" transform="matrix(1 0 0 -1 13402.3 67)"/><use xlink:href="#h" data-mml-node="mn" transform="matrix(.707 0 0 -.707 13791.3 -346)"/></g><use xlink:href="#k" data-mml-node="mo" transform="matrix(1 0 0 -1 14472.6 67)"/><use xlink:href="#f" data-mml-node="mn" transform="matrix(1 0 0 -1 15528.4 67)"/></g></g><g data-mml-node="mtr"><g data-mml-node="mtd"><g data-mml-node="mtext" transform="matrix(1 0 0 -1 0 1421.9)"><use xlink:href="#a"/><use xlink:href="#b" transform="translate(444)"/><use xlink:href="#c" transform="translate(944)"/></g><use xlink:href="#d" data-mml-node="mo" transform="matrix(1 0 0 -1 1338 1421.9)"/><g data-mml-node="msub"><use xlink:href="#e" data-mml-node="mi" transform="matrix(1 0 0 -1 1727 1421.9)"/><g data-mml-node="TeXAtom"><g data-mml-node="mn" transform="matrix(.707 0 0 -.707 2367 1571.9)"><use xlink:href="#j"/><use xlink:href="#f" transform="translate(500)"/></g></g></g><g data-mml-node="msup"><use xlink:href="#g" data-mml-node="mo" transform="matrix(1 0 0 -1 3124.1 1421.9)"/><use xlink:href="#h" data-mml-node="mn" transform="matrix(.707 0 0 -.707 3513.1 1008.9)"/></g><use xlink:href="#i" data-mml-node="mo" transform="matrix(1 0 0 -1 4138.9 1421.9)"/><g data-mml-node="mtext" transform="matrix(1 0 0 -1 5139.1 1421.9)"><use xlink:href="#a"/><use xlink:href="#b" transform="translate(444)"/><use xlink:href="#c" transform="translate(944)"/></g><use xlink:href="#d" data-mml-node="mo" transform="matrix(1 0 0 -1 6477.1 1421.9)"/><g data-mml-node="msub"><use xlink:href="#e" data-mml-node="mi" transform="matrix(1 0 0 -1 6866.1 1421.9)"/><g data-mml-node="TeXAtom"><g data-mml-node="mn" transform="matrix(.707 0 0 -.707 7506.1 1571.9)"><use xlink:href="#j"/><use xlink:href="#h" transform="translate(500)"/></g></g></g><g data-mml-node="msup"><use xlink:href="#g" data-mml-node="mo" transform="matrix(1 0 0 -1 8263.2 1421.9)"/><use xlink:href="#h" data-mml-node="mn" transform="matrix(.707 0 0 -.707 8652.2 1008.9)"/></g><use xlink:href="#i" data-mml-node="mo" transform="matrix(1 0 0 -1 9278 1421.9)"/><g data-mml-node="mtext" transform="matrix(1 0 0 -1 10278.2 1421.9)"><use xlink:href="#a"/><use xlink:href="#b" transform="translate(444)"/><use xlink:href="#c" transform="translate(944)"/></g><use xlink:href="#d" data-mml-node="mo" transform="matrix(1 0 0 -1 11616.2 1421.9)"/><g data-mml-node="msub"><use xlink:href="#e" data-mml-node="mi" transform="matrix(1 0 0 -1 12005.2 1421.9)"/><g data-mml-node="TeXAtom"><g data-mml-node="mn" transform="matrix(.707 0 0 -.707 12645.2 1571.9)"><use xlink:href="#j"/><use xlink:href="#j" transform="translate(500)"/></g></g></g><g data-mml-node="msup"><use xlink:href="#g" data-mml-node="mo" transform="matrix(1 0 0 -1 13402.3 1421.9)"/><use xlink:href="#h" data-mml-node="mn" transform="matrix(.707 0 0 -.707 13791.3 1008.9)"/></g><use xlink:href="#k" data-mml-node="mo" transform="matrix(1 0 0 -1 14472.6 1421.9)"/><use xlink:href="#f" data-mml-node="mn" transform="matrix(1 0 0 -1 15528.4 1421.9)"/></g></g></g></g></svg>