<svg xmlns="http://www.w3.org/2000/svg" width="400" height="65" viewBox="0 -3135.9 19682 5771.8" xmlns:xlink="http://www.w3.org/1999/xlink"><defs><path id="a" d="M38 220q0 53 16 94t41 66 57 41 59 22 53 6q104 0 165-63l9-9 46 73h56v-582h69v-62h-9q-18 3-125 3-115 0-124-3h-9v62h69V42q-2-1-12-8t-16-9-16-9-20-9-23-6-28-5-32-2Q162-6 100 56T38 220zM287 46q81 0 130 81v174l-5 11q-14 35-43 59t-67 24q-20 0-39-7t-38-26-31-54-12-87q0-95 32-135t73-40z"/><path id="b" d="M79 43q-6 0-27 6T30 61q0 7 55 232t61 235q15 32 52 32 20 0 42-15t22-44q0-5-2-15-1-7-87-223T84 45t-5-2z"/><path id="c" d="M56 347q0 13 14 20h637q15-8 15-20 0-11-14-19l-318-1H72q-16 5-16 20zm0-194q0 15 16 20h636q14-10 14-20 0-13-15-20H70q-14 7-14 20z"/><path id="d" d="M319-645v1799h347v-84H403V-645h-84z"/><path id="e" d="M319-644v1799h84V-560h263v-84H319z"/><path id="f" d="M319 0v602h84V0h-84z"/><path id="g" d="M370 305h-21l-36 15-16 38q0 23 15 38 5 5 5 6t-10 2q-26 4-49 4-49 0-80-32-47-47-47-157 0-82 31-129 41-61 110-61 41 0 66 26t36 62q2 8 5 10t16 2h14q6-6 6-9 0-4-4-16t-16-33-29-38-48-31-69-13q-86 0-150 64T34 214q0 104 65 169t151 65 120-27 34-64q0-23-17-37z"/><path id="h" d="M28 214q0 95 65 164t157 70q90 0 155-68t66-165q0-95-64-160T250-10q-97 0-159 67T28 214zM250 30q122 0 122 163v57q0 22-1 38t-7 38-16 36-31 28-49 20q-5 1-16 1-30 0-57-12-43-22-56-61t-13-92v-20q0-96 19-135 32-61 105-61z"/><path id="i" d="M295 316q0 40-27 69t-78 29q-36 0-62-13-30-19-30-52-1-5 0-13t16-24 43-25q18-5 44-9t44-9 32-13q17-8 33-20t32-41 17-62q0-62-38-102T198-10h-8q-52 0-96 36l-8-7-9-9Q71 4 65-1L54-11H42q-3 0-9 6v137q0 21 2 25t10 5h9q12 0 16-4t5-12 7-27 19-42q35-51 97-51 97 0 97 78 0 29-18 47-20 24-83 36t-83 23q-36 17-57 46t-21 62q0 39 17 66t43 40 50 18 44 5h11q40 0 70-15l15-8 9 7q10 9 22 17h12q3 0 9-6V310l-6-6h-28q-6 6-6 12z"/><path id="j" d="M94 250q0 69 10 131t23 107 37 88 38 67 42 52 33 34 25 21h17q14 0 14-9 0-3-17-21t-41-53-49-86-42-138-17-193 17-192 41-139 49-86 42-53 17-21q0-9-15-9h-16l-28 24q-94 85-137 212T94 250z"/><path id="k" d="M312 622q-2 1-5 3t-4 4-6 2-11 3-16 1-24 1-35 1h-27v46h12q24-3 165-3t165 3h12v-46h-27q-43 0-64-2t-25-4-11-9v-89l14-2q100-12 170-65t70-124q0-41-23-75t-59-58-77-37-81-20l-14-2V61q6-6 10-8t26-5 64-2h27V0h-12q-24 3-165 3T196 0h-12v46h61q14 0 25 1t16 1 11 3 6 3 4 3 5 4v89h-2q-1 1-21 3t-57 13-72 29q-11 6-24 15t-33 28-34 46-13 58q0 72 72 125t166 63q15 2 16 3h2v89zM170 342q0-135 137-154h5v307h-3q-8 0-27-4t-51-22-45-46q-16-34-16-81zm245-154q72 11 104 48t32 106q0 42-12 72t-32 45-37 22-36 10-19 4h-5V188h5z"/><path id="l" d="M109 429q-27 0-43 18t-16 44q0 71 53 123t132 52q91 0 152-56t62-145q0-43-20-82t-48-68-80-74q-36-31-100-92l-59-56 76-1q157 0 167 5 7 2 24 89v3h40v-3q-1-3-13-91T421 3V0H50v31q0 7 6 15t30 35q29 32 50 56 9 10 34 37t34 37 29 33 28 34 23 30 21 32 15 29 13 32 7 30 3 33q0 63-34 109t-97 46q-33 0-58-17t-35-33-10-19q0-1 5-1 18 0 37-14t19-46q0-25-16-42t-45-18z"/><path id="m" d="M84 237v13l14 20h581q15-8 15-20t-15-20H98q-14 7-14 20z"/><path id="n" d="M132-11q-34 0-34 33v11l13 28q75 158 109 273l8 24h-32q-38 0-54-3t-39-19q-11-7-22-18t-19-21-9-12q-2-1-15-1-19 0-19 10 0 6 19 35t55 62 71 38q7 2 225 2 160 0 164-1 20-7 20-28 0-31-32-42-6-2-69-2h-64l-3-17q-12-72-12-119 0-52 9-93t19-64 10-28q0-17-14-32t-36-15q-11 0-18 3t-16 24-16 60q-1 9-1 44 0 49 9 105t18 92 10 40h-98l-1-4q0-3-19-79t-43-161-31-97q-11-28-43-28z"/><path id="o" d="M60 749l4 1h22l28-24q94-85 137-212t43-264q0-68-10-131T261 12t-37-88-38-67-41-51-32-33-23-19l-4-4H63q-3 0-5 3t-3 9q1 1 11 13Q221-64 221 250T66 725q-10 12-11 13 0 8 5 11z"/><path id="p" d="M39 168q0 57 19 104t49 78 67 52 70 31 63 9h3q45 0 78-22t33-65q0-90-111-118-49-13-134-14-37 0-38-2 0-2-6-35t-7-58q0-47 21-74t63-28 93 19 92 66q9 10 12 10 4 0 13-9t10-14-9-16-30-27-46-31-63-25-76-10q-79 0-122 53T39 168zm334 185q-6 52-68 52-33 0-61-14t-45-34-29-41-16-36-5-19q0-1 20-1 113 0 158 24t46 69z"/><path id="q" d="M213 578l-13-5q-14-5-40-10t-58-7H83v46h19q47 2 87 15t56 24 28 22q2 3 12 3 9 0 17-6V361l1-300q7-7 12-9t24-4 62-2h26V0h-11q-21 3-159 3-136 0-157-3H88v46h64q16 0 25 1t16 3 8 2 6 5 6 4v517z"/><path id="r" d="M69 609q0 28 18 44t44 16q23-2 40-17t17-43q0-30-17-45t-42-15q-25 0-42 15t-18 45zM247 0q-15 3-104 3h-37Q80 3 56 1L34 0h-8v46h16q28 0 49 3 9 4 11 11t2 42v191q0 52-2 66t-14 19q-14 7-47 7H30v23q0 23 2 23l10 1q10 1 28 2t36 2 36 2 29 3 11 1h3V62q5-10 12-12t35-4h23V0h-8z"/><path id="s" d="M41 46h14q39 0 47 14v62q0 17 1 39t0 42v66q0 35-1 59v23q-3 19-14 25t-45 9H25v23q0 23 2 23l10 1q10 1 28 2t37 2q17 1 36 2t29 3 11 1h3v-40q0-38 1-38t5 5 12 15 19 18 29 19 38 16q20 5 51 5 114-4 127-113 1-7 1-139v-86q0-38 2-45t11-10q21-3 49-3h16V0h-8l-24 1q-23 1-50 1t-38 1Q319 3 310 0h-8v46h16q61 0 61 16 1 2 1 138-1 135-2 143-6 28-20 42t-24 17-26 2q-45 0-79-34-27-27-34-55t-8-83V108q0-30 1-40t3-13 9-6q21-3 49-3h16V0h-8l-23 1q-24 1-51 1t-38 1Q42 3 33 0h-8v46h16z"/><path id="t" d="M127 463q-27 0-42 17t-16 44q0 55 48 98t116 43q35 0 44-1 74-12 113-53t40-89q0-52-34-101t-94-71l-3-2q0-1 9-3t29-9 38-21q82-53 82-140 0-79-62-138T238-22q-80 0-138 43T42 130q0 28 18 45t45 18q28 0 46-18t18-45q0-11-3-20t-7-16-11-12-12-8-10-4-8-3l-4-1q51-45 124-45 55 0 83 53 17 33 17 101v20q0 95-64 127-15 6-61 7l-42 1-3 2q-2 3-2 16 0 18 8 18 28 0 58 5 34 5 62 42t28 112v8q0 57-35 79-22 14-47 14-32 0-59-11t-38-23-11-12h3q3-1 8-2t10-5 12-7 10-11 8-15 3-20q0-22-14-39t-45-18z"/><path id="u" d="M0 1070v84h347V-645h-84v1715H0z"/><path id="v" d="M263-560v1715h84V-644H0v84h263z"/><path id="w" d="M263 0v602h84V0h-84z"/></defs><g data-mml-node="math" stroke="currentColor" fill="currentColor" stroke-width="0"><g data-mml-node="msup"><g data-mml-node="TeXAtom"><use xlink:href="#a" data-mml-node="mi" transform="scale(1 -1)"/></g><use xlink:href="#b" data-mml-node="mo" transform="matrix(.707 0 0 -.707 607 -413)"/></g><use xlink:href="#c" data-mml-node="mo" transform="matrix(1 0 0 -1 851.5 0)"/><g data-mml-node="mrow"><g data-mml-node="mo" transform="matrix(1 0 0 -1 1907.2 0)"><use xlink:href="#d" transform="translate(104 1981.9)"/><use xlink:href="#e" transform="translate(104 -1991.9)"/><svg width="667" height="2373.8" y="-936.9" x="104" viewBox="0 593.5 667 2373.8"><use xlink:href="#f" transform="scale(1 5.915)"/></svg></g><g data-mml-node="mtable"><g data-mml-node="mtr"><g data-mml-node="mtd"><g data-mml-node="mtext" transform="matrix(1 0 0 -1 3162 -2259)"><use xlink:href="#g"/><use xlink:href="#h" transform="translate(444)"/><use xlink:href="#i" transform="translate(944)"/></g><use xlink:href="#j" data-mml-node="mo" transform="matrix(1 0 0 -1 4500 -2259)"/><g data-mml-node="mfrac"><use xlink:href="#k" data-mml-node="mi" transform="matrix(.707 0 0 -.707 5109 -2653)"/><use xlink:href="#l" data-mml-node="mn" transform="matrix(.707 0 0 -.707 5187.5 -1914)"/><path stroke="none" d="M5009-2479h710.5v-60H5009z"/></g><use xlink:href="#m" data-mml-node="mo" transform="matrix(1 0 0 -1 6061.8 -2259)"/><use xlink:href="#n" data-mml-node="mi" transform="matrix(1 0 0 -1 7062 -2259)"/><use xlink:href="#o" data-mml-node="mo" transform="matrix(1 0 0 -1 7632 -2259)"/></g></g><g data-mml-node="mtr"><g data-mml-node="mtd"><g data-mml-node="msub"><use xlink:href="#p" data-mml-node="mi" transform="matrix(1 0 0 -1 2782.2 -742.3)"/><use xlink:href="#q" data-mml-node="mn" transform="matrix(.707 0 0 -.707 3248.2 -592.3)"/></g><g data-mml-node="mtext" transform="matrix(1 0 0 -1 3651.8 -742.3)"><use xlink:href="#i"/><use xlink:href="#r" transform="translate(394)"/><use xlink:href="#s" transform="translate(672)"/></g><use xlink:href="#j" data-mml-node="mo" transform="matrix(1 0 0 -1 4879.8 -742.3)"/><g data-mml-node="mfrac"><use xlink:href="#k" data-mml-node="mi" transform="matrix(.707 0 0 -.707 5488.8 -1136.3)"/><use xlink:href="#l" data-mml-node="mn" transform="matrix(.707 0 0 -.707 5567.3 -397.3)"/><path stroke="none" d="M5388.8-962.3h710.5v-60h-710.5z"/></g><use xlink:href="#m" data-mml-node="mo" transform="matrix(1 0 0 -1 6441.5 -742.3)"/><use xlink:href="#n" data-mml-node="mi" transform="matrix(1 0 0 -1 7441.7 -742.3)"/><use xlink:href="#o" data-mml-node="mo" transform="matrix(1 0 0 -1 8011.7 -742.3)"/></g></g><g data-mml-node="mtr"><g data-mml-node="mtd"><g data-mml-node="msub"><use xlink:href="#p" data-mml-node="mi" transform="matrix(1 0 0 -1 2782.2 774.3)"/><use xlink:href="#l" data-mml-node="mn" transform="matrix(.707 0 0 -.707 3248.2 924.3)"/></g><g data-mml-node="mtext" transform="matrix(1 0 0 -1 3651.8 774.3)"><use xlink:href="#i"/><use xlink:href="#r" transform="translate(394)"/><use xlink:href="#s" transform="translate(672)"/></g><use xlink:href="#j" data-mml-node="mo" transform="matrix(1 0 0 -1 4879.8 774.3)"/><g data-mml-node="mfrac"><use xlink:href="#k" data-mml-node="mi" transform="matrix(.707 0 0 -.707 5488.8 380.3)"/><use xlink:href="#l" data-mml-node="mn" transform="matrix(.707 0 0 -.707 5567.3 1119.3)"/><path stroke="none" d="M5388.8 554.3h710.5v-60h-710.5z"/></g><use xlink:href="#m" data-mml-node="mo" transform="matrix(1 0 0 -1 6441.5 774.3)"/><use xlink:href="#n" data-mml-node="mi" transform="matrix(1 0 0 -1 7441.7 774.3)"/><use xlink:href="#o" data-mml-node="mo" transform="matrix(1 0 0 -1 8011.7 774.3)"/></g></g><g data-mml-node="mtr"><g data-mml-node="mtd"><g data-mml-node="msub"><use xlink:href="#p" data-mml-node="mi" transform="matrix(1 0 0 -1 2782.2 2290.9)"/><use xlink:href="#t" data-mml-node="mn" transform="matrix(.707 0 0 -.707 3248.2 2440.9)"/></g><g data-mml-node="mtext" transform="matrix(1 0 0 -1 3651.8 2290.9)"><use xlink:href="#i"/><use xlink:href="#r" transform="translate(394)"/><use xlink:href="#s" transform="translate(672)"/></g><use xlink:href="#j" data-mml-node="mo" transform="matrix(1 0 0 -1 4879.8 2290.9)"/><g data-mml-node="mfrac"><use xlink:href="#k" data-mml-node="mi" transform="matrix(.707 0 0 -.707 5488.8 1896.9)"/><use xlink:href="#l" data-mml-node="mn" transform="matrix(.707 0 0 -.707 5567.3 2635.9)"/><path stroke="none" d="M5388.8 2070.9h710.5v-60h-710.5z"/></g><use xlink:href="#m" data-mml-node="mo" transform="matrix(1 0 0 -1 6441.5 2290.9)"/><use xlink:href="#n" data-mml-node="mi" transform="matrix(1 0 0 -1 7441.7 2290.9)"/><use xlink:href="#o" data-mml-node="mo" transform="matrix(1 0 0 -1 8011.7 2290.9)"/></g></g></g><g data-mml-node="mo" transform="matrix(1 0 0 -1 8400.7 0)"><use xlink:href="#u" transform="translate(104 1981.9)"/><use xlink:href="#v" transform="translate(104 -1991.9)"/><svg width="667" height="2373.8" y="-936.9" x="104" viewBox="0 593.5 667 2373.8"><use xlink:href="#w" transform="scale(1 5.915)"/></svg></g></g><use xlink:href="#c" data-mml-node="mo" transform="matrix(1 0 0 -1 9553.5 0)"/><g data-mml-node="mrow"><g data-mml-node="mo" transform="matrix(1 0 0 -1 10609.3 0)"><use xlink:href="#d" transform="translate(104 1981.9)"/><use xlink:href="#e" transform="translate(104 -1991.9)"/><svg width="667" height="2373.8" y="-936.9" x="104" viewBox="0 593.5 667 2373.8"><use xlink:href="#f" transform="scale(1 5.915)"/></svg></g><g data-mml-node="mtable"><g data-mml-node="mtr"><g data-mml-node="mtd"><use xlink:href="#m" data-mml-node="mo" transform="matrix(1 0 0 -1 11864.1 -2259)"/><g data-mml-node="mtext" transform="matrix(1 0 0 -1 12642.1 -2259)"><use xlink:href="#g"/><use xlink:href="#h" transform="translate(444)"/><use xlink:href="#i" transform="translate(944)"/></g><use xlink:href="#j" data-mml-node="mo" transform="matrix(1 0 0 -1 13980.1 -2259)"/><g data-mml-node="mfrac"><use xlink:href="#k" data-mml-node="mi" transform="matrix(.707 0 0 -.707 14589.1 -2653)"/><use xlink:href="#l" data-mml-node="mn" transform="matrix(.707 0 0 -.707 14667.6 -1914)"/><path stroke="none" d="M14489.1-2479h710.5v-60h-710.5z"/></g><use xlink:href="#o" data-mml-node="mo" transform="matrix(1 0 0 -1 15319.6 -2259)"/></g></g><g data-mml-node="mtr"><g data-mml-node="mtd"><use xlink:href="#m" data-mml-node="mo" transform="matrix(1 0 0 -1 11484.3 -742.3)"/><g data-mml-node="msub"><use xlink:href="#p" data-mml-node="mi" transform="matrix(1 0 0 -1 12262.3 -742.3)"/><use xlink:href="#q" data-mml-node="mn" transform="matrix(.707 0 0 -.707 12728.3 -592.3)"/></g><g data-mml-node="mtext" transform="matrix(1 0 0 -1 13131.9 -742.3)"><use xlink:href="#i"/><use xlink:href="#r" transform="translate(394)"/><use xlink:href="#s" transform="translate(672)"/></g><use xlink:href="#j" data-mml-node="mo" transform="matrix(1 0 0 -1 14359.9 -742.3)"/><g data-mml-node="mfrac"><use xlink:href="#k" data-mml-node="mi" transform="matrix(.707 0 0 -.707 14968.9 -1136.3)"/><use xlink:href="#l" data-mml-node="mn" transform="matrix(.707 0 0 -.707 15047.4 -397.3)"/><path stroke="none" d="M14868.9-962.3h710.5v-60h-710.5z"/></g><use xlink:href="#o" data-mml-node="mo" transform="matrix(1 0 0 -1 15699.4 -742.3)"/></g></g><g data-mml-node="mtr"><g data-mml-node="mtd"><use xlink:href="#m" data-mml-node="mo" transform="matrix(1 0 0 -1 11484.3 774.3)"/><g data-mml-node="msub"><use xlink:href="#p" data-mml-node="mi" transform="matrix(1 0 0 -1 12262.3 774.3)"/><use xlink:href="#l" data-mml-node="mn" transform="matrix(.707 0 0 -.707 12728.3 924.3)"/></g><g data-mml-node="mtext" transform="matrix(1 0 0 -1 13131.9 774.3)"><use xlink:href="#i"/><use xlink:href="#r" transform="translate(394)"/><use xlink:href="#s" transform="translate(672)"/></g><use xlink:href="#j" data-mml-node="mo" transform="matrix(1 0 0 -1 14359.9 774.3)"/><g data-mml-node="mfrac"><use xlink:href="#k" data-mml-node="mi" transform="matrix(.707 0 0 -.707 14968.9 380.3)"/><use xlink:href="#l" data-mml-node="mn" transform="matrix(.707 0 0 -.707 15047.4 1119.3)"/><path stroke="none" d="M14868.9 554.3h710.5v-60h-710.5z"/></g><use xlink:href="#o" data-mml-node="mo" transform="matrix(1 0 0 -1 15699.4 774.3)"/></g></g><g data-mml-node="mtr"><g data-mml-node="mtd"><use xlink:href="#m" data-mml-node="mo" transform="matrix(1 0 0 -1 11484.3 2290.9)"/><g data-mml-node="msub"><use xlink:href="#p" data-mml-node="mi" transform="matrix(1 0 0 -1 12262.3 2290.9)"/><use xlink:href="#t" data-mml-node="mn" transform="matrix(.707 0 0 -.707 12728.3 2440.9)"/></g><g data-mml-node="mtext" transform="matrix(1 0 0 -1 13131.9 2290.9)"><use xlink:href="#i"/><use xlink:href="#r" transform="translate(394)"/><use xlink:href="#s" transform="translate(672)"/></g><use xlink:href="#j" data-mml-node="mo" transform="matrix(1 0 0 -1 14359.9 2290.9)"/><g data-mml-node="mfrac"><use xlink:href="#k" data-mml-node="mi" transform="matrix(.707 0 0 -.707 14968.9 1896.9)"/><use xlink:href="#l" data-mml-node="mn" transform="matrix(.707 0 0 -.707 15047.4 2635.9)"/><path stroke="none" d="M14868.9 2070.9h710.5v-60h-710.5z"/></g><use xlink:href="#o" data-mml-node="mo" transform="matrix(1 0 0 -1 15699.4 2290.9)"/></g></g></g><g data-mml-node="mo" transform="matrix(1 0 0 -1 16088.4 0)"><use xlink:href="#u" transform="translate(104 1981.9)"/><use xlink:href="#v" transform="translate(104 -1991.9)"/><svg width="667" height="2373.8" y="-936.9" x="104" viewBox="0 593.5 667 2373.8"><use xlink:href="#w" transform="scale(1 5.915)"/></svg></g></g><use xlink:href="#c" data-mml-node="mo" transform="matrix(1 0 0 -1 17241.2 0)"/><use xlink:href="#m" data-mml-node="mo" transform="matrix(1 0 0 -1 18297 0)"/><g data-mml-node="TeXAtom"><use xlink:href="#a" data-mml-node="mi" transform="matrix(1 0 0 -1 19075 0)"/></g></g></svg>