<svg xmlns="http://www.w3.org/2000/svg" width="420" height="15" viewBox="0 -750 22835.5 1000" xmlns:xlink="http://www.w3.org/1999/xlink"><defs><path id="a" d="M64 343q0 159 110 256t294 98q34 0 65-6t53-17 37-19 24-16 10-7l37 31q9 7 17 14t12 10 7 5 5 3 5 1 6 1q13 0 16-5t4-24V449q0-21-4-25t-20-5h-22q-21 0-23 17-7 62-40 109-46 73-125 87-10 2-36 2-140 0-210-81-54-65-54-210t54-210q69-81 211-81 100 0 153 60t54 125q0 11 5 14t20 3h6q15 0 20-1t8-5 3-14q0-98-86-171T469-11q-184 0-294 97T64 343z"/><path id="b" d="M94 250q0 69 10 131t23 107 37 88 38 67 42 52 33 34 25 21h17q14 0 14-9 0-3-17-21t-41-53-49-86-42-138-17-193 17-192 41-139 49-86 42-53 17-21q0-9-15-9h-16l-28 24q-94 85-137 212T94 250z"/><path id="c" d="M161 441q41 0 65-24t24-59q0-20-32-106t-31-125q3-42 27-66 21-18 43-24 18-8 31-8h1l82 331q84 331 85 332 3 2 16 2 20 0 20-7 0-9-81-331-82-328-82-329t6-1q86 0 163 88t78 164q0 24-8 41t-18 24-18 18-8 23q0 21 17 40t42 19q19 0 35-18t16-59q0-29-11-78t-18-68q-32-95-113-163T329-11h-10l-23-93q-24-94-24-95-2-6-20-6h-13q-6 6-6 8 0 5 23 95t23 93q-7 1-14 1-159 22-159 147 0 35 33 125t34 115v14q0 3-4 7t-11 4h-4q-23 0-42-19t-30-41-17-42-8-22q-2-2-16-2H27q-6 6-6 9 0 12 13 46t48 71 79 37z"/><path id="d" d="M201-25q-34 0-65 11T75 23 29 94 12 202q0 88 38 192t111 180q66 68 142 99t130 31q2 1 24 1 76-4 76-65 0-34-26-92t-43-74q-33-30-68-30-15 0-15 9 0 6 7 20t19 40 21 50q5 17 5 31 0 42-52 42-67 0-121-42t-85-105-47-126-16-116q0-90 41-146t120-57q74 0 125 77 15 23 39 36t44 14q15 0 15-11 0-10-20-37-50-67-126-107T201-25z"/><path id="e" d="M576 668q0 20 30 40t54 20q16 0 15-16V571q0-162 13-319 8-130 32-195 2-4 3-7t5-4 4-3 5-2 6-2l11 6q34 16 49 16 16 0 16-14-1-4-5-12-15-20-59-42t-80-23q-16 0-27 5T630-8t-9 19-7 23q-11 43-15 72t-5 40-3 14v3H460l-131 1-13-19Q241 35 196-7t-77-43-60 26-29 67q0 32 16 57t28 25q7 0 9-5t5-16 8-20q22-27 55-27 38 0 126 125 155 218 265 443l17 34h8q7 0 8 1t1 8zm8-419q-5 84-7 137t-2 87-1 47v61l-11-21q-66-134-151-270l-40-62-2-4h1l12 4 10 4h193l-2 17z"/><path id="f" d="M78 35v25l16 43 43 18q28 0 50-25t23-88q0-35-9-68t-21-57-26-41-24-27-13-9q-4 0-13 9t-9 13q0 4 11 16t25 30 26 50 16 73V9l-1-1q-2-1-5-2t-6-3-9-2-12-1q-27 0-44 17z"/><path id="g" d="M35 200q0 102 39 215t106 195 139 94h8q7 0 12 1 54-4 84-49 39-60 39-161 0-115-45-234T302 66 168-10h-7q-36 0-62 20T60 63t-19 67-6 70zm348 366q0 102-53 102-36 0-70-45t-56-102-34-100-13-50q49-1 97-1l97 1q1 1 8 33t16 80 8 82zM113 132q0-106 53-106 15 0 32 10t41 38 48 87 48 146l5 17H145q0-3-9-38t-16-78-7-76z"/><path id="h" d="M409 688q4 6 12 6h21q6-6 6-8 0-7-30-123-7-28-14-59t-12-46l-4-16q0-1 9-1t32-6 48-17q44-21 73-61t29-97-31-109-77-86-97-54-95-21h-4l-24-95q-6-23-13-55-8-32-11-38t-12-7h-6q-20 0-20 7 0 5 22 95l23 92q0 1-8 1-5 0-20 2T161 6t-54 30-45 53-19 82q0 60 33 113t81 86 97 52 88 19q5 0 6 4l30 122q31 119 31 121zM122 150q0-34 12-59t33-38 36-18 34-8h7l93 377q-4 0-11-1t-29-8-42-16-44-29-41-46q-18-28-33-67-15-46-15-87zm378 132q0 38-16 65t-40 38-39 15-24 4h-3l-46-187-48-188q0-2 1-2 8 0 32 6t40 14q43 19 74 53t44 70 19 64 6 48z"/><path id="i" d="M60 749l4 1h22l28-24q94-85 137-212t43-264q0-68-10-131T261 12t-37-88-38-67-41-51-32-33-23-19l-4-4H63q-3 0-5 3t-3 9q1 1 11 13Q221-64 221 250T66 725q-10 12-11 13 0 8 5 11z"/><path id="j" d="M56 347q0 13 14 20h637q15-8 15-20 0-11-14-19l-318-1H72q-16 5-16 20zm0-194q0 15 16 20h636q14-10 14-20 0-13-15-20H70q-14 7-14 20z"/><path id="k" d="M304 342q-12 0-12 11 0 19 31 38 8 5 94 37t116 59q30 25 30 68v7q0 13-6 27t-27 29-55 18q-46 0-79-23t-66-74q-67-93-120-301-14-55-37-118-38-89-52-104-13-15-36-26T47-22 32-10q0 5 12 28t33 75 35 113q23 90 42 189t28 155 9 65q0 1-1 1-2 0-11-5t-22-10-26-7q-18 0-18 11 0 18 31 39 10 6 61 32t62 27q10 2 12 2 16 0 16-12 0-7-7-58t-10-60q0-3 9 7 49 53 115 87t138 35q63 0 93-31t31-74q0-40-26-76t-58-61q-27-22-76-49l-13-6 13-5q62-21 92-64t31-94q0-72-52-134T444 13 284-22q-76 0-126 50-14 14-12 22 4 17 32 35t52 18q6 0 16-8t21-20 35-19 55-9q79 0 129 46 40 43 40 105v12q0 18-8 39t-27 43-55 38-86 15q-15 0-29-1t-17-2z"/></defs><g data-mml-node="math" stroke="currentColor" fill="currentColor" stroke-width="0"><g data-mml-node="TeXAtom"><use xlink:href="#a" data-mml-node="mi" transform="scale(1 -1)"/></g><use xlink:href="#b" data-mml-node="mo" transform="matrix(1 0 0 -1 831 0)"/><g data-mml-node="msub"><use xlink:href="#c" data-mml-node="mi" transform="matrix(1 0 0 -1 1220 0)"/><g data-mml-node="TeXAtom"><g data-mml-node="TeXAtom"><use xlink:href="#d" data-mml-node="mi" transform="matrix(.707 0 0 -.707 1871 161.2)"/></g><g data-mml-node="TeXAtom"><use xlink:href="#e" data-mml-node="mi" transform="matrix(.707 0 0 -.707 2243.589 161.2)"/></g></g></g><use xlink:href="#f" data-mml-node="mo" transform="matrix(1 0 0 -1 2857.9 0)"/><g data-mml-node="msub"><use xlink:href="#g" data-mml-node="mi" transform="matrix(1 0 0 -1 3302.6 0)"/><g data-mml-node="TeXAtom"><g data-mml-node="TeXAtom"><use xlink:href="#d" data-mml-node="mi" transform="matrix(.707 0 0 -.707 3771.6 161.2)"/></g><g data-mml-node="TeXAtom"><use xlink:href="#e" data-mml-node="mi" transform="matrix(.707 0 0 -.707 4144.189 161.2)"/></g></g></g><use xlink:href="#f" data-mml-node="mo" transform="matrix(1 0 0 -1 4758.5 0)"/><g data-mml-node="msub"><use xlink:href="#h" data-mml-node="mi" transform="matrix(1 0 0 -1 5203.2 0)"/><g data-mml-node="TeXAtom"><g data-mml-node="TeXAtom"><use xlink:href="#d" data-mml-node="mi" transform="matrix(.707 0 0 -.707 5799.2 161.2)"/></g><g data-mml-node="TeXAtom"><use xlink:href="#e" data-mml-node="mi" transform="matrix(.707 0 0 -.707 6171.789 161.2)"/></g></g></g><use xlink:href="#i" data-mml-node="mo" transform="matrix(1 0 0 -1 6786.1 0)"/><use xlink:href="#j" data-mml-node="mo" transform="matrix(1 0 0 -1 7452.9 0)"/><g data-mml-node="TeXAtom"><use xlink:href="#a" data-mml-node="mi" transform="matrix(1 0 0 -1 8508.6 0)"/></g><use xlink:href="#b" data-mml-node="mo" transform="matrix(1 0 0 -1 9339.6 0)"/><g data-mml-node="msub"><use xlink:href="#c" data-mml-node="mi" transform="matrix(1 0 0 -1 9728.6 0)"/><g data-mml-node="TeXAtom"><g data-mml-node="TeXAtom"><use xlink:href="#d" data-mml-node="mi" transform="matrix(.707 0 0 -.707 10379.6 150)"/></g><g data-mml-node="TeXAtom"><use xlink:href="#k" data-mml-node="mi" transform="matrix(.707 0 0 -.707 10752.189 150)"/></g></g></g><use xlink:href="#f" data-mml-node="mo" transform="matrix(1 0 0 -1 11266.9 0)"/><g data-mml-node="msub"><use xlink:href="#g" data-mml-node="mi" transform="matrix(1 0 0 -1 11711.5 0)"/><g data-mml-node="TeXAtom"><g data-mml-node="TeXAtom"><use xlink:href="#d" data-mml-node="mi" transform="matrix(.707 0 0 -.707 12180.5 150)"/></g><g data-mml-node="TeXAtom"><use xlink:href="#k" data-mml-node="mi" transform="matrix(.707 0 0 -.707 12553.089 150)"/></g></g></g><use xlink:href="#f" data-mml-node="mo" transform="matrix(1 0 0 -1 13067.7 0)"/><g data-mml-node="msub"><use xlink:href="#h" data-mml-node="mi" transform="matrix(1 0 0 -1 13512.4 0)"/><g data-mml-node="TeXAtom"><g data-mml-node="TeXAtom"><use xlink:href="#d" data-mml-node="mi" transform="matrix(.707 0 0 -.707 14108.4 150)"/></g><g data-mml-node="TeXAtom"><use xlink:href="#k" data-mml-node="mi" transform="matrix(.707 0 0 -.707 14480.989 150)"/></g></g></g><use xlink:href="#i" data-mml-node="mo" transform="matrix(1 0 0 -1 14995.6 0)"/><g data-mml-node="TeXAtom"><use xlink:href="#a" data-mml-node="mi" transform="matrix(1 0 0 -1 15384.6 0)"/></g><use xlink:href="#b" data-mml-node="mo" transform="matrix(1 0 0 -1 16215.6 0)"/><g data-mml-node="msub"><use xlink:href="#c" data-mml-node="mi" transform="matrix(1 0 0 -1 16604.6 0)"/><g data-mml-node="TeXAtom"><g data-mml-node="TeXAtom"><use xlink:href="#k" data-mml-node="mi" transform="matrix(.707 0 0 -.707 17255.6 161.2)"/></g><g data-mml-node="TeXAtom"><use xlink:href="#e" data-mml-node="mi" transform="matrix(.707 0 0 -.707 17720.099 161.2)"/></g></g></g><use xlink:href="#f" data-mml-node="mo" transform="matrix(1 0 0 -1 18334.5 0)"/><g data-mml-node="msub"><use xlink:href="#g" data-mml-node="mi" transform="matrix(1 0 0 -1 18779.1 0)"/><g data-mml-node="TeXAtom"><g data-mml-node="TeXAtom"><use xlink:href="#k" data-mml-node="mi" transform="matrix(.707 0 0 -.707 19248.1 161.2)"/></g><g data-mml-node="TeXAtom"><use xlink:href="#e" data-mml-node="mi" transform="matrix(.707 0 0 -.707 19712.599 161.2)"/></g></g></g><use xlink:href="#f" data-mml-node="mo" transform="matrix(1 0 0 -1 20327 0)"/><g data-mml-node="msub"><use xlink:href="#h" data-mml-node="mi" transform="matrix(1 0 0 -1 20771.6 0)"/><g data-mml-node="TeXAtom"><g data-mml-node="TeXAtom"><use xlink:href="#k" data-mml-node="mi" transform="matrix(.707 0 0 -.707 21367.6 161.2)"/></g><g data-mml-node="TeXAtom"><use xlink:href="#e" data-mml-node="mi" transform="matrix(.707 0 0 -.707 21832.099 161.2)"/></g></g></g><use xlink:href="#i" data-mml-node="mo" transform="matrix(1 0 0 -1 22446.5 0)"/></g></svg>