<svg xmlns="http://www.w3.org/2000/svg" width="450" height="15" viewBox="0 -750 20753.6 1000" xmlns:xlink="http://www.w3.org/1999/xlink"><defs><path id="a" d="M33 157q0 101 76 192t171 92q60 0 92-52 1 1 5 6t11 11 16 12q34 24 46 24 4 0 7-3t3-5q0-9-69-285-71-284-71-288 0-8 45-9h25q6-8 6-9t-3-18q-4-13-10-19h-13q-31 2-108 2h-88q-14 0-17-1-14 0-14 8 0 3 2 15 4 16 7 19t20 3q48 0 58 7 8 5 28 88t21 85q0 1-7-3-48-39-100-39-55 0-97 40T33 157zm319 169q-23 79-75 79-35 0-67-31t-50-81q-29-79-41-164v-11q0-8-1-12 0-45 18-62t43-18q54 0 111 72l8 11 54 217z"/><path id="b" d="M23 287q1 3 2 8t5 22 10 31 15 33 20 30 26 22 33 9q75 0 96-64l10 9q62 55 118 55 65 0 102-47t37-114q0-108-76-199T249-10q-22 0-39 6-11 5-23 15t-19 17l-7 8q-1-1-22-87t-21-87q0-6 8-7t37-3h25q6-7 6-9t-3-18q-3-12-6-15t-13-4h-11q-9 0-34 1t-62 1q-70 0-89-2h-8q-7 7-7 11 2 27 13 35h20q34 1 39 12 3 6 61 239t61 247q1 5 1 14 0 41-25 41-22 0-37-28t-23-61-12-36q-2-2-16-2H29q-6 6-6 9zm155-185q22-76 74-76 30 0 58 23t46 58q18 34 36 108t19 110v6q0 74-61 74-11 0-22-3t-22-9-20-13-17-15-15-15-11-14-8-10l-3-4q0-1-3-14t-11-44-14-52q-26-106-26-110z"/><path id="c" d="M56 347q0 13 14 20h637q15-8 15-20 0-11-14-19l-318-1H72q-16 5-16 20zm0-194q0 15 16 20h636q14-10 14-20 0-13-15-20H70q-14 7-14 20z"/><path id="d" d="M94 250q0 69 10 131t23 107 37 88 38 67 42 52 33 34 25 21h17q14 0 14-9 0-3-17-21t-41-53-49-86-42-138-17-193 17-192 41-139 49-86 42-53 17-21q0-9-15-9h-16l-28 24q-94 85-137 212T94 250z"/><path id="e" d="M96 585q56 81 153 81 48 0 96-26t78-92q37-83 37-228 0-155-43-237-20-42-55-67t-61-31-51-7q-26 0-52 6t-61 32-55 67q-43 82-43 237 0 174 57 265zm225 12q-30 32-71 32-42 0-72-32-25-26-33-72t-8-192q0-158 8-208t36-79q28-30 69-30 40 0 68 30 29 30 36 84t8 203q0 145-8 191t-33 73z"/><path id="f" d="M56 237v13l14 20h299v150l1 150q10 13 19 13 13 0 20-15V270h298q15-8 15-20t-15-20H409V-68q-8-14-18-14h-4q-12 0-18 14v298H70q-14 7-14 20z"/><path id="g" d="M213 578l-13-5q-14-5-40-10t-58-7H83v46h19q47 2 87 15t56 24 28 22q2 3 12 3 9 0 17-6V361l1-300q7-7 12-9t24-4 62-2h26V0h-11q-21 3-159 3-136 0-157-3H88v46h64q16 0 25 1t16 3 8 2 6 5 6 4v517z"/><path id="h" d="M184 600q0 24 19 42t44 19q18 0 30-12t13-30q0-23-20-42t-44-20q-15 0-28 10t-14 33zM21 287q0 8 9 31t24 51 44 51 60 22q39 0 65-23t27-62q0-17-14-56t-40-105-42-113q-5-22-5-32 0-25 17-25 9 0 19 3t23 14 27 35 25 59q3 12 5 14t17 2q20 0 20-10 0-8-9-31t-25-51-45-50-62-22q-32 0-59 21T74 74q0 17 5 32t43 114q38 101 44 121t7 39q0 24-17 24h-2q-30 0-55-33t-38-84q-1-1-2-3t-1-3-2-2-3-1-4 0-8 0H27q-6 6-6 9z"/><path id="i" d="M109 429q-27 0-43 18t-16 44q0 71 53 123t132 52q91 0 152-56t62-145q0-43-20-82t-48-68-80-74q-36-31-100-92l-59-56 76-1q157 0 167 5 7 2 24 89v3h40v-3q-1-3-13-91T421 3V0H50v31q0 7 6 15t30 35q29 32 50 56 9 10 34 37t34 37 29 33 28 34 23 30 21 32 15 29 13 32 7 30 3 33q0 63-34 109t-97 46q-33 0-58-17t-35-33-10-19q0-1 5-1 18 0 37-14t19-46q0-25-16-42t-45-18z"/><path id="j" d="M297 596q0 31 21 48t43 17q17 0 28-10t14-28q0-28-19-47t-44-19q-18 0-30 10t-13 29zm-9-220q0 29-26 29-22 0-42-12t-35-31-24-37-17-32l-7-14q-2-1-16-1h-14q-6 6-6 8t4 13q21 49 59 92t88 50h8q7 0 12 1 24-1 44-10 25-14 38-31t13-53v-16l-49-199Q267-67 264-75q-18-50-70-89T75-204q-50 0-68 21t-19 46q0 27 19 46t46 20q17 0 29-10t13-31q0-36-32-55 6-1 14-1 34 0 62 28t43 66l11 42q11 43 26 104t32 125 27 111 11 57q0 7-1 11z"/><path id="k" d="M127 463q-27 0-42 17t-16 44q0 55 48 98t116 43q35 0 44-1 74-12 113-53t40-89q0-52-34-101t-94-71l-3-2q0-1 9-3t29-9 38-21q82-53 82-140 0-79-62-138T238-22q-80 0-138 43T42 130q0 28 18 45t45 18q28 0 46-18t18-45q0-11-3-20t-7-16-11-12-12-8-10-4-8-3l-4-1q51-45 124-45 55 0 83 53 17 33 17 101v20q0 95-64 127-15 6-61 7l-42 1-3 2q-2 3-2 16 0 18 8 18 28 0 58 5 34 5 62 42t28 112v8q0 57-35 79-22 14-47 14-32 0-59-11t-38-23-11-12h3q3-1 8-2t10-5 12-7 10-11 8-15 3-20q0-22-14-39t-45-18z"/><path id="l" d="M121 647q0 10 4 23t12 13q1 0 72 5t73 6q12 0 12-8 0-7-50-209-50-198-50-205 19 10 29 19 24 18 69 63t70 61q40 27 76 27 30 0 47-19t18-54q0-25-7-42t-19-25-21-11-18-3q-20 0-32 11t-12 29q0 25 16 41t32 21l16 3q-12 12-24 12h-4q-32-3-63-25t-73-64-66-61q2-1 15-3t24-6 26-8 27-14 22-18 17-26 6-33q0-17-5-41t-6-40q0-40 27-40 48 0 78 119 2 8 20 8h4q16 0 16-9 0-5-3-14Q455-11 378-11q-45 0-73 26t-28 75q0 18 3 31t3 24q0 22-14 38t-35 23-34 11-18 3h-2q-12-42-21-81t-14-58-9-37-7-24-7-13-11-9q-13-9-28-9-17 0-26 10t-9 17q0 10 37 160t73 295l37 145q1 13-7 16t-39 5h-18q-3 0-7 3t-3 7z"/><path id="m" d="M60 749l4 1h22l28-24q94-85 137-212t43-264q0-68-10-131T261 12t-37-88-38-67-41-51-32-33-23-19l-4-4H63q-3 0-5 3t-3 9q1 1 11 13Q221-64 221 250T66 725q-10 12-11 13 0 8 5 11z"/></defs><g data-mml-node="math" stroke="currentColor" fill="currentColor" stroke-width="0"><use xlink:href="#a" data-mml-node="mi" transform="scale(1 -1)"/><use xlink:href="#b" data-mml-node="mi" transform="matrix(1 0 0 -1 446 0)"/><use xlink:href="#c" data-mml-node="mo" transform="matrix(1 0 0 -1 1226.8 0)"/><use xlink:href="#d" data-mml-node="mo" transform="matrix(1 0 0 -1 2282.6 0)"/><g data-mml-node="msub"><use xlink:href="#a" data-mml-node="mi" transform="matrix(1 0 0 -1 2671.6 0)"/><use xlink:href="#e" data-mml-node="mn" transform="matrix(.707 0 0 -.707 3117.6 150)"/></g><use xlink:href="#f" data-mml-node="mo" transform="matrix(1 0 0 -1 3743.3 0)"/><g data-mml-node="msub"><use xlink:href="#a" data-mml-node="mi" transform="matrix(1 0 0 -1 4743.6 0)"/><use xlink:href="#g" data-mml-node="mn" transform="matrix(.707 0 0 -.707 5189.6 150)"/></g><use xlink:href="#h" data-mml-node="mi" transform="matrix(1 0 0 -1 5593.1 0)"/><use xlink:href="#f" data-mml-node="mo" transform="matrix(1 0 0 -1 6160.3 0)"/><g data-mml-node="msub"><use xlink:href="#a" data-mml-node="mi" transform="matrix(1 0 0 -1 7160.6 0)"/><use xlink:href="#i" data-mml-node="mn" transform="matrix(.707 0 0 -.707 7606.6 150)"/></g><use xlink:href="#j" data-mml-node="mi" transform="matrix(1 0 0 -1 8010.1 0)"/><use xlink:href="#f" data-mml-node="mo" transform="matrix(1 0 0 -1 8644.3 0)"/><g data-mml-node="msub"><use xlink:href="#a" data-mml-node="mi" transform="matrix(1 0 0 -1 9644.5 0)"/><use xlink:href="#k" data-mml-node="mn" transform="matrix(.707 0 0 -.707 10090.5 150)"/></g><use xlink:href="#l" data-mml-node="mi" transform="matrix(1 0 0 -1 10494.1 0)"/><use xlink:href="#m" data-mml-node="mo" transform="matrix(1 0 0 -1 11015.1 0)"/><use xlink:href="#d" data-mml-node="mo" transform="matrix(1 0 0 -1 11404.1 0)"/><g data-mml-node="msub"><use xlink:href="#b" data-mml-node="mi" transform="matrix(1 0 0 -1 11793.1 0)"/><use xlink:href="#e" data-mml-node="mn" transform="matrix(.707 0 0 -.707 12296.1 150)"/></g><use xlink:href="#f" data-mml-node="mo" transform="matrix(1 0 0 -1 12921.9 0)"/><g data-mml-node="msub"><use xlink:href="#b" data-mml-node="mi" transform="matrix(1 0 0 -1 13922.1 0)"/><use xlink:href="#g" data-mml-node="mn" transform="matrix(.707 0 0 -.707 14425.1 150)"/></g><use xlink:href="#h" data-mml-node="mi" transform="matrix(1 0 0 -1 14828.7 0)"/><use xlink:href="#f" data-mml-node="mo" transform="matrix(1 0 0 -1 15395.9 0)"/><g data-mml-node="msub"><use xlink:href="#b" data-mml-node="mi" transform="matrix(1 0 0 -1 16396.1 0)"/><use xlink:href="#i" data-mml-node="mn" transform="matrix(.707 0 0 -.707 16899.1 150)"/></g><use xlink:href="#j" data-mml-node="mi" transform="matrix(1 0 0 -1 17302.7 0)"/><use xlink:href="#f" data-mml-node="mo" transform="matrix(1 0 0 -1 17936.9 0)"/><g data-mml-node="msub"><use xlink:href="#b" data-mml-node="mi" transform="matrix(1 0 0 -1 18937.1 0)"/><use xlink:href="#k" data-mml-node="mn" transform="matrix(.707 0 0 -.707 19440.1 150)"/></g><use xlink:href="#l" data-mml-node="mi" transform="matrix(1 0 0 -1 19843.6 0)"/><use xlink:href="#m" data-mml-node="mo" transform="matrix(1 0 0 -1 20364.6 0)"/></g></svg>