<svg xmlns="http://www.w3.org/2000/svg" width="450" height="15" viewBox="0 -697 3801.6 779" xmlns:xlink="http://www.w3.org/1999/xlink"><defs><path id="a" d="M64 343q0 159 110 256t294 98q34 0 65-6t53-17 37-19 24-16 10-7l37 31q9 7 17 14t12 10 7 5 5 3 5 1 6 1q13 0 16-5t4-24V449q0-21-4-25t-20-5h-22q-21 0-23 17-7 62-40 109-46 73-125 87-10 2-36 2-140 0-210-81-54-65-54-210t54-210q69-81 211-81 100 0 153 60t54 125q0 11 5 14t20 3h6q15 0 20-1t8-5 3-14q0-98-86-171T469-11q-184 0-294 97T64 343z"/><path id="b" d="M32 225q0 107 70 167t170 60h11q99 0 153-51 58-58 58-158 0-17-8-21t-46-5h-46q-37 0-67 1H175v-9q0-32 4-55t17-47 40-38 70-19q6-1 17-1 53 0 87 36 11 14 17 26t7 16 8 6 21 2h5q26 0 26-18 0-7-5-20t-21-31-37-34-58-27-81-11Q181-6 107 55T32 225zm351 51q-6 70-35 98t-68 28q-27 0-50-12t-35-33q-16-26-19-78v-13h207v10z"/><path id="c" d="M56 347q0 13 14 20h637q15-8 15-20 0-11-14-19l-318-1H72q-16 5-16 20zm0-194q0 15 16 20h636q14-10 14-20 0-13-15-20H70q-14 7-14 20z"/><path id="d" d="M166 673q0 12 17 21h19q90-3 114-50 6-15 57-158t101-279 50-140q7-20 13-33t9-19 5-9 4-4 1-4-6-9h-68q-25 14-32 29t-51 134l-45 125-14-15q-13-16-47-55t-57-66q-25-29-62-72-51-60-63-70T83-12q-36 0-36 32 0 17 14 32t138 135q30 29 67 65t55 54l17 16q0 1-50 140t-54 150q-20 45-51 45-17 0-17 16z"/></defs><g data-mml-node="math" stroke="currentColor" fill="currentColor" stroke-width="0"><g data-mml-node="TeXAtom"><use xlink:href="#a" data-mml-node="mi" transform="scale(1 -1)"/></g><g data-mml-node="TeXAtom"><use xlink:href="#b" data-mml-node="mi" transform="matrix(1 0 0 -1 831 0)"/></g><use xlink:href="#c" data-mml-node="mo" transform="matrix(1 0 0 -1 1635.8 0)"/><use xlink:href="#d" data-mml-node="mi" transform="matrix(1 0 0 -1 2691.6 0)"/><g data-mml-node="TeXAtom"><use xlink:href="#b" data-mml-node="mi" transform="matrix(1 0 0 -1 3274.6 0)"/></g></g></svg>