<svg xmlns="http://www.w3.org/2000/svg" width="450" height="15" viewBox="0 -694 25226.7 898" xmlns:xlink="http://www.w3.org/1999/xlink"><defs><path id="a" d="M184 600q0 24 19 42t44 19q18 0 30-12t13-30q0-23-20-42t-44-20q-15 0-28 10t-14 33zM21 287q0 8 9 31t24 51 44 51 60 22q39 0 65-23t27-62q0-17-14-56t-40-105-42-113q-5-22-5-32 0-25 17-25 9 0 19 3t23 14 27 35 25 59q3 12 5 14t17 2q20 0 20-10 0-8-9-31t-25-51-45-50-62-22q-32 0-59 21T74 74q0 17 5 32t43 114q38 101 44 121t7 39q0 24-17 24h-2q-30 0-55-33t-38-84q-1-1-2-3t-1-3-2-2-3-1-4 0-8 0H27q-6 6-6 9z"/><path id="b" d="M297 596q0 31 21 48t43 17q17 0 28-10t14-28q0-28-19-47t-44-19q-18 0-30 10t-13 29zm-9-220q0 29-26 29-22 0-42-12t-35-31-24-37-17-32l-7-14q-2-1-16-1h-14q-6 6-6 8t4 13q21 49 59 92t88 50h8q7 0 12 1 24-1 44-10 25-14 38-31t13-53v-16l-49-199Q267-67 264-75q-18-50-70-89T75-204q-50 0-68 21t-19 46q0 27 19 46t46 20q17 0 29-10t13-31q0-36-32-55 6-1 14-1 34 0 62 28t43 66l11 42q11 43 26 104t32 125 27 111 11 57q0 7-1 11z"/><path id="c" d="M56 347q0 13 14 20h637q15-8 15-20 0-11-14-19l-318-1H72q-16 5-16 20zm0-194q0 15 16 20h636q14-10 14-20 0-13-15-20H70q-14 7-14 20z"/><path id="d" d="M121 647q0 10 4 23t12 13q1 0 72 5t73 6q12 0 12-8 0-7-50-209-50-198-50-205 19 10 29 19 24 18 69 63t70 61q40 27 76 27 30 0 47-19t18-54q0-25-7-42t-19-25-21-11-18-3q-20 0-32 11t-12 29q0 25 16 41t32 21l16 3q-12 12-24 12h-4q-32-3-63-25t-73-64-66-61q2-1 15-3t24-6 26-8 27-14 22-18 17-26 6-33q0-17-5-41t-6-40q0-40 27-40 48 0 78 119 2 8 20 8h4q16 0 16-9 0-5-3-14Q455-11 378-11q-45 0-73 26t-28 75q0 18 3 31t3 24q0 22-14 38t-35 23-34 11-18 3h-2q-12-42-21-81t-14-58-9-37-7-24-7-13-11-9q-13-9-28-9-17 0-26 10t-9 17q0 10 37 160t73 295l37 145q1 13-7 16t-39 5h-18q-3 0-7 3t-3 7z"/><path id="e" d="M78 35v25l16 43 43 18q28 0 50-25t23-88q0-35-9-68t-21-57-26-41-24-27-13-9q-4 0-13 9t-9 13q0 4 11 16t25 30 26 50 16 73V9l-1-1q-2-1-5-2t-6-3-9-2-12-1q-27 0-44 17z"/><path id="f" d="M84 237v13l14 20h581q15-8 15-20t-15-20H98q-14 7-14 20z"/></defs><g data-mml-node="math" stroke="currentColor" fill="currentColor" stroke-width="0"><use xlink:href="#a" data-mml-node="mi" transform="scale(1 -1)"/><use xlink:href="#b" data-mml-node="mi" transform="matrix(1 0 0 -1 345 0)"/><use xlink:href="#c" data-mml-node="mo" transform="matrix(1 0 0 -1 1034.8 0)"/><use xlink:href="#d" data-mml-node="mi" transform="matrix(1 0 0 -1 2090.6 0)"/><use xlink:href="#e" data-mml-node="mo" transform="matrix(1 0 0 -1 2611.6 0)"/><use xlink:href="#b" data-mml-node="mi" transform="matrix(1 0 0 -1 4056.2 0)"/><use xlink:href="#d" data-mml-node="mi" transform="matrix(1 0 0 -1 4468.2 0)"/><use xlink:href="#c" data-mml-node="mo" transform="matrix(1 0 0 -1 5267 0)"/><use xlink:href="#a" data-mml-node="mi" transform="matrix(1 0 0 -1 6322.8 0)"/><use xlink:href="#e" data-mml-node="mo" transform="matrix(1 0 0 -1 6667.8 0)"/><use xlink:href="#d" data-mml-node="mi" transform="matrix(1 0 0 -1 8112.4 0)"/><use xlink:href="#a" data-mml-node="mi" transform="matrix(1 0 0 -1 8633.4 0)"/><use xlink:href="#c" data-mml-node="mo" transform="matrix(1 0 0 -1 9256.2 0)"/><use xlink:href="#b" data-mml-node="mi" transform="matrix(1 0 0 -1 10312 0)"/><use xlink:href="#e" data-mml-node="mo" transform="matrix(1 0 0 -1 10724 0)"/><use xlink:href="#a" data-mml-node="mi" transform="matrix(1 0 0 -1 12168.7 0)"/><use xlink:href="#d" data-mml-node="mi" transform="matrix(1 0 0 -1 12513.7 0)"/><use xlink:href="#c" data-mml-node="mo" transform="matrix(1 0 0 -1 13312.4 0)"/><use xlink:href="#f" data-mml-node="mo" transform="matrix(1 0 0 -1 14368.2 0)"/><use xlink:href="#b" data-mml-node="mi" transform="matrix(1 0 0 -1 15146.2 0)"/><use xlink:href="#e" data-mml-node="mo" transform="matrix(1 0 0 -1 15558.2 0)"/><use xlink:href="#d" data-mml-node="mi" transform="matrix(1 0 0 -1 17002.9 0)"/><use xlink:href="#b" data-mml-node="mi" transform="matrix(1 0 0 -1 17523.9 0)"/><use xlink:href="#c" data-mml-node="mo" transform="matrix(1 0 0 -1 18213.7 0)"/><use xlink:href="#f" data-mml-node="mo" transform="matrix(1 0 0 -1 19269.4 0)"/><use xlink:href="#a" data-mml-node="mi" transform="matrix(1 0 0 -1 20047.4 0)"/><use xlink:href="#e" data-mml-node="mo" transform="matrix(1 0 0 -1 20392.4 0)"/><use xlink:href="#b" data-mml-node="mi" transform="matrix(1 0 0 -1 21837.1 0)"/><use xlink:href="#a" data-mml-node="mi" transform="matrix(1 0 0 -1 22249.1 0)"/><use xlink:href="#c" data-mml-node="mo" transform="matrix(1 0 0 -1 22871.9 0)"/><use xlink:href="#f" data-mml-node="mo" transform="matrix(1 0 0 -1 23927.7 0)"/><use xlink:href="#d" data-mml-node="mi" transform="matrix(1 0 0 -1 24705.7 0)"/></g></svg>