<svg xmlns="http://www.w3.org/2000/svg" width="500" height="45" viewBox="0 -1449.5 30605.4 2399" xmlns:xlink="http://www.w3.org/1999/xlink"><defs><path id="a" d="M35 200q0 102 39 215t106 195 139 94h8q7 0 12 1 54-4 84-49 39-60 39-161 0-115-45-234T302 66 168-10h-7q-36 0-62 20T60 63t-19 67-6 70zm348 366q0 102-53 102-36 0-70-45t-56-102-34-100-13-50q49-1 97-1l97 1q1 1 8 33t16 80 8 82zM113 132q0-106 53-106 15 0 32 10t41 38 48 87 48 146l5 17H145q0-3-9-38t-16-78-7-76z"/><path id="b" d="M213 578l-13-5q-14-5-40-10t-58-7H83v46h19q47 2 87 15t56 24 28 22q2 3 12 3 9 0 17-6V361l1-300q7-7 12-9t24-4 62-2h26V0h-11q-21 3-159 3-136 0-157-3H88v46h64q16 0 25 1t16 3 8 2 6 5 6 4v517z"/><path id="c" d="M56 347q0 13 14 20h637q15-8 15-20 0-11-14-19l-318-1H72q-16 5-16 20zm0-194q0 15 16 20h636q14-10 14-20 0-13-15-20H70q-14 7-14 20z"/><path id="d" d="M409 688q4 6 12 6h21q6-6 6-8 0-7-30-123-7-28-14-59t-12-46l-4-16q0-1 9-1t32-6 48-17q44-21 73-61t29-97-31-109-77-86-97-54-95-21h-4l-24-95q-6-23-13-55-8-32-11-38t-12-7h-6q-20 0-20 7 0 5 22 95l23 92q0 1-8 1-5 0-20 2T161 6t-54 30-45 53-19 82q0 60 33 113t81 86 97 52 88 19q5 0 6 4l30 122q31 119 31 121zM122 150q0-34 12-59t33-38 36-18 34-8h7l93 377q-4 0-11-1t-29-8-42-16-44-29-41-46q-18-28-33-67-15-46-15-87zm378 132q0 38-16 65t-40 38-39 15-24 4h-3l-46-187-48-188q0-2 1-2 8 0 32 6t40 14q43 19 74 53t44 70 19 64 6 48z"/><path id="e" d="M27 422q53 4 82 56t32 122v15h40V431h135v-46H181V241q1-125 1-141t7-32q14-39 49-39 44 0 54 71 1 8 1 46v35h40v-47q0-77-42-117-27-27-70-27-34 0-59 12t-38 31-19 35-7 32q-1 7-1 148v137H18v37h9z"/><path id="f" d="M137 305h-22l-37 15-15 39q0 35 34 62t121 27q73 0 118-32t60-76q5-14 5-31t1-115v-70q0-48 5-66t21-18q15 0 20 16t5 53v36h40v-39q-1-40-3-47-9-30-35-47T400-6t-47 18-24 42v4l-2-3q-2-3-5-6t-8-9-12-11-15-12-18-11-22-8-26-6-31-3q-60 0-108 31t-48 87q0 21 7 40t27 41 48 37 78 28 110 15h14v22q0 34-6 50-22 71-97 71-18 0-34-1t-25-4-8-3q22-15 22-44 0-25-16-39zm-11-199q0-31 24-55t59-25q38 0 67 23t39 60q2 7 3 66 0 58-1 58-8 0-21-1t-45-9-58-20-46-37-21-60z"/><path id="g" d="M41 46h14q39 0 47 14v62q0 17 1 39t0 42v66q0 35-1 59v23q-3 19-14 25t-45 9H25v23q0 23 2 23l10 1q10 1 28 2t37 2q17 1 36 2t29 3 11 1h3v-40q0-38 1-38t5 5 12 15 19 18 29 19 38 16q20 5 51 5 114-4 127-113 1-7 1-139v-86q0-38 2-45t11-10q21-3 49-3h16V0h-8l-24 1q-23 1-50 1t-38 1Q319 3 310 0h-8v46h16q61 0 61 16 1 2 1 138-1 135-2 143-6 28-20 42t-24 17-26 2q-45 0-79-34-27-27-34-55t-8-83V108q0-30 1-40t3-13 9-6q21-3 49-3h16V0h-8l-23 1q-24 1-51 1t-38 1Q42 3 33 0h-8v46h16z"/><path id="h" d="M84 237v13l14 20h581q15-8 15-20t-15-20H98q-14 7-14 20z"/><path id="i" d="M701-940q0-3-6-9h-31q-2 2-28 27t-45 43-54 61-62 81-63 101-62 125-55 149-45 176-29 203-12 234q0 711 364 1110 23 25 43 44t33 32 15 13h31q6-6 6-9 0-5-20-26t-52-59-72-95-81-143-76-191-60-252-32-316q-2-38-2-109 0-389 94-680t290-494q11-12 11-16z"/><path id="j" d="M50 252q0 115 67 221t169 168 204 63q90 0 143-51 9-10 15-17t8-10l1-3q3 0 27 26 7 6 15 14t16 16 10 11l15 15h6q14 0 14-7 0-4-32-137-36-139-36-140-2-5-5-6t-18-2h-16q-6 6-6 9 0 1 1 7t2 20 1 32q0 71-32 124t-109 54q-26 0-56-7t-72-24-83-56-73-93q-32-57-51-133t-19-124q0-114 76-164 48-34 118-34 91 0 162 68t94 148q4 13 6 15t16 2q20 0 20-9 0-5-1-9-29-107-124-184T319-22q-113 0-191 75T50 252z"/><path id="k" d="M109 429q-27 0-43 18t-16 44q0 71 53 123t132 52q91 0 152-56t62-145q0-43-20-82t-48-68-80-74q-36-31-100-92l-59-56 76-1q157 0 167 5 7 2 24 89v3h40v-3q-1-3-13-91T421 3V0H50v31q0 7 6 15t30 35q29 32 50 56 9 10 34 37t34 37 29 33 28 34 23 30 21 32 15 29 13 32 7 30 3 33q0 63-34 109t-97 46q-33 0-58-17t-35-33-10-19q0-1 5-1 18 0 37-14t19-46q0-25-16-42t-45-18z"/><path id="l" d="M34 1438q0 8 3 10t13 2h21q2-2 28-27t45-43 54-61 62-81 63-101 62-124 55-149 45-176 29-203 12-234q0-117-7-198-47-572-357-913-23-25-43-44t-33-32-15-13H56q-13 0-17 2t-5 10q54 54 106 124Q428-430 428 251q0 202-26 377t-64 294-93 224-100 163-99 116l-4 4q-2 2-3 4t-3 3l-2 2z"/><path id="m" d="M78 370q0 24 17 42t43 18q24 0 42-16t19-43q0-25-17-43t-43-18-43 17-18 43zm0-310q0 25 16 43t43 18q65 0 65-113 0-52-19-102t-39-75-26-25q-3 0-12 8t-11 12q-1 3 12 19t30 48 23 69q1 6 2 16t3 18 0 8q0 1-4 0t-19-4q-32 0-48 18T78 60z"/><path id="n" d="M94 250q0 69 10 131t23 107 37 88 38 67 42 52 33 34 25 21h17q14 0 14-9 0-3-17-21t-41-53-49-86-42-138-17-193 17-192 41-139 49-86 42-53 17-21q0-9-15-9h-16l-28 24q-94 85-137 212T94 250z"/><path id="o" d="M127 463q-27 0-42 17t-16 44q0 55 48 98t116 43q35 0 44-1 74-12 113-53t40-89q0-52-34-101t-94-71l-3-2q0-1 9-3t29-9 38-21q82-53 82-140 0-79-62-138T238-22q-80 0-138 43T42 130q0 28 18 45t45 18q28 0 46-18t18-45q0-11-3-20t-7-16-11-12-12-8-10-4-8-3l-4-1q51-45 124-45 55 0 83 53 17 33 17 101v20q0 95-64 127-15 6-61 7l-42 1-3 2q-2 3-2 16 0 18 8 18 28 0 58 5 34 5 62 42t28 112v8q0 57-35 79-22 14-47 14-32 0-59-11t-38-23-11-12h3q3-1 8-2t10-5 12-7 10-11 8-15 3-20q0-22-14-39t-45-18z"/><path id="p" d="M60 749l4 1h22l28-24q94-85 137-212t43-264q0-68-10-131T261 12t-37-88-38-67-41-51-32-33-23-19l-4-4H63q-3 0-5 3t-3 9q1 1 11 13Q221-64 221 250T66 725q-10 12-11 13 0 8 5 11z"/><path id="q" d="M161 441q41 0 65-24t24-59q0-20-32-106t-31-125q3-42 27-66 21-18 43-24 18-8 31-8h1l82 331q84 331 85 332 3 2 16 2 20 0 20-7 0-9-81-331-82-328-82-329t6-1q86 0 163 88t78 164q0 24-8 41t-18 24-18 18-8 23q0 21 17 40t42 19q19 0 35-18t16-59q0-29-11-78t-18-68q-32-95-113-163T329-11h-10l-23-93q-24-94-24-95-2-6-20-6h-13q-6 6-6 8 0 5 23 95t23 93q-7 1-14 1-159 22-159 147 0 35 33 125t34 115v14q0 3-4 7t-11 4h-4q-23 0-42-19t-30-41-17-42-8-22q-2-2-16-2H27q-6 6-6 9 0 12 13 46t48 71 79 37z"/></defs><g data-mml-node="math" stroke="currentColor" fill="currentColor" stroke-width="0"><g data-mml-node="msub"><use xlink:href="#a" data-mml-node="mi" transform="scale(1 -1)"/><use xlink:href="#b" data-mml-node="mn" transform="matrix(.707 0 0 -.707 469 150)"/></g><use xlink:href="#c" data-mml-node="mo" transform="matrix(1 0 0 -1 1150.3 0)"/><use xlink:href="#d" data-mml-node="mi" transform="matrix(1 0 0 -1 2206.1 0)"/><use xlink:href="#c" data-mml-node="mo" transform="matrix(1 0 0 -1 3079.9 0)"/><g data-mml-node="msup"><g data-mml-node="mtext" transform="matrix(1 0 0 -1 3857.9 0)"><use xlink:href="#e"/><use xlink:href="#f" transform="translate(389)"/><use xlink:href="#g" transform="translate(889)"/></g><g data-mml-node="TeXAtom"><use xlink:href="#h" data-mml-node="mo" transform="matrix(.707 0 0 -.707 5302.9 -413)"/><use xlink:href="#b" data-mml-node="mn" transform="matrix(.707 0 0 -.707 5852.946 -413)"/></g></g><g data-mml-node="TeXAtom"><use xlink:href="#i" data-mml-node="mo" transform="matrix(1 0 0 -1 6256.6 0)"/></g><g data-mml-node="mfrac"><g data-mml-node="msub"><use xlink:href="#j" data-mml-node="mi" transform="matrix(1 0 0 -1 7212.6 -676)"/><g data-mml-node="TeXAtom"><g data-mml-node="mn" transform="matrix(.707 0 0 -.707 7927.6 -526)"><use xlink:href="#b"/><use xlink:href="#k" transform="translate(500)"/></g></g></g><g data-mml-node="msub"><use xlink:href="#j" data-mml-node="mi" transform="matrix(1 0 0 -1 7212.6 686)"/><g data-mml-node="TeXAtom"><g data-mml-node="mn" transform="matrix(.707 0 0 -.707 7927.6 836)"><use xlink:href="#b"/><use xlink:href="#b" transform="translate(500)"/></g></g></g><path stroke="none" d="M7112.6-220h1672.1v-60H7112.6z"/></g><g data-mml-node="TeXAtom"><use xlink:href="#l" data-mml-node="mo" transform="matrix(1 0 0 -1 8904.7 0)"/></g><use xlink:href="#m" data-mml-node="mo" transform="matrix(1 0 0 -1 9640.7 0)"/><g data-mml-node="msub"><use xlink:href="#a" data-mml-node="mi" transform="matrix(1 0 0 -1 11085.3 0)"/><use xlink:href="#k" data-mml-node="mn" transform="matrix(.707 0 0 -.707 11554.3 150)"/></g><use xlink:href="#c" data-mml-node="mo" transform="matrix(1 0 0 -1 12235.7 0)"/><use xlink:href="#a" data-mml-node="mi" transform="matrix(1 0 0 -1 13291.5 0)"/><use xlink:href="#c" data-mml-node="mo" transform="matrix(1 0 0 -1 14038.2 0)"/><g data-mml-node="msup"><g data-mml-node="mtext" transform="matrix(1 0 0 -1 14816.2 0)"><use xlink:href="#e"/><use xlink:href="#f" transform="translate(389)"/><use xlink:href="#g" transform="translate(889)"/></g><g data-mml-node="TeXAtom"><use xlink:href="#h" data-mml-node="mo" transform="matrix(.707 0 0 -.707 16261.2 -413)"/><use xlink:href="#b" data-mml-node="mn" transform="matrix(.707 0 0 -.707 16811.246 -413)"/></g></g><use xlink:href="#n" data-mml-node="mo" transform="matrix(1 0 0 -1 17214.9 0)"/><g data-mml-node="msub"><use xlink:href="#j" data-mml-node="mi" transform="matrix(1 0 0 -1 17603.9 0)"/><g data-mml-node="TeXAtom"><g data-mml-node="mn" transform="matrix(.707 0 0 -.707 18318.9 150)"><use xlink:href="#b"/><use xlink:href="#o" transform="translate(500)"/></g></g></g><use xlink:href="#p" data-mml-node="mo" transform="matrix(1 0 0 -1 19076 0)"/><use xlink:href="#m" data-mml-node="mo" transform="matrix(1 0 0 -1 19465 0)"/><g data-mml-node="msub"><use xlink:href="#a" data-mml-node="mi" transform="matrix(1 0 0 -1 20909.7 0)"/><use xlink:href="#o" data-mml-node="mn" transform="matrix(.707 0 0 -.707 21378.7 150)"/></g><use xlink:href="#c" data-mml-node="mo" transform="matrix(1 0 0 -1 22060 0)"/><use xlink:href="#q" data-mml-node="mi" transform="matrix(1 0 0 -1 23115.8 0)"/><use xlink:href="#c" data-mml-node="mo" transform="matrix(1 0 0 -1 24044.6 0)"/><g data-mml-node="msup"><g data-mml-node="mtext" transform="matrix(1 0 0 -1 24822.6 0)"><use xlink:href="#e"/><use xlink:href="#f" transform="translate(389)"/><use xlink:href="#g" transform="translate(889)"/></g><g data-mml-node="TeXAtom"><use xlink:href="#h" data-mml-node="mo" transform="matrix(.707 0 0 -.707 26267.6 -413)"/><use xlink:href="#b" data-mml-node="mn" transform="matrix(.707 0 0 -.707 26817.646 -413)"/></g></g><g data-mml-node="TeXAtom"><use xlink:href="#i" data-mml-node="mo" transform="matrix(1 0 0 -1 27221.3 0)"/></g><g data-mml-node="mfrac"><g data-mml-node="msub"><use xlink:href="#j" data-mml-node="mi" transform="matrix(1 0 0 -1 28177.3 -676)"/><g data-mml-node="TeXAtom"><g data-mml-node="mn" transform="matrix(.707 0 0 -.707 28892.3 -526)"><use xlink:href="#k"/><use xlink:href="#o" transform="translate(500)"/></g></g></g><g data-mml-node="msub"><use xlink:href="#j" data-mml-node="mi" transform="matrix(1 0 0 -1 28177.3 686)"/><g data-mml-node="TeXAtom"><g data-mml-node="mn" transform="matrix(.707 0 0 -.707 28892.3 836)"><use xlink:href="#o"/><use xlink:href="#o" transform="translate(500)"/></g></g></g><path stroke="none" d="M28077.3-220h1672.1v-60h-1672.1z"/></g><g data-mml-node="TeXAtom"><use xlink:href="#l" data-mml-node="mo" transform="matrix(1 0 0 -1 29869.4 0)"/></g></g></svg>