<svg xmlns="http://www.w3.org/2000/svg" width="350" height="15" viewBox="0 -922.6 16648.2 1244.2" xmlns:xlink="http://www.w3.org/1999/xlink"><defs><path id="a" d="M130 622q-7 7-11 9t-16 3-43 3H27v46h273q76 0 117-6t83-29q95-48 109-131 1-5 1-16 0-33-16-62t-38-47-45-31-39-18l-16-5q3-3 11-6 30-16 49-34t29-44 14-43 9-56 10-61q10-48 24-63t38-15h5q15 0 29 16t18 55q0 11 4 14t16 4 16-2 4-13q0-31-16-63t-44-43q-16-6-42-6-149 6-172 112-2 11-2 73t-7 83q-19 58-76 74l-10 2-66 1h-66V192l1-131q6-10 17-12t52-3h33V0h-11q-21 3-142 3Q59 3 38 0H27v46h33q42 1 51 3t19 12v561zm361-123v10q0 18-1 30t-9 31-19 31-38 22-62 13h-22q-20 0-36 1h-21q-45 0-49-9-3-4-3-136V360h58q101 0 145 18t55 78q2 11 2 43z"/><path id="b" d="M28 214q0 95 65 164t157 70q90 0 155-68t66-165q0-95-64-160T250-10q-97 0-159 67T28 214zM250 30q122 0 122 163v57q0 22-1 38t-7 38-16 36-31 28-49 20q-5 1-16 1-30 0-57-12-43-22-56-61t-13-92v-20q0-96 19-135 32-61 105-61z"/><path id="c" d="M27 422q53 4 82 56t32 122v15h40V431h135v-46H181V241q1-125 1-141t7-32q14-39 49-39 44 0 54 71 1 8 1 46v35h40v-47q0-77-42-117-27-27-70-27-34 0-59 12t-38 31-19 35-7 32q-1 7-1 148v137H18v37h9z"/><path id="d" d="M137 305h-22l-37 15-15 39q0 35 34 62t121 27q73 0 118-32t60-76q5-14 5-31t1-115v-70q0-48 5-66t21-18q15 0 20 16t5 53v36h40v-39q-1-40-3-47-9-30-35-47T400-6t-47 18-24 42v4l-2-3q-2-3-5-6t-8-9-12-11-15-12-18-11-22-8-26-6-31-3q-60 0-108 31t-48 87q0 21 7 40t27 41 48 37 78 28 110 15h14v22q0 34-6 50-22 71-97 71-18 0-34-1t-25-4-8-3q22-15 22-44 0-25-16-39zm-11-199q0-31 24-55t59-25q38 0 67 23t39 60q2 7 3 66 0 58-1 58-8 0-21-1t-45-9-58-20-46-37-21-60z"/><path id="e" d="M69 609q0 28 18 44t44 16q23-2 40-17t17-43q0-30-17-45t-42-15q-25 0-42 15t-18 45zM247 0q-15 3-104 3h-37Q80 3 56 1L34 0h-8v46h16q28 0 49 3 9 4 11 11t2 42v191q0 52-2 66t-14 19q-14 7-47 7H30v23q0 23 2 23l10 1q10 1 28 2t36 2 36 2 29 3 11 1h3V62q5-10 12-12t35-4h23V0h-8z"/><path id="f" d="M41 46h14q39 0 47 14v62q0 17 1 39t0 42v66q0 35-1 59v23q-3 19-14 25t-45 9H25v23q0 23 2 23l10 1q10 1 28 2t37 2q17 1 36 2t29 3 11 1h3v-40q0-38 1-38t5 5 12 15 19 18 29 19 38 16q20 5 51 5 114-4 127-113 1-7 1-139v-86q0-38 2-45t11-10q21-3 49-3h16V0h-8l-24 1q-23 1-50 1t-38 1Q319 3 310 0h-8v46h16q61 0 61 16 1 2 1 138-1 135-2 143-6 28-20 42t-24 17-26 2q-45 0-79-34-27-27-34-55t-8-83V108q0-30 1-40t3-13 9-6q21-3 49-3h16V0h-8l-23 1q-24 1-51 1t-38 1Q42 3 33 0h-8v46h16z"/><path id="g" d="M576 668q0 20 30 40t54 20q16 0 15-16V571q0-162 13-319 8-130 32-195 2-4 3-7t5-4 4-3 5-2 6-2l11 6q34 16 49 16 16 0 16-14-1-4-5-12-15-20-59-42t-80-23q-16 0-27 5T630-8t-9 19-7 23q-11 43-15 72t-5 40-3 14v3H460l-131 1-13-19Q241 35 196-7t-77-43-60 26-29 67q0 32 16 57t28 25q7 0 9-5t5-16 8-20q22-27 55-27 38 0 126 125 155 218 265 443l17 34h8q7 0 8 1t1 8zm8-419q-5 84-7 137t-2 87-1 47v61l-11-21q-66-134-151-270l-40-62-2-4h1l12 4 10 4h193l-2 17z"/><path id="h" d="M56 237v13l14 20h765q-116 87-143 223v3q0 2-1 3 0 12 17 12h3q9 0 12-1t6-4 3-9 3-16 8-25q22-67 73-120t119-75q9-3 9-11 0-6-5-9t-24-10-38-19q-41-26-71-60t-45-67-21-50-8-31q-2-10-5-12t-16-3q-20 0-20 11 0 7 5 25 32 126 139 205H70q-14 7-14 20z"/><path id="i" d="M304 342q-12 0-12 11 0 19 31 38 8 5 94 37t116 59q30 25 30 68v7q0 13-6 27t-27 29-55 18q-46 0-79-23t-66-74q-67-93-120-301-14-55-37-118-38-89-52-104-13-15-36-26T47-22 32-10q0 5 12 28t33 75 35 113q23 90 42 189t28 155 9 65q0 1-1 1-2 0-11-5t-22-10-26-7q-18 0-18 11 0 18 31 39 10 6 61 32t62 27q10 2 12 2 16 0 16-12 0-7-7-58t-10-60q0-3 9 7 49 53 115 87t138 35q63 0 93-31t31-74q0-40-26-76t-58-61q-27-22-76-49l-13-6 13-5q62-21 92-64t31-94q0-72-52-134T444 13 284-22q-76 0-126 50-14 14-12 22 4 17 32 35t52 18q6 0 16-8t21-20 35-19 55-9q79 0 129 46 40 43 40 105v12q0 18-8 39t-27 43-55 38-86 15q-15 0-29-1t-17-2z"/><path id="j" d="M78 370q0 24 17 42t43 18q24 0 42-16t19-43q0-25-17-43t-43-18-43 17-18 43zm0-310q0 24 17 42t43 18q24 0 42-16t19-43q0-25-17-43T139 0 96 17 78 60z"/><path id="k" d="M434-231q0-13-6-19h-18q-129 0-180 66-5 7-8 12t-5 11-4 13-2 15-1 22-1 27 0 37 0 47v53q-1 89-5 100-1 1-1 2-14 36-50 56t-71 20q-11 0-14 3t-3 16 3 16 14 3q34 0 70 20t51 56q5 11 5 32t1 152v50q0 55 6 77t29 42q26 26 80 42 37 8 53 9h13q11 0 18 1h20q6-6 6-18 0-13-3-16-2-3-16-3-53-3-83-24t-36-42q-5-13-5-148v-82q0-47-3-64t-17-39q-31-43-87-59l-14-5 14-5q18-6 36-15t42-34 28-59q1-6 1-136 0-135 5-148 10-27 43-45t76-21q14 0 16-3 3-3 3-15z"/><path id="l" d="M65 731q0 14 3 16t20 3q83 0 128-25t63-55q9-21 10-35t2-134q1-139 2-144 13-45 52-66t72-22q11 0 14-3t3-16-3-16-14-3q-37 0-72-21t-47-53q-5-14-6-36t-1-149v-51q0-55-6-77t-29-42q-54-52-167-52-18 0-21 3t-3 17v7q0 1 1 5t3 4 8 1q14 0 31 3t38 10 37 23 24 38q1 5 2 142l1 136q13 57 70 91 35 17 50 20-25 7-50 20-55 34-68 82l-2 10-1 136q-1 137-2 142-12 40-53 56t-77 17q-9 0-10 3t-2 15z"/><path id="m" d="M56 347q0 13 14 20h637q15-8 15-20 0-11-14-19l-318-1H72q-16 5-16 20zm0-194q0 15 16 20h636q14-10 14-20 0-13-15-20H70q-14 7-14 20z"/><path id="n" d="M64 343q0 159 110 256t294 98q34 0 65-6t53-17 37-19 24-16 10-7l37 31q9 7 17 14t12 10 7 5 5 3 5 1 6 1q13 0 16-5t4-24V449q0-21-4-25t-20-5h-22q-21 0-23 17-7 62-40 109-46 73-125 87-10 2-36 2-140 0-210-81-54-65-54-210t54-210q69-81 211-81 100 0 153 60t54 125q0 11 5 14t20 3h6q15 0 20-1t8-5 3-14q0-98-86-171T469-11q-184 0-294 97T64 343z"/></defs><g data-mml-node="math" stroke="currentColor" fill="currentColor" stroke-width="0"><g data-mml-node="mtext" transform="scale(1 -1)"><use xlink:href="#a"/><use xlink:href="#b" transform="translate(736)"/><use xlink:href="#c" transform="translate(1236)"/><use xlink:href="#d" transform="translate(1625)"/><use xlink:href="#c" transform="translate(2125)"/><use xlink:href="#e" transform="translate(2514)"/><use xlink:href="#b" transform="translate(2792)"/><use xlink:href="#f" transform="translate(3292)"/></g><g data-mml-node="TeXAtom"><use xlink:href="#g" data-mml-node="mi" transform="matrix(1 0 0 -1 4848 0)"/></g><use xlink:href="#h" data-mml-node="mo" transform="matrix(1 0 0 -1 5923.8 0)"/><g data-mml-node="TeXAtom"><use xlink:href="#i" data-mml-node="mi" transform="matrix(1 0 0 -1 7201.6 0)"/></g><use xlink:href="#j" data-mml-node="mo" transform="matrix(1 0 0 -1 8136.3 0)"/><use xlink:href="#k" data-mml-node="mo" transform="matrix(1 0 0 -1 10692.1 0)"/><g data-mml-node="TeXAtom"><use xlink:href="#i" data-mml-node="mi" transform="matrix(1 0 0 -1 11192.1 0)"/></g><use xlink:href="#l" data-mml-node="mo" transform="matrix(1 0 0 -1 11849.1 0)"/><use xlink:href="#m" data-mml-node="mo" transform="matrix(1 0 0 -1 12626.9 0)"/><g data-mml-node="msubsup"><g data-mml-node="TeXAtom"><use xlink:href="#n" data-mml-node="mi" transform="matrix(1 0 0 -1 13404.9 0)"/></g><g data-mml-node="TeXAtom"><use xlink:href="#i" data-mml-node="mi" transform="matrix(.707 0 0 -.707 14235.9 -424.1)"/></g><g data-mml-node="TeXAtom"><use xlink:href="#g" data-mml-node="mi" transform="matrix(.707 0 0 -.707 14235.9 286.3)"/></g></g><use xlink:href="#k" data-mml-node="mo" transform="matrix(1 0 0 -1 14850.2 0)"/><g data-mml-node="TeXAtom"><use xlink:href="#g" data-mml-node="mi" transform="matrix(1 0 0 -1 15350.2 0)"/></g><use xlink:href="#l" data-mml-node="mo" transform="matrix(1 0 0 -1 16148.2 0)"/></g></svg>