<svg xmlns="http://www.w3.org/2000/svg" width="300" height="15" viewBox="0 -922.6 4566.1 1244.2" xmlns:xlink="http://www.w3.org/1999/xlink"><defs><path id="a" d="M401 444q12-3 94-3 73 0 79 3h6v-62h-70L409 156Q348 18 339 6q-8-10-19-10h-7q-5 0-10 1h-15q-15 0-24 15t-43 90q-15 33-24 54L96 382H26v62h8q15-3 111-3 107 0 125 3h9v-62h-48l53-118q51-115 54-115 0 1 51 115t53 117q0 1-24 1h-24v62h7z"/><path id="b" d="M304 342q-12 0-12 11 0 19 31 38 8 5 94 37t116 59q30 25 30 68v7q0 13-6 27t-27 29-55 18q-46 0-79-23t-66-74q-67-93-120-301-14-55-37-118-38-89-52-104-13-15-36-26T47-22 32-10q0 5 12 28t33 75 35 113q23 90 42 189t28 155 9 65q0 1-1 1-2 0-11-5t-22-10-26-7q-18 0-18 11 0 18 31 39 10 6 61 32t62 27q10 2 12 2 16 0 16-12 0-7-7-58t-10-60q0-3 9 7 49 53 115 87t138 35q63 0 93-31t31-74q0-40-26-76t-58-61q-27-22-76-49l-13-6 13-5q62-21 92-64t31-94q0-72-52-134T444 13 284-22q-76 0-126 50-14 14-12 22 4 17 32 35t52 18q6 0 16-8t21-20 35-19 55-9q79 0 129 46 40 43 40 105v12q0 18-8 39t-27 43-55 38-86 15q-15 0-29-1t-17-2z"/><path id="c" d="M56 347q0 13 14 20h637q15-8 15-20 0-11-14-19l-318-1H72q-16 5-16 20zm0-194q0 15 16 20h636q14-10 14-20 0-13-15-20H70q-14 7-14 20z"/><path id="d" d="M64 343q0 159 110 256t294 98q34 0 65-6t53-17 37-19 24-16 10-7l37 31q9 7 17 14t12 10 7 5 5 3 5 1 6 1q13 0 16-5t4-24V449q0-21-4-25t-20-5h-22q-21 0-23 17-7 62-40 109-46 73-125 87-10 2-36 2-140 0-210-81-54-65-54-210t54-210q69-81 211-81 100 0 153 60t54 125q0 11 5 14t20 3h6q15 0 20-1t8-5 3-14q0-98-86-171T469-11q-184 0-294 97T64 343z"/><path id="e" d="M576 668q0 20 30 40t54 20q16 0 15-16V571q0-162 13-319 8-130 32-195 2-4 3-7t5-4 4-3 5-2 6-2l11 6q34 16 49 16 16 0 16-14-1-4-5-12-15-20-59-42t-80-23q-16 0-27 5T630-8t-9 19-7 23q-11 43-15 72t-5 40-3 14v3H460l-131 1-13-19Q241 35 196-7t-77-43-60 26-29 67q0 32 16 57t28 25q7 0 9-5t5-16 8-20q22-27 55-27 38 0 126 125 155 218 265 443l17 34h8q7 0 8 1t1 8zm8-419q-5 84-7 137t-2 87-1 47v61l-11-21q-66-134-151-270l-40-62-2-4h1l12 4 10 4h193l-2 17z"/></defs><g data-mml-node="math" stroke="currentColor" fill="currentColor" stroke-width="0"><g data-mml-node="msub"><g data-mml-node="TeXAtom"><use xlink:href="#a" data-mml-node="mi" transform="scale(1 -1)"/></g><g data-mml-node="TeXAtom"><use xlink:href="#b" data-mml-node="mi" transform="matrix(.707 0 0 -.707 607 150)"/></g></g><use xlink:href="#c" data-mml-node="mo" transform="matrix(1 0 0 -1 1121.6 0)"/><g data-mml-node="msubsup"><g data-mml-node="TeXAtom"><use xlink:href="#d" data-mml-node="mi" transform="matrix(1 0 0 -1 1899.6 0)"/></g><g data-mml-node="TeXAtom"><use xlink:href="#b" data-mml-node="mi" transform="matrix(.707 0 0 -.707 2730.6 -424.1)"/></g><g data-mml-node="TeXAtom"><use xlink:href="#e" data-mml-node="mi" transform="matrix(.707 0 0 -.707 2730.6 286.3)"/></g></g><g data-mml-node="msub"><g data-mml-node="TeXAtom"><use xlink:href="#a" data-mml-node="mi" transform="matrix(1 0 0 -1 3344.8 0)"/></g><g data-mml-node="TeXAtom"><use xlink:href="#e" data-mml-node="mi" transform="matrix(.707 0 0 -.707 3951.8 161.2)"/></g></g></g></svg>