<svg xmlns="http://www.w3.org/2000/svg" width="400" height="65" viewBox="0 -2692 4876.6 4884" xmlns:xlink="http://www.w3.org/1999/xlink"><defs><path id="a" d="M38 220q0 53 16 94t41 66 57 41 59 22 53 6q104 0 165-63l9-9 46 73h56v-582h69v-62h-9q-18 3-125 3-115 0-124-3h-9v62h69V42q-2-1-12-8t-16-9-16-9-20-9-23-6-28-5-32-2Q162-6 100 56T38 220zM287 46q81 0 130 81v174l-5 11q-14 35-43 59t-67 24q-20 0-39-7t-38-26-31-54-12-87q0-95 32-135t73-40z"/><path id="b" d="M304 342q-12 0-12 11 0 19 31 38 8 5 94 37t116 59q30 25 30 68v7q0 13-6 27t-27 29-55 18q-46 0-79-23t-66-74q-67-93-120-301-14-55-37-118-38-89-52-104-13-15-36-26T47-22 32-10q0 5 12 28t33 75 35 113q23 90 42 189t28 155 9 65q0 1-1 1-2 0-11-5t-22-10-26-7q-18 0-18 11 0 18 31 39 10 6 61 32t62 27q10 2 12 2 16 0 16-12 0-7-7-58t-10-60q0-3 9 7 49 53 115 87t138 35q63 0 93-31t31-74q0-40-26-76t-58-61q-27-22-76-49l-13-6 13-5q62-21 92-64t31-94q0-72-52-134T444 13 284-22q-76 0-126 50-14 14-12 22 4 17 32 35t52 18q6 0 16-8t21-20 35-19 55-9q79 0 129 46 40 43 40 105v12q0 18-8 39t-27 43-55 38-86 15q-15 0-29-1t-17-2z"/><path id="c" d="M576 668q0 20 30 40t54 20q16 0 15-16V571q0-162 13-319 8-130 32-195 2-4 3-7t5-4 4-3 5-2 6-2l11 6q34 16 49 16 16 0 16-14-1-4-5-12-15-20-59-42t-80-23q-16 0-27 5T630-8t-9 19-7 23q-11 43-15 72t-5 40-3 14v3H460l-131 1-13-19Q241 35 196-7t-77-43-60 26-29 67q0 32 16 57t28 25q7 0 9-5t5-16 8-20q22-27 55-27 38 0 126 125 155 218 265 443l17 34h8q7 0 8 1t1 8zm8-419q-5 84-7 137t-2 87-1 47v61l-11-21q-66-134-151-270l-40-62-2-4h1l12 4 10 4h193l-2 17z"/><path id="d" d="M56 347q0 13 14 20h637q15-8 15-20 0-11-14-19l-318-1H72q-16 5-16 20zm0-194q0 15 16 20h636q14-10 14-20 0-13-15-20H70q-14 7-14 20z"/><path id="e" d="M319-645v1799h347v-84H403V-645h-84z"/><path id="f" d="M319-644v1799h84V-560h263v-84H319z"/><path id="g" d="M319 0v602h84V0h-84z"/><path id="h" d="M33 157q0 101 76 192t171 92q60 0 92-52 1 1 5 6t11 11 16 12q34 24 46 24 4 0 7-3t3-5q0-9-69-285-71-284-71-288 0-8 45-9h25q6-8 6-9t-3-18q-4-13-10-19h-13q-31 2-108 2h-88q-14 0-17-1-14 0-14 8 0 3 2 15 4 16 7 19t20 3q48 0 58 7 8 5 28 88t21 85q0 1-7-3-48-39-100-39-55 0-97 40T33 157zm319 169q-23 79-75 79-35 0-67-31t-50-81q-29-79-41-164v-11q0-8-1-12 0-45 18-62t43-18q54 0 111 72l8 11 54 217z"/><path id="i" d="M96 585q56 81 153 81 48 0 96-26t78-92q37-83 37-228 0-155-43-237-20-42-55-67t-61-31-51-7q-26 0-52 6t-61 32-55 67q-43 82-43 237 0 174 57 265zm225 12q-30 32-71 32-42 0-72-32-25-26-33-72t-8-192q0-158 8-208t36-79q28-30 69-30 40 0 68 30 29 30 36 84t8 203q0 145-8 191t-33 73z"/><path id="j" d="M213 578l-13-5q-14-5-40-10t-58-7H83v46h19q47 2 87 15t56 24 28 22q2 3 12 3 9 0 17-6V361l1-300q7-7 12-9t24-4 62-2h26V0h-11q-21 3-159 3-136 0-157-3H88v46h64q16 0 25 1t16 3 8 2 6 5 6 4v517z"/><path id="k" d="M109 429q-27 0-43 18t-16 44q0 71 53 123t132 52q91 0 152-56t62-145q0-43-20-82t-48-68-80-74q-36-31-100-92l-59-56 76-1q157 0 167 5 7 2 24 89v3h40v-3q-1-3-13-91T421 3V0H50v31q0 7 6 15t30 35q29 32 50 56 9 10 34 37t34 37 29 33 28 34 23 30 21 32 15 29 13 32 7 30 3 33q0 63-34 109t-97 46q-33 0-58-17t-35-33-10-19q0-1 5-1 18 0 37-14t19-46q0-25-16-42t-45-18z"/><path id="l" d="M127 463q-27 0-42 17t-16 44q0 55 48 98t116 43q35 0 44-1 74-12 113-53t40-89q0-52-34-101t-94-71l-3-2q0-1 9-3t29-9 38-21q82-53 82-140 0-79-62-138T238-22q-80 0-138 43T42 130q0 28 18 45t45 18q28 0 46-18t18-45q0-11-3-20t-7-16-11-12-12-8-10-4-8-3l-4-1q51-45 124-45 55 0 83 53 17 33 17 101v20q0 95-64 127-15 6-61 7l-42 1-3 2q-2 3-2 16 0 18 8 18 28 0 58 5 34 5 62 42t28 112v8q0 57-35 79-22 14-47 14-32 0-59-11t-38-23-11-12h3q3-1 8-2t10-5 12-7 10-11 8-15 3-20q0-22-14-39t-45-18z"/><path id="m" d="M0 1070v84h347V-645h-84v1715H0z"/><path id="n" d="M263-560v1715h84V-644H0v84h263z"/><path id="o" d="M263 0v602h84V0h-84z"/></defs><g data-mml-node="math" stroke="currentColor" fill="currentColor" stroke-width="0"><g data-mml-node="msubsup"><g data-mml-node="TeXAtom"><use xlink:href="#a" data-mml-node="mi" transform="scale(1 -1)"/></g><g data-mml-node="TeXAtom"><use xlink:href="#b" data-mml-node="mi" transform="matrix(.707 0 0 -.707 607 -413)"/></g><g data-mml-node="TeXAtom"><use xlink:href="#c" data-mml-node="mi" transform="matrix(.707 0 0 -.707 607 297.3)"/></g></g><use xlink:href="#d" data-mml-node="mo" transform="matrix(1 0 0 -1 1221.3 0)"/><g data-mml-node="mrow"><g data-mml-node="mo" transform="matrix(1 0 0 -1 2277 0)"><use xlink:href="#e" transform="translate(104 1538)"/><use xlink:href="#f" transform="translate(104 -1548)"/><svg width="667" height="1486" y="-493" x="104" viewBox="0 371.5 667 1486"><use xlink:href="#g" transform="scale(1 3.703)"/></svg></g><g data-mml-node="mtable"><g data-mml-node="mtr"><g data-mml-node="mtd"><g data-mml-node="msub"><use xlink:href="#h" data-mml-node="mi" transform="matrix(1 0 0 -1 3152 -1942)"/><use xlink:href="#i" data-mml-node="mn" transform="matrix(.707 0 0 -.707 3598 -1792)"/></g></g></g><g data-mml-node="mtr"><g data-mml-node="mtd"><g data-mml-node="msub"><use xlink:href="#h" data-mml-node="mi" transform="matrix(1 0 0 -1 3152 -647.3)"/><use xlink:href="#j" data-mml-node="mn" transform="matrix(.707 0 0 -.707 3598 -497.3)"/></g></g></g><g data-mml-node="mtr"><g data-mml-node="mtd"><g data-mml-node="msub"><use xlink:href="#h" data-mml-node="mi" transform="matrix(1 0 0 -1 3152 647.3)"/><use xlink:href="#k" data-mml-node="mn" transform="matrix(.707 0 0 -.707 3598 797.3)"/></g></g></g><g data-mml-node="mtr"><g data-mml-node="mtd"><g data-mml-node="msub"><use xlink:href="#h" data-mml-node="mi" transform="matrix(1 0 0 -1 3152 1942)"/><use xlink:href="#l" data-mml-node="mn" transform="matrix(.707 0 0 -.707 3598 2092)"/></g></g></g></g><g data-mml-node="mo" transform="matrix(1 0 0 -1 4001.6 0)"><use xlink:href="#m" transform="translate(104 1538)"/><use xlink:href="#n" transform="translate(104 -1548)"/><svg width="667" height="1486" y="-493" x="104" viewBox="0 371.5 667 1486"><use xlink:href="#o" transform="scale(1 3.703)"/></svg></g></g></g></svg>