<svg xmlns="http://www.w3.org/2000/svg" width="400" height="15" viewBox="0 -891.7 20706 1141.7" xmlns:xlink="http://www.w3.org/1999/xlink"><defs><path id="a" d="M64 343q0 159 110 256t294 98q34 0 65-6t53-17 37-19 24-16 10-7l37 31q9 7 17 14t12 10 7 5 5 3 5 1 6 1q13 0 16-5t4-24V449q0-21-4-25t-20-5h-22q-21 0-23 17-7 62-40 109-46 73-125 87-10 2-36 2-140 0-210-81-54-65-54-210t54-210q69-81 211-81 100 0 153 60t54 125q0 11 5 14t20 3h6q15 0 20-1t8-5 3-14q0-98-86-171T469-11q-184 0-294 97T64 343z"/><path id="b" d="M94 250q0 69 10 131t23 107 37 88 38 67 42 52 33 34 25 21h17q14 0 14-9 0-3-17-21t-41-53-49-86-42-138-17-193 17-192 41-139 49-86 42-53 17-21q0-9-15-9h-16l-28 24q-94 85-137 212T94 250z"/><path id="c" d="M32 225q0 107 70 167t170 60h11q99 0 153-51 58-58 58-158 0-17-8-21t-46-5h-46q-37 0-67 1H175v-9q0-32 4-55t17-47 40-38 70-19q6-1 17-1 53 0 87 36 11 14 17 26t7 16 8 6 21 2h5q26 0 26-18 0-7-5-20t-21-31-37-34-58-27-81-11Q181-6 107 55T32 225zm351 51q-6 70-35 98t-68 28q-27 0-50-12t-35-33q-16-26-19-78v-13h207v10z"/><path id="d" d="M112 560l137 134 8-8q130-124 130-126l-26-29q-2 1-58 50l-53 46-55-47q-13-11-26-23t-21-19l-8-6q-2-2-15 14l-13 14z"/><path id="e" d="M78 35v25l16 43 43 18q28 0 50-25t23-88q0-35-9-68t-21-57-26-41-24-27-13-9q-4 0-13 9t-9 13q0 4 11 16t25 30 26 50 16 73V9l-1-1q-2-1-5-2t-6-3-9-2-12-1q-27 0-44 17z"/><path id="f" d="M312 622q-2 1-5 3t-4 4-6 2-11 3-16 1-24 1-35 1h-27v46h12q24-3 165-3t165 3h12v-46h-27q-43 0-64-2t-25-4-11-9v-89l14-2q100-12 170-65t70-124q0-41-23-75t-59-58-77-37-81-20l-14-2V61q6-6 10-8t26-5 64-2h27V0h-12q-24 3-165 3T196 0h-12v46h61q14 0 25 1t16 1 11 3 6 3 4 3 5 4v89h-2q-1 1-21 3t-57 13-72 29q-11 6-24 15t-33 28-34 46-13 58q0 72 72 125t166 63q15 2 16 3h2v89zM170 342q0-135 137-154h5v307h-3q-8 0-27-4t-51-22-45-46q-16-34-16-81zm245-154q72 11 104 48t32 106q0 42-12 72t-32 45-37 22-36 10-19 4h-5V188h5z"/><path id="g" d="M60 749l4 1h22l28-24q94-85 137-212t43-264q0-68-10-131T261 12t-37-88-38-67-41-51-32-33-23-19l-4-4H63q-3 0-5 3t-3 9q1 1 11 13Q221-64 221 250T66 725q-10 12-11 13 0 8 5 11z"/><path id="h" d="M56 347q0 13 14 20h637q15-8 15-20 0-11-14-19l-318-1H72q-16 5-16 20zm0-194q0 15 16 20h636q14-10 14-20 0-13-15-20H70q-14 7-14 20z"/><path id="i" d="M370 305h-21l-36 15-16 38q0 23 15 38 5 5 5 6t-10 2q-26 4-49 4-49 0-80-32-47-47-47-157 0-82 31-129 41-61 110-61 41 0 66 26t36 62q2 8 5 10t16 2h14q6-6 6-9 0-4-4-16t-16-33-29-38-48-31-69-13q-86 0-150 64T34 214q0 104 65 169t151 65 120-27 34-64q0-23-17-37z"/><path id="j" d="M28 214q0 95 65 164t157 70q90 0 155-68t66-165q0-95-64-160T250-10q-97 0-159 67T28 214zM250 30q122 0 122 163v57q0 22-1 38t-7 38-16 36-31 28-49 20q-5 1-16 1-30 0-57-12-43-22-56-61t-13-92v-20q0-96 19-135 32-61 105-61z"/><path id="k" d="M295 316q0 40-27 69t-78 29q-36 0-62-13-30-19-30-52-1-5 0-13t16-24 43-25q18-5 44-9t44-9 32-13q17-8 33-20t32-41 17-62q0-62-38-102T198-10h-8q-52 0-96 36l-8-7-9-9Q71 4 65-1L54-11H42q-3 0-9 6v137q0 21 2 25t10 5h9q12 0 16-4t5-12 7-27 19-42q35-51 97-51 97 0 97 78 0 29-18 47-20 24-83 36t-83 23q-36 17-57 46t-21 62q0 39 17 66t43 40 50 18 44 5h11q40 0 70-15l15-8 9 7q10 9 22 17h12q3 0 9-6V310l-6-6h-28q-6 6-6 12z"/><path id="l" d="M397 0q-27 3-179 3Q65 3 38 0H25v62h114v562H25v62h13q27-3 180-3 152 0 179 3h13v-62H296V62h114V0h-13z"/><path id="m" d="M56 237v13l14 20h299v150l1 150q10 13 19 13 13 0 20-15V270h298q15-8 15-20t-15-20H409V-68q-8-14-18-14h-4q-12 0-18 14v298H70q-14 7-14 20z"/><path id="n" d="M213 578l-13-5q-14-5-40-10t-58-7H83v46h19q47 2 87 15t56 24 28 22q2 3 12 3 9 0 17-6V361l1-300q7-7 12-9t24-4 62-2h26V0h-11q-21 3-159 3-136 0-157-3H88v46h64q16 0 25 1t16 3 8 2 6 5 6 4v517z"/><path id="o" d="M84 237v13l14 20h581q15-8 15-20t-15-20H98q-14 7-14 20z"/><path id="p" d="M40 437q-19 0-19 8 0 5 16 56t34 101l17 49q5 18 13 26h558q32 0 38-1t7-9q0-6-17-114t-19-109q0-7-19-7h-12q-3 0-6 5l-2 3q0 6 6 45t6 61q0 35-13 53t-55 25q-5 1-58 2-46 0-58-1t-18-8q-1-1-71-279T298 60q0-12 88-14 32 0 41-1t9-9q0-5-3-14-4-18-9-21l-2-1h-7q-5 0-52 1T228 2Q99 2 64 0H49q-6 6-6 9t2 18q4 13 10 19h39q80 0 95 9 1 1 2 1 5 3 10 20t40 157q17 68 28 111 70 275 70 281 0 5-29 5h-31q-67 0-88-6-45-10-70-41T67 467q-7-22-10-26t-14-4h-3z"/><path id="q" d="M69 609q0 28 18 44t44 16q23-2 40-17t17-43q0-30-17-45t-42-15q-25 0-42 15t-18 45zM247 0q-15 3-104 3h-37Q80 3 56 1L34 0h-8v46h16q28 0 49 3 9 4 11 11t2 42v191q0 52-2 66t-14 19q-14 7-47 7H30v23q0 23 2 23l10 1q10 1 28 2t36 2 36 2 29 3 11 1h3V62q5-10 12-12t35-4h23V0h-8z"/><path id="r" d="M41 46h14q39 0 47 14v62q0 17 1 39t0 42v66q0 35-1 59v23q-3 19-14 25t-45 9H25v23q0 23 2 23l10 1q10 1 28 2t37 2q17 1 36 2t29 3 11 1h3v-40q0-38 1-38t5 5 12 15 19 18 29 19 38 16q20 5 51 5 114-4 127-113 1-7 1-139v-86q0-38 2-45t11-10q21-3 49-3h16V0h-8l-24 1q-23 1-50 1t-38 1Q319 3 310 0h-8v46h16q61 0 61 16 1 2 1 138-1 135-2 143-6 28-20 42t-24 17-26 2q-45 0-79-34-27-27-34-55t-8-83V108q0-30 1-40t3-13 9-6q21-3 49-3h16V0h-8l-23 1q-24 1-51 1t-38 1Q42 3 33 0h-8v46h16z"/><path id="s" d="M630 29q0-20-21-20-5 0-22 16t-94 93L389 222 284 117Q178 13 175 11q-4-2-7-2-8 0-14 6t-7 14q0 7 14 22t94 95l104 104-104 104q-81 81-94 95t-14 22q0 9 6 14t15 5q5 0 7-1 3-2 109-106l105-105 104 104q77 77 94 93t22 16q21 0 21-20 0-7-10-18t-98-98L418 250l104-105q84-84 96-97t12-19z"/></defs><g data-mml-node="math" stroke="currentColor" fill="currentColor" stroke-width="0"><g data-mml-node="TeXAtom"><use xlink:href="#a" data-mml-node="mi" transform="scale(1 -1)"/></g><use xlink:href="#b" data-mml-node="mo" transform="matrix(1 0 0 -1 831 0)"/><g data-mml-node="TeXAtom"><g data-mml-node="mover"><g data-mml-node="TeXAtom"><use xlink:href="#c" data-mml-node="mi" transform="matrix(1 0 0 -1 1220 0)"/></g><use xlink:href="#d" data-mml-node="mo" transform="matrix(1 0 0 -1 1233.5 19)"/></g></g><use xlink:href="#e" data-mml-node="mo" transform="matrix(1 0 0 -1 1747 0)"/><use xlink:href="#f" data-mml-node="mi" transform="matrix(1 0 0 -1 2191.7 0)"/><use xlink:href="#g" data-mml-node="mo" transform="matrix(1 0 0 -1 2913.7 0)"/><use xlink:href="#h" data-mml-node="mo" transform="matrix(1 0 0 -1 3580.4 0)"/><g data-mml-node="mtext" transform="matrix(1 0 0 -1 4636.2 0)"><use xlink:href="#i"/><use xlink:href="#j" transform="translate(444)"/><use xlink:href="#k" transform="translate(944)"/></g><use xlink:href="#b" data-mml-node="mo" transform="matrix(1 0 0 -1 5974.2 0)"/><use xlink:href="#f" data-mml-node="mi" transform="matrix(1 0 0 -1 6363.2 0)"/><use xlink:href="#g" data-mml-node="mo" transform="matrix(1 0 0 -1 7085.2 0)"/><g data-mml-node="TeXAtom"><use xlink:href="#l" data-mml-node="mi" transform="matrix(1 0 0 -1 7474.2 0)"/></g><use xlink:href="#m" data-mml-node="mo" transform="matrix(1 0 0 -1 8132.4 0)"/><use xlink:href="#b" data-mml-node="mo" transform="matrix(1 0 0 -1 9132.7 0)"/><use xlink:href="#n" data-mml-node="mn" transform="matrix(1 0 0 -1 9521.7 0)"/><use xlink:href="#o" data-mml-node="mo" transform="matrix(1 0 0 -1 10243.9 0)"/><g data-mml-node="mtext" transform="matrix(1 0 0 -1 11244.1 0)"><use xlink:href="#i"/><use xlink:href="#j" transform="translate(444)"/><use xlink:href="#k" transform="translate(944)"/></g><use xlink:href="#b" data-mml-node="mo" transform="matrix(1 0 0 -1 12582.1 0)"/><use xlink:href="#f" data-mml-node="mi" transform="matrix(1 0 0 -1 12971.1 0)"/><use xlink:href="#g" data-mml-node="mo" transform="matrix(1 0 0 -1 13693.1 0)"/><use xlink:href="#g" data-mml-node="mo" transform="matrix(1 0 0 -1 14082.1 0)"/><g data-mml-node="TeXAtom"><use xlink:href="#c" data-mml-node="mi" transform="matrix(1 0 0 -1 14471.1 0)"/></g><g data-mml-node="msup"><g data-mml-node="TeXAtom"><use xlink:href="#c" data-mml-node="mi" transform="matrix(1 0 0 -1 14998.1 0)"/></g><use xlink:href="#p" data-mml-node="mi" transform="matrix(.707 0 0 -.707 15525.1 -413)"/></g><use xlink:href="#o" data-mml-node="mo" transform="matrix(1 0 0 -1 16072.9 0)"/><g data-mml-node="mtext" transform="matrix(1 0 0 -1 16850.9 0)"><use xlink:href="#k"/><use xlink:href="#q" transform="translate(394)"/><use xlink:href="#r" transform="translate(672)"/></g><use xlink:href="#b" data-mml-node="mo" transform="matrix(1 0 0 -1 18078.9 0)"/><use xlink:href="#f" data-mml-node="mi" transform="matrix(1 0 0 -1 18467.9 0)"/><use xlink:href="#g" data-mml-node="mo" transform="matrix(1 0 0 -1 19189.9 0)"/><g data-mml-node="msup"><g data-mml-node="TeXAtom"><use xlink:href="#c" data-mml-node="mi" transform="matrix(1 0 0 -1 19578.9 0)"/></g><g data-mml-node="TeXAtom"><use xlink:href="#s" data-mml-node="mo" transform="matrix(.707 0 0 -.707 20105.9 -413)"/></g></g></g></svg>