<svg xmlns="http://www.w3.org/2000/svg" width="350" height="45" viewBox="0 -2445.2 33631.2 4390.3" xmlns:xlink="http://www.w3.org/1999/xlink"><defs><path id="a" d="M434-231q0-13-6-19h-18q-129 0-180 66-5 7-8 12t-5 11-4 13-2 15-1 22-1 27 0 37 0 47v53q-1 89-5 100-1 1-1 2-14 36-50 56t-71 20q-11 0-14 3t-3 16 3 16 14 3q34 0 70 20t51 56q5 11 5 32t1 152v50q0 55 6 77t29 42q26 26 80 42 37 8 53 9h13q11 0 18 1h20q6-6 6-18 0-13-3-16-2-3-16-3-53-3-83-24t-36-42q-5-13-5-148v-82q0-47-3-64t-17-39q-31-43-87-59l-14-5 14-5q18-6 36-15t42-34 28-59q1-6 1-136 0-135 5-148 10-27 43-45t76-21q14 0 16-3 3-3 3-15z"/><path id="b" d="M304 342q-12 0-12 11 0 19 31 38 8 5 94 37t116 59q30 25 30 68v7q0 13-6 27t-27 29-55 18q-46 0-79-23t-66-74q-67-93-120-301-14-55-37-118-38-89-52-104-13-15-36-26T47-22 32-10q0 5 12 28t33 75 35 113q23 90 42 189t28 155 9 65q0 1-1 1-2 0-11-5t-22-10-26-7q-18 0-18 11 0 18 31 39 10 6 61 32t62 27q10 2 12 2 16 0 16-12 0-7-7-58t-10-60q0-3 9 7 49 53 115 87t138 35q63 0 93-31t31-74q0-40-26-76t-58-61q-27-22-76-49l-13-6 13-5q62-21 92-64t31-94q0-72-52-134T444 13 284-22q-76 0-126 50-14 14-12 22 4 17 32 35t52 18q6 0 16-8t21-20 35-19 55-9q79 0 129 46 40 43 40 105v12q0 18-8 39t-27 43-55 38-86 15q-15 0-29-1t-17-2z"/><path id="c" d="M65 731q0 14 3 16t20 3q83 0 128-25t63-55q9-21 10-35t2-134q1-139 2-144 13-45 52-66t72-22q11 0 14-3t3-16-3-16-14-3q-37 0-72-21t-47-53q-5-14-6-36t-1-149v-51q0-55-6-77t-29-42q-54-52-167-52-18 0-21 3t-3 17v7q0 1 1 5t3 4 8 1q14 0 31 3t38 10 37 23 24 38q1 5 2 142l1 136q13 57 70 91 35 17 50 20-25 7-50 20-55 34-68 82l-2 10-1 136q-1 137-2 142-12 40-53 56t-77 17q-9 0-10 3t-2 15z"/><path id="d" d="M56 347q0 13 14 20h637q15-8 15-20 0-11-14-19l-318-1H72q-16 5-16 20zm0-194q0 15 16 20h636q14-10 14-20 0-13-15-20H70q-14 7-14 20z"/><path id="e" d="M319-645v1799h347v-84H403V-645h-84z"/><path id="f" d="M319-644v1799h84V-560h263v-84H319z"/><path id="g" d="M319 0v602h84V0h-84z"/><path id="h" d="M32 686l91 4q91 4 92 4h6V409q68 41 157 41 101 0 161-63t61-166q0-99-65-163T358-6h-3q-83 0-152 59L160 1l-31-1H98v435q0 73 1 90 0 66-2 79t-14 16q-14 4-41 4H29v62h3zm195-581l5-6 10-12q5-6 16-14t22-14 26-10 33-4q41 0 72 21t40 65q6 29 6 99 0 34-1 54t-8 45-18 38-34 22-53 9q-61 0-108-43l-8-7V105z"/><path id="i" d="M112 560l137 134 8-8q130-124 130-126l-26-29q-2 1-58 50l-53 46-55-47q-13-11-26-23t-21-19l-8-6q-2-2-15 14l-13 14z"/><path id="j" d="M213 578l-13-5q-14-5-40-10t-58-7H83v46h19q47 2 87 15t56 24 28 22q2 3 12 3 9 0 17-6V361l1-300q7-7 12-9t24-4 62-2h26V0h-11q-21 3-159 3-136 0-157-3H88v46h64q16 0 25 1t16 3 8 2 6 5 6 4v517z"/><path id="k" d="M109 429q-27 0-43 18t-16 44q0 71 53 123t132 52q91 0 152-56t62-145q0-43-20-82t-48-68-80-74q-36-31-100-92l-59-56 76-1q157 0 167 5 7 2 24 89v3h40v-3q-1-3-13-91T421 3V0H50v31q0 7 6 15t30 35q29 32 50 56 9 10 34 37t34 37 29 33 28 34 23 30 21 32 15 29 13 32 7 30 3 33q0 63-34 109t-97 46q-33 0-58-17t-35-33-10-19q0-1 5-1 18 0 37-14t19-46q0-25-16-42t-45-18z"/><path id="l" d="M127 463q-27 0-42 17t-16 44q0 55 48 98t116 43q35 0 44-1 74-12 113-53t40-89q0-52-34-101t-94-71l-3-2q0-1 9-3t29-9 38-21q82-53 82-140 0-79-62-138T238-22q-80 0-138 43T42 130q0 28 18 45t45 18q28 0 46-18t18-45q0-11-3-20t-7-16-11-12-12-8-10-4-8-3l-4-1q51-45 124-45 55 0 83 53 17 33 17 101v20q0 95-64 127-15 6-61 7l-42 1-3 2q-2 3-2 16 0 18 8 18 28 0 58 5 34 5 62 42t28 112v8q0 57-35 79-22 14-47 14-32 0-59-11t-38-23-11-12h3q3-1 8-2t10-5 12-7 10-11 8-15 3-20q0-22-14-39t-45-18z"/><path id="m" d="M0 1070v84h347V-645h-84v1715H0z"/><path id="n" d="M263-560v1715h84V-644H0v84h263z"/><path id="o" d="M263 0v602h84V0h-84z"/><path id="p" d="M370 305h-21l-36 15-16 38q0 23 15 38 5 5 5 6t-10 2q-26 4-49 4-49 0-80-32-47-47-47-157 0-82 31-129 41-61 110-61 41 0 66 26t36 62q2 8 5 10t16 2h14q6-6 6-9 0-4-4-16t-16-33-29-38-48-31-69-13q-86 0-150 64T34 214q0 104 65 169t151 65 120-27 34-64q0-23-17-37z"/><path id="q" d="M28 214q0 95 65 164t157 70q90 0 155-68t66-165q0-95-64-160T250-10q-97 0-159 67T28 214zM250 30q122 0 122 163v57q0 22-1 38t-7 38-16 36-31 28-49 20q-5 1-16 1-30 0-57-12-43-22-56-61t-13-92v-20q0-96 19-135 32-61 105-61z"/><path id="r" d="M295 316q0 40-27 69t-78 29q-36 0-62-13-30-19-30-52-1-5 0-13t16-24 43-25q18-5 44-9t44-9 32-13q17-8 33-20t32-41 17-62q0-62-38-102T198-10h-8q-52 0-96 36l-8-7-9-9Q71 4 65-1L54-11H42q-3 0-9 6v137q0 21 2 25t10 5h9q12 0 16-4t5-12 7-27 19-42q35-51 97-51 97 0 97 78 0 29-18 47-20 24-83 36t-83 23q-36 17-57 46t-21 62q0 39 17 66t43 40 50 18 44 5h11q40 0 70-15l15-8 9 7q10 9 22 17h12q3 0 9-6V310l-6-6h-28q-6 6-6 12z"/><path id="s" d="M94 250q0 69 10 131t23 107 37 88 38 67 42 52 33 34 25 21h17q14 0 14-9 0-3-17-21t-41-53-49-86-42-138-17-193 17-192 41-139 49-86 42-53 17-21q0-9-15-9h-16l-28 24q-94 85-137 212T94 250z"/><path id="t" d="M34 156q0 114 86 200t189 86q70 0 112-40t57-98q6-29 7-67v-29q49 74 75 166 4 14 6 16t16 3q21 0 21-8 0-9-9-39t-36-85-61-100l-11-14 1-24q2-56 8-76t19-21q14 2 26 11t17 23q2 7 5 8t15 2q20 0 20-8 0-6-6-19-12-24-35-38t-44-15h-7q-67 0-91 72l-3 7-11-8q-10-8-30-20t-45-23-58-20-64-9q-79 0-124 50T34 156zM208 26q49 0 98 21t73 43l24 22q-2 143-7 178-14 115-92 115-69 0-121-73-27-40-44-108t-18-104q0-49 25-71t62-23z"/><path id="u" d="M60 749l4 1h22l28-24q94-85 137-212t43-264q0-68-10-131T261 12t-37-88-38-67-41-51-32-33-23-19l-4-4H63q-3 0-5 3t-3 9q1 1 11 13Q221-64 221 250T66 725q-10 12-11 13 0 8 5 11z"/><path id="v" d="M64 349q0 50 43 77t148 27q91 0 147-30t71-82q5-14 5-31t1-114V77q14-14 50-15 20 0 24-5t5-26q0-22-6-26t-38-5h-33Q375 0 367 56l-11-10Q300-6 210-6 130-6 81 30t-49 91q0 67 79 105t221 46h18v20q0 21-2 35t-11 34-31 30-58 11-54-3h-5q15-23 15-45 0-27-17-48t-53-22q-37 0-53 21t-17 44zm100-228q0-32 22-54t52-22q36 0 69 18t39 45l4 9v109h-3q-99-8-141-37t-42-68z"/><path id="w" d="M64 343q0 159 110 256t294 98q34 0 65-6t53-17 37-19 24-16 10-7l37 31q9 7 17 14t12 10 7 5 5 3 5 1 6 1q13 0 16-5t4-24V449q0-21-4-25t-20-5h-22q-21 0-23 17-7 62-40 109-46 73-125 87-10 2-36 2-140 0-210-81-54-65-54-210t54-210q69-81 211-81 100 0 153 60t54 125q0 11 5 14t20 3h6q15 0 20-1t8-5 3-14q0-98-86-171T469-11q-184 0-294 97T64 343z"/><path id="x" d="M576 668q0 20 30 40t54 20q16 0 15-16V571q0-162 13-319 8-130 32-195 2-4 3-7t5-4 4-3 5-2 6-2l11 6q34 16 49 16 16 0 16-14-1-4-5-12-15-20-59-42t-80-23q-16 0-27 5T630-8t-9 19-7 23q-11 43-15 72t-5 40-3 14v3H460l-131 1-13-19Q241 35 196-7t-77-43-60 26-29 67q0 32 16 57t28 25q7 0 9-5t5-16 8-20q22-27 55-27 38 0 126 125 155 218 265 443l17 34h8q7 0 8 1t1 8zm8-419q-5 84-7 137t-2 87-1 47v61l-11-21q-66-134-151-270l-40-62-2-4h1l12 4 10 4h193l-2 17z"/></defs><g data-mml-node="math" stroke="currentColor" fill="currentColor" stroke-width="0"><use xlink:href="#a" data-mml-node="mo" transform="scale(1 -1)"/><g data-mml-node="TeXAtom"><use xlink:href="#b" data-mml-node="mi" transform="matrix(1 0 0 -1 500 0)"/></g><use xlink:href="#c" data-mml-node="mo" transform="matrix(1 0 0 -1 1157 0)"/><use xlink:href="#d" data-mml-node="mo" transform="matrix(1 0 0 -1 1934.8 0)"/><g data-mml-node="mrow"><g data-mml-node="mo" transform="matrix(1 0 0 -1 2990.6 0)"><use xlink:href="#e" transform="translate(104 1291.2)"/><use xlink:href="#f" transform="translate(104 -1301.2)"/><svg width="667" height="992.3" y="-246.2" x="104" viewBox="0 248.1 667 992.3"><use xlink:href="#g" transform="scale(1 2.473)"/></svg></g><g data-mml-node="mtable"><g data-mml-node="mtr"><g data-mml-node="mtd"><g data-mml-node="msub"><g data-mml-node="TeXAtom"><g data-mml-node="mover"><g data-mml-node="TeXAtom"><use xlink:href="#h" data-mml-node="mi" transform="matrix(1 0 0 -1 3865.6 -1428.2)"/></g><use xlink:href="#i" data-mml-node="mo" transform="matrix(1 0 0 -1 3935.1 -1651.2)"/></g></g><use xlink:href="#j" data-mml-node="mn" transform="matrix(.707 0 0 -.707 4504.6 -1278.2)"/></g></g></g><g data-mml-node="mtr"><g data-mml-node="mtd"><g data-mml-node="msub"><g data-mml-node="TeXAtom"><g data-mml-node="mover"><g data-mml-node="TeXAtom"><use xlink:href="#h" data-mml-node="mi" transform="matrix(1 0 0 -1 3865.6 133.5)"/></g><use xlink:href="#i" data-mml-node="mo" transform="matrix(1 0 0 -1 3935.1 -89.5)"/></g></g><use xlink:href="#k" data-mml-node="mn" transform="matrix(.707 0 0 -.707 4504.6 283.5)"/></g></g></g><g data-mml-node="mtr"><g data-mml-node="mtd"><g data-mml-node="msub"><g data-mml-node="TeXAtom"><g data-mml-node="mover"><g data-mml-node="TeXAtom"><use xlink:href="#h" data-mml-node="mi" transform="matrix(1 0 0 -1 3865.6 1695.2)"/></g><use xlink:href="#i" data-mml-node="mo" transform="matrix(1 0 0 -1 3935.1 1472.2)"/></g></g><use xlink:href="#l" data-mml-node="mn" transform="matrix(.707 0 0 -.707 4504.6 1845.2)"/></g></g></g></g><g data-mml-node="mo" transform="matrix(1 0 0 -1 4908.2 0)"><use xlink:href="#m" transform="translate(104 1291.2)"/><use xlink:href="#n" transform="translate(104 -1301.2)"/><svg width="667" height="992.3" y="-246.2" x="104" viewBox="0 248.1 667 992.3"><use xlink:href="#o" transform="scale(1 2.473)"/></svg></g></g><use xlink:href="#d" data-mml-node="mo" transform="matrix(1 0 0 -1 6060.9 0)"/><g data-mml-node="mrow"><g data-mml-node="mo" transform="matrix(1 0 0 -1 7116.7 0)"><use xlink:href="#e" transform="translate(104 890.7)"/><use xlink:href="#f" transform="translate(104 -900.7)"/><svg width="667" height="191.3" y="154.3" x="104" viewBox="0 47.8 667 191.3"><use xlink:href="#g" transform="scale(1 .477)"/></svg></g><g data-mml-node="mtable"><g data-mml-node="mtr"><g data-mml-node="mtd"><g data-mml-node="mtext" transform="matrix(1 0 0 -1 7991.7 -1294.7)"><use xlink:href="#p"/><use xlink:href="#q" transform="translate(444)"/><use xlink:href="#r" transform="translate(944)"/></g><use xlink:href="#s" data-mml-node="mo" transform="matrix(1 0 0 -1 9329.7 -1294.7)"/><g data-mml-node="msub"><use xlink:href="#t" data-mml-node="mi" transform="matrix(1 0 0 -1 9718.7 -1294.7)"/><g data-mml-node="TeXAtom"><g data-mml-node="mn" transform="matrix(.707 0 0 -.707 10358.7 -1144.7)"><use xlink:href="#j"/><use xlink:href="#j" transform="translate(500)"/></g></g></g><use xlink:href="#u" data-mml-node="mo" transform="matrix(1 0 0 -1 11115.8 -1294.7)"/></g><g data-mml-node="mtd"><g data-mml-node="mtext" transform="matrix(1 0 0 -1 12504.8 -1294.7)"><use xlink:href="#p"/><use xlink:href="#q" transform="translate(444)"/><use xlink:href="#r" transform="translate(944)"/></g><use xlink:href="#s" data-mml-node="mo" transform="matrix(1 0 0 -1 13842.8 -1294.7)"/><g data-mml-node="msub"><use xlink:href="#t" data-mml-node="mi" transform="matrix(1 0 0 -1 14231.8 -1294.7)"/><g data-mml-node="TeXAtom"><g data-mml-node="mn" transform="matrix(.707 0 0 -.707 14871.8 -1144.7)"><use xlink:href="#j"/><use xlink:href="#k" transform="translate(500)"/></g></g></g><use xlink:href="#u" data-mml-node="mo" transform="matrix(1 0 0 -1 15628.9 -1294.7)"/></g><g data-mml-node="mtd"><g data-mml-node="mtext" transform="matrix(1 0 0 -1 17017.9 -1294.7)"><use xlink:href="#p"/><use xlink:href="#q" transform="translate(444)"/><use xlink:href="#r" transform="translate(944)"/></g><use xlink:href="#s" data-mml-node="mo" transform="matrix(1 0 0 -1 18355.9 -1294.7)"/><g data-mml-node="msub"><use xlink:href="#t" data-mml-node="mi" transform="matrix(1 0 0 -1 18744.9 -1294.7)"/><g data-mml-node="TeXAtom"><g data-mml-node="mn" transform="matrix(.707 0 0 -.707 19384.9 -1144.7)"><use xlink:href="#j"/><use xlink:href="#l" transform="translate(500)"/></g></g></g><use xlink:href="#u" data-mml-node="mo" transform="matrix(1 0 0 -1 20142 -1294.7)"/></g></g><g data-mml-node="mtr"><g data-mml-node="mtd"><g data-mml-node="mtext" transform="matrix(1 0 0 -1 7991.7 0)"><use xlink:href="#p"/><use xlink:href="#q" transform="translate(444)"/><use xlink:href="#r" transform="translate(944)"/></g><use xlink:href="#s" data-mml-node="mo" transform="matrix(1 0 0 -1 9329.7 0)"/><g data-mml-node="msub"><use xlink:href="#t" data-mml-node="mi" transform="matrix(1 0 0 -1 9718.7 0)"/><g data-mml-node="TeXAtom"><g data-mml-node="mn" transform="matrix(.707 0 0 -.707 10358.7 150)"><use xlink:href="#k"/><use xlink:href="#j" transform="translate(500)"/></g></g></g><use xlink:href="#u" data-mml-node="mo" transform="matrix(1 0 0 -1 11115.8 0)"/></g><g data-mml-node="mtd"><g data-mml-node="mtext" transform="matrix(1 0 0 -1 12504.8 0)"><use xlink:href="#p"/><use xlink:href="#q" transform="translate(444)"/><use xlink:href="#r" transform="translate(944)"/></g><use xlink:href="#s" data-mml-node="mo" transform="matrix(1 0 0 -1 13842.8 0)"/><g data-mml-node="msub"><use xlink:href="#t" data-mml-node="mi" transform="matrix(1 0 0 -1 14231.8 0)"/><g data-mml-node="TeXAtom"><g data-mml-node="mn" transform="matrix(.707 0 0 -.707 14871.8 150)"><use xlink:href="#k"/><use xlink:href="#k" transform="translate(500)"/></g></g></g><use xlink:href="#u" data-mml-node="mo" transform="matrix(1 0 0 -1 15628.9 0)"/></g><g data-mml-node="mtd"><g data-mml-node="mtext" transform="matrix(1 0 0 -1 17017.9 0)"><use xlink:href="#p"/><use xlink:href="#q" transform="translate(444)"/><use xlink:href="#r" transform="translate(944)"/></g><use xlink:href="#s" data-mml-node="mo" transform="matrix(1 0 0 -1 18355.9 0)"/><g data-mml-node="msub"><use xlink:href="#t" data-mml-node="mi" transform="matrix(1 0 0 -1 18744.9 0)"/><g data-mml-node="TeXAtom"><g data-mml-node="mn" transform="matrix(.707 0 0 -.707 19384.9 150)"><use xlink:href="#k"/><use xlink:href="#l" transform="translate(500)"/></g></g></g><use xlink:href="#u" data-mml-node="mo" transform="matrix(1 0 0 -1 20142 0)"/></g></g><g data-mml-node="mtr"><g data-mml-node="mtd"><g data-mml-node="mtext" transform="matrix(1 0 0 -1 7991.7 1294.7)"><use xlink:href="#p"/><use xlink:href="#q" transform="translate(444)"/><use xlink:href="#r" transform="translate(944)"/></g><use xlink:href="#s" data-mml-node="mo" transform="matrix(1 0 0 -1 9329.7 1294.7)"/><g data-mml-node="msub"><use xlink:href="#t" data-mml-node="mi" transform="matrix(1 0 0 -1 9718.7 1294.7)"/><g data-mml-node="TeXAtom"><g data-mml-node="mn" transform="matrix(.707 0 0 -.707 10358.7 1444.7)"><use xlink:href="#l"/><use xlink:href="#j" transform="translate(500)"/></g></g></g><use xlink:href="#u" data-mml-node="mo" transform="matrix(1 0 0 -1 11115.8 1294.7)"/></g><g data-mml-node="mtd"><g data-mml-node="mtext" transform="matrix(1 0 0 -1 12504.8 1294.7)"><use xlink:href="#p"/><use xlink:href="#q" transform="translate(444)"/><use xlink:href="#r" transform="translate(944)"/></g><use xlink:href="#s" data-mml-node="mo" transform="matrix(1 0 0 -1 13842.8 1294.7)"/><g data-mml-node="msub"><use xlink:href="#t" data-mml-node="mi" transform="matrix(1 0 0 -1 14231.8 1294.7)"/><g data-mml-node="TeXAtom"><g data-mml-node="mn" transform="matrix(.707 0 0 -.707 14871.8 1444.7)"><use xlink:href="#l"/><use xlink:href="#k" transform="translate(500)"/></g></g></g><use xlink:href="#u" data-mml-node="mo" transform="matrix(1 0 0 -1 15628.9 1294.7)"/></g><g data-mml-node="mtd"><g data-mml-node="mtext" transform="matrix(1 0 0 -1 17017.9 1294.7)"><use xlink:href="#p"/><use xlink:href="#q" transform="translate(444)"/><use xlink:href="#r" transform="translate(944)"/></g><use xlink:href="#s" data-mml-node="mo" transform="matrix(1 0 0 -1 18355.9 1294.7)"/><g data-mml-node="msub"><use xlink:href="#t" data-mml-node="mi" transform="matrix(1 0 0 -1 18744.9 1294.7)"/><g data-mml-node="TeXAtom"><g data-mml-node="mn" transform="matrix(.707 0 0 -.707 19384.9 1444.7)"><use xlink:href="#l"/><use xlink:href="#l" transform="translate(500)"/></g></g></g><use xlink:href="#u" data-mml-node="mo" transform="matrix(1 0 0 -1 20142 1294.7)"/></g></g></g><g data-mml-node="mo" transform="matrix(1 0 0 -1 20531 0)"><use xlink:href="#m" transform="translate(104 890.7)"/><use xlink:href="#n" transform="translate(104 -900.7)"/><svg width="667" height="191.3" y="154.3" x="104" viewBox="0 47.8 667 191.3"><use xlink:href="#o" transform="scale(1 .477)"/></svg></g></g><g data-mml-node="mrow"><g data-mml-node="mo" transform="matrix(1 0 0 -1 21406 0)"><use xlink:href="#e" transform="translate(104 929.7)"/><use xlink:href="#f" transform="translate(104 -939.7)"/><svg width="667" height="269.3" y="115.3" x="104" viewBox="0 67.3 667 269.3"><use xlink:href="#g" transform="scale(1 .671)"/></svg></g><g data-mml-node="mtable"><g data-mml-node="mtr"><g data-mml-node="mtd"><g data-mml-node="msub"><g data-mml-node="TeXAtom"><g data-mml-node="mover"><g data-mml-node="TeXAtom"><use xlink:href="#v" data-mml-node="mi" transform="matrix(1 0 0 -1 22281 -1307.7)"/></g><use xlink:href="#i" data-mml-node="mo" transform="matrix(1 0 0 -1 22310.5 -1289.7)"/></g></g><use xlink:href="#j" data-mml-node="mn" transform="matrix(.707 0 0 -.707 22840 -1157.7)"/></g></g></g><g data-mml-node="mtr"><g data-mml-node="mtd"><g data-mml-node="msub"><g data-mml-node="TeXAtom"><g data-mml-node="mover"><g data-mml-node="TeXAtom"><use xlink:href="#v" data-mml-node="mi" transform="matrix(1 0 0 -1 22281 13)"/></g><use xlink:href="#i" data-mml-node="mo" transform="matrix(1 0 0 -1 22310.5 31)"/></g></g><use xlink:href="#k" data-mml-node="mn" transform="matrix(.707 0 0 -.707 22840 163)"/></g></g></g><g data-mml-node="mtr"><g data-mml-node="mtd"><g data-mml-node="msub"><g data-mml-node="TeXAtom"><g data-mml-node="mover"><g data-mml-node="TeXAtom"><use xlink:href="#v" data-mml-node="mi" transform="matrix(1 0 0 -1 22281 1333.7)"/></g><use xlink:href="#i" data-mml-node="mo" transform="matrix(1 0 0 -1 22310.5 1351.7)"/></g></g><use xlink:href="#l" data-mml-node="mn" transform="matrix(.707 0 0 -.707 22840 1483.7)"/></g></g></g></g><g data-mml-node="mo" transform="matrix(1 0 0 -1 23243.6 0)"><use xlink:href="#m" transform="translate(104 929.7)"/><use xlink:href="#n" transform="translate(104 -939.7)"/><svg width="667" height="269.3" y="115.3" x="104" viewBox="0 67.3 667 269.3"><use xlink:href="#o" transform="scale(1 .671)"/></svg></g></g><use xlink:href="#d" data-mml-node="mo" transform="matrix(1 0 0 -1 24396.3 0)"/><g data-mml-node="msubsup"><g data-mml-node="TeXAtom"><use xlink:href="#w" data-mml-node="mi" transform="matrix(1 0 0 -1 25174.3 0)"/></g><g data-mml-node="TeXAtom"><use xlink:href="#b" data-mml-node="mi" transform="matrix(.707 0 0 -.707 26005.3 -424.1)"/></g><g data-mml-node="TeXAtom"><use xlink:href="#x" data-mml-node="mi" transform="matrix(.707 0 0 -.707 26005.3 286.3)"/></g></g><g data-mml-node="mrow"><g data-mml-node="mo" transform="matrix(1 0 0 -1 26619.6 0)"><use xlink:href="#e" transform="translate(104 929.7)"/><use xlink:href="#f" transform="translate(104 -939.7)"/><svg width="667" height="269.3" y="115.3" x="104" viewBox="0 67.3 667 269.3"><use xlink:href="#g" transform="scale(1 .671)"/></svg></g><g data-mml-node="mtable"><g data-mml-node="mtr"><g data-mml-node="mtd"><g data-mml-node="msub"><g data-mml-node="TeXAtom"><g data-mml-node="mover"><g data-mml-node="TeXAtom"><use xlink:href="#v" data-mml-node="mi" transform="matrix(1 0 0 -1 27494.6 -1307.7)"/></g><use xlink:href="#i" data-mml-node="mo" transform="matrix(1 0 0 -1 27524.1 -1289.7)"/></g></g><use xlink:href="#j" data-mml-node="mn" transform="matrix(.707 0 0 -.707 28053.6 -1157.7)"/></g></g></g><g data-mml-node="mtr"><g data-mml-node="mtd"><g data-mml-node="msub"><g data-mml-node="TeXAtom"><g data-mml-node="mover"><g data-mml-node="TeXAtom"><use xlink:href="#v" data-mml-node="mi" transform="matrix(1 0 0 -1 27494.6 13)"/></g><use xlink:href="#i" data-mml-node="mo" transform="matrix(1 0 0 -1 27524.1 31)"/></g></g><use xlink:href="#k" data-mml-node="mn" transform="matrix(.707 0 0 -.707 28053.6 163)"/></g></g></g><g data-mml-node="mtr"><g data-mml-node="mtd"><g data-mml-node="msub"><g data-mml-node="TeXAtom"><g data-mml-node="mover"><g data-mml-node="TeXAtom"><use xlink:href="#v" data-mml-node="mi" transform="matrix(1 0 0 -1 27494.6 1333.7)"/></g><use xlink:href="#i" data-mml-node="mo" transform="matrix(1 0 0 -1 27524.1 1351.7)"/></g></g><use xlink:href="#l" data-mml-node="mn" transform="matrix(.707 0 0 -.707 28053.6 1483.7)"/></g></g></g></g><g data-mml-node="mo" transform="matrix(1 0 0 -1 28457.2 0)"><use xlink:href="#m" transform="translate(104 929.7)"/><use xlink:href="#n" transform="translate(104 -939.7)"/><svg width="667" height="269.3" y="115.3" x="104" viewBox="0 67.3 667 269.3"><use xlink:href="#o" transform="scale(1 .671)"/></svg></g></g><use xlink:href="#d" data-mml-node="mo" transform="matrix(1 0 0 -1 29609.9 0)"/><g data-mml-node="msubsup"><g data-mml-node="TeXAtom"><use xlink:href="#w" data-mml-node="mi" transform="matrix(1 0 0 -1 30387.9 0)"/></g><g data-mml-node="TeXAtom"><use xlink:href="#b" data-mml-node="mi" transform="matrix(.707 0 0 -.707 31218.9 -424.1)"/></g><g data-mml-node="TeXAtom"><use xlink:href="#x" data-mml-node="mi" transform="matrix(.707 0 0 -.707 31218.9 286.3)"/></g></g><use xlink:href="#a" data-mml-node="mo" transform="matrix(1 0 0 -1 31833.2 0)"/><g data-mml-node="TeXAtom"><use xlink:href="#x" data-mml-node="mi" transform="matrix(1 0 0 -1 32333.2 0)"/></g><use xlink:href="#c" data-mml-node="mo" transform="matrix(1 0 0 -1 33131.2 0)"/></g></svg>