<svg xmlns="http://www.w3.org/2000/svg" width="500" height="65" viewBox="0 -2044.7 22450.1 3589.3" xmlns:xlink="http://www.w3.org/1999/xlink"><defs><path id="a" d="M64 343q0 159 110 256t294 98q34 0 65-6t53-17 37-19 24-16 10-7l37 31q9 7 17 14t12 10 7 5 5 3 5 1 6 1q13 0 16-5t4-24V449q0-21-4-25t-20-5h-22q-21 0-23 17-7 62-40 109-46 73-125 87-10 2-36 2-140 0-210-81-54-65-54-210t54-210q69-81 211-81 100 0 153 60t54 125q0 11 5 14t20 3h6q15 0 20-1t8-5 3-14q0-98-86-171T469-11q-184 0-294 97T64 343z"/><path id="b" d="M94 250q0 69 10 131t23 107 37 88 38 67 42 52 33 34 25 21h17q14 0 14-9 0-3-17-21t-41-53-49-86-42-138-17-193 17-192 41-139 49-86 42-53 17-21q0-9-15-9h-16l-28 24q-94 85-137 212T94 250z"/><path id="c" d="M35 200q0 102 39 215t106 195 139 94h8q7 0 12 1 54-4 84-49 39-60 39-161 0-115-45-234T302 66 168-10h-7q-36 0-62 20T60 63t-19 67-6 70zm348 366q0 102-53 102-36 0-70-45t-56-102-34-100-13-50q49-1 97-1l97 1q1 1 8 33t16 80 8 82zM113 132q0-106 53-106 15 0 32 10t41 38 48 87 48 146l5 17H145q0-3-9-38t-16-78-7-76z"/><path id="d" d="M213 578l-13-5q-14-5-40-10t-58-7H83v46h19q47 2 87 15t56 24 28 22q2 3 12 3 9 0 17-6V361l1-300q7-7 12-9t24-4 62-2h26V0h-11q-21 3-159 3-136 0-157-3H88v46h64q16 0 25 1t16 3 8 2 6 5 6 4v517z"/><path id="e" d="M78 35v25l16 43 43 18q28 0 50-25t23-88q0-35-9-68t-21-57-26-41-24-27-13-9q-4 0-13 9t-9 13q0 4 11 16t25 30 26 50 16 73V9l-1-1q-2-1-5-2t-6-3-9-2-12-1q-27 0-44 17z"/><path id="f" d="M132-11q-34 0-34 33v11l13 28q75 158 109 273l8 24h-32q-38 0-54-3t-39-19q-11-7-22-18t-19-21-9-12q-2-1-15-1-19 0-19 10 0 6 19 35t55 62 71 38q7 2 225 2 160 0 164-1 20-7 20-28 0-31-32-42-6-2-69-2h-64l-3-17q-12-72-12-119 0-52 9-93t19-64 10-28q0-17-14-32t-36-15q-11 0-18 3t-16 24-16 60q-1 9-1 44 0 49 9 105t18 92 10 40h-98l-1-4q0-3-19-79t-43-161-31-97q-11-28-43-28z"/><path id="g" d="M109 429q-27 0-43 18t-16 44q0 71 53 123t132 52q91 0 152-56t62-145q0-43-20-82t-48-68-80-74q-36-31-100-92l-59-56 76-1q157 0 167 5 7 2 24 89v3h40v-3q-1-3-13-91T421 3V0H50v31q0 7 6 15t30 35q29 32 50 56 9 10 34 37t34 37 29 33 28 34 23 30 21 32 15 29 13 32 7 30 3 33q0 63-34 109t-97 46q-33 0-58-17t-35-33-10-19q0-1 5-1 18 0 37-14t19-46q0-25-16-42t-45-18z"/><path id="h" d="M127 463q-27 0-42 17t-16 44q0 55 48 98t116 43q35 0 44-1 74-12 113-53t40-89q0-52-34-101t-94-71l-3-2q0-1 9-3t29-9 38-21q82-53 82-140 0-79-62-138T238-22q-80 0-138 43T42 130q0 28 18 45t45 18q28 0 46-18t18-45q0-11-3-20t-7-16-11-12-12-8-10-4-8-3l-4-1q51-45 124-45 55 0 83 53 17 33 17 101v20q0 95-64 127-15 6-61 7l-42 1-3 2q-2 3-2 16 0 18 8 18 28 0 58 5 34 5 62 42t28 112v8q0 57-35 79-22 14-47 14-32 0-59-11t-38-23-11-12h3q3-1 8-2t10-5 12-7 10-11 8-15 3-20q0-22-14-39t-45-18z"/><path id="i" d="M60 749l4 1h22l28-24q94-85 137-212t43-264q0-68-10-131T261 12t-37-88-38-67-41-51-32-33-23-19l-4-4H63q-3 0-5 3t-3 9q1 1 11 13Q221-64 221 250T66 725q-10 12-11 13 0 8 5 11z"/><path id="j" d="M56 347q0 13 14 20h637q15-8 15-20 0-11-14-19l-318-1H72q-16 5-16 20zm0-194q0 15 16 20h636q14-10 14-20 0-13-15-20H70q-14 7-14 20z"/><path id="k" d="M319-645v1799h347v-84H403V-645h-84z"/><path id="l" d="M319-644v1799h84V-560h263v-84H319z"/><path id="m" d="M319 0v602h84V0h-84z"/><path id="n" d="M96 585q56 81 153 81 48 0 96-26t78-92q37-83 37-228 0-155-43-237-20-42-55-67t-61-31-51-7q-26 0-52 6t-61 32-55 67q-43 82-43 237 0 174 57 265zm225 12q-30 32-71 32-42 0-72-32-25-26-33-72t-8-192q0-158 8-208t36-79q28-30 69-30 40 0 68 30 29 30 36 84t8 203q0 145-8 191t-33 73z"/><path id="o" d="M84 237v13l14 20h581q15-8 15-20t-15-20H98q-14 7-14 20z"/><path id="p" d="M295 316q0 40-27 69t-78 29q-36 0-62-13-30-19-30-52-1-5 0-13t16-24 43-25q18-5 44-9t44-9 32-13q17-8 33-20t32-41 17-62q0-62-38-102T198-10h-8q-52 0-96 36l-8-7-9-9Q71 4 65-1L54-11H42q-3 0-9 6v137q0 21 2 25t10 5h9q12 0 16-4t5-12 7-27 19-42q35-51 97-51 97 0 97 78 0 29-18 47-20 24-83 36t-83 23q-36 17-57 46t-21 62q0 39 17 66t43 40 50 18 44 5h11q40 0 70-15l15-8 9 7q10 9 22 17h12q3 0 9-6V310l-6-6h-28q-6 6-6 12z"/><path id="q" d="M69 609q0 28 18 44t44 16q23-2 40-17t17-43q0-30-17-45t-42-15q-25 0-42 15t-18 45zM247 0q-15 3-104 3h-37Q80 3 56 1L34 0h-8v46h16q28 0 49 3 9 4 11 11t2 42v191q0 52-2 66t-14 19q-14 7-47 7H30v23q0 23 2 23l10 1q10 1 28 2t36 2 36 2 29 3 11 1h3V62q5-10 12-12t35-4h23V0h-8z"/><path id="r" d="M41 46h14q39 0 47 14v62q0 17 1 39t0 42v66q0 35-1 59v23q-3 19-14 25t-45 9H25v23q0 23 2 23l10 1q10 1 28 2t37 2q17 1 36 2t29 3 11 1h3v-40q0-38 1-38t5 5 12 15 19 18 29 19 38 16q20 5 51 5 114-4 127-113 1-7 1-139v-86q0-38 2-45t11-10q21-3 49-3h16V0h-8l-24 1q-23 1-50 1t-38 1Q319 3 310 0h-8v46h16q61 0 61 16 1 2 1 138-1 135-2 143-6 28-20 42t-24 17-26 2q-45 0-79-34-27-27-34-55t-8-83V108q0-30 1-40t3-13 9-6q21-3 49-3h16V0h-8l-23 1q-24 1-51 1t-38 1Q42 3 33 0h-8v46h16z"/><path id="s" d="M370 305h-21l-36 15-16 38q0 23 15 38 5 5 5 6t-10 2q-26 4-49 4-49 0-80-32-47-47-47-157 0-82 31-129 41-61 110-61 41 0 66 26t36 62q2 8 5 10t16 2h14q6-6 6-9 0-4-4-16t-16-33-29-38-48-31-69-13q-86 0-150 64T34 214q0 104 65 169t151 65 120-27 34-64q0-23-17-37z"/><path id="t" d="M28 214q0 95 65 164t157 70q90 0 155-68t66-165q0-95-64-160T250-10q-97 0-159 67T28 214zM250 30q122 0 122 163v57q0 22-1 38t-7 38-16 36-31 28-49 20q-5 1-16 1-30 0-57-12-43-22-56-61t-13-92v-20q0-96 19-135 32-61 105-61z"/><path id="u" d="M0 1070v84h347V-645h-84v1715H0z"/><path id="v" d="M263-560v1715h84V-644H0v84h263z"/><path id="w" d="M263 0v602h84V0h-84z"/></defs><g data-mml-node="math" stroke="currentColor" fill="currentColor" stroke-width="0"><g data-mml-node="TeXAtom"><use xlink:href="#a" data-mml-node="mi" transform="scale(1 -1)"/></g><use xlink:href="#b" data-mml-node="mo" transform="matrix(1 0 0 -1 831 0)"/><g data-mml-node="msub"><use xlink:href="#c" data-mml-node="mi" transform="matrix(1 0 0 -1 1220 0)"/><use xlink:href="#d" data-mml-node="mn" transform="matrix(.707 0 0 -.707 1689 150)"/></g><use xlink:href="#e" data-mml-node="mo" transform="matrix(1 0 0 -1 2092.6 0)"/><g data-mml-node="mfrac"><use xlink:href="#f" data-mml-node="mi" transform="matrix(1 0 0 -1 2757.2 -676)"/><use xlink:href="#g" data-mml-node="mn" transform="matrix(1 0 0 -1 2792.2 686)"/><path stroke="none" d="M2657.2-220h770v-60h-770z"/></g><use xlink:href="#e" data-mml-node="mo" transform="matrix(1 0 0 -1 3547.2 0)"/><g data-mml-node="msub"><use xlink:href="#c" data-mml-node="mi" transform="matrix(1 0 0 -1 3991.9 0)"/><use xlink:href="#h" data-mml-node="mn" transform="matrix(.707 0 0 -.707 4460.9 150)"/></g><use xlink:href="#i" data-mml-node="mo" transform="matrix(1 0 0 -1 4864.4 0)"/><use xlink:href="#j" data-mml-node="mo" transform="matrix(1 0 0 -1 5531.2 0)"/><g data-mml-node="mrow"><g data-mml-node="mo" transform="matrix(1 0 0 -1 6587 0)"><use xlink:href="#k" transform="translate(104 890.7)"/><use xlink:href="#l" transform="translate(104 -900.7)"/><svg width="667" height="191.3" y="154.3" x="104" viewBox="0 47.8 667 191.3"><use xlink:href="#m" transform="scale(1 .477)"/></svg></g><g data-mml-node="mtable"><g data-mml-node="mtr"><g data-mml-node="mtd"><use xlink:href="#n" data-mml-node="mn" transform="matrix(1 0 0 -1 9753.8 -1294.7)"/></g><g data-mml-node="mtd"><use xlink:href="#n" data-mml-node="mn" transform="matrix(1 0 0 -1 16171.3 -1294.7)"/></g><g data-mml-node="mtd"><use xlink:href="#o" data-mml-node="mo" transform="matrix(1 0 0 -1 20297.1 -1294.7)"/><use xlink:href="#d" data-mml-node="mn" transform="matrix(1 0 0 -1 21075.1 -1294.7)"/></g></g><g data-mml-node="mtr"><g data-mml-node="mtd"><g data-mml-node="mtext" transform="matrix(1 0 0 -1 7517 0)"><use xlink:href="#p"/><use xlink:href="#q" transform="translate(394)"/><use xlink:href="#r" transform="translate(672)"/></g><use xlink:href="#b" data-mml-node="mo" transform="matrix(1 0 0 -1 8745 0)"/><g data-mml-node="msub"><use xlink:href="#c" data-mml-node="mi" transform="matrix(1 0 0 -1 9134 0)"/><use xlink:href="#d" data-mml-node="mn" transform="matrix(.707 0 0 -.707 9603 150)"/></g><use xlink:href="#o" data-mml-node="mo" transform="matrix(1 0 0 -1 10228.8 0)"/><g data-mml-node="msub"><use xlink:href="#c" data-mml-node="mi" transform="matrix(1 0 0 -1 11229 0)"/><use xlink:href="#h" data-mml-node="mn" transform="matrix(.707 0 0 -.707 11698 150)"/></g><use xlink:href="#i" data-mml-node="mo" transform="matrix(1 0 0 -1 12101.6 0)"/></g><g data-mml-node="mtd"><g data-mml-node="mtext" transform="matrix(1 0 0 -1 13879.6 0)"><use xlink:href="#s"/><use xlink:href="#t" transform="translate(444)"/><use xlink:href="#p" transform="translate(944)"/></g><use xlink:href="#b" data-mml-node="mo" transform="matrix(1 0 0 -1 15217.6 0)"/><g data-mml-node="msub"><use xlink:href="#c" data-mml-node="mi" transform="matrix(1 0 0 -1 15606.6 0)"/><use xlink:href="#d" data-mml-node="mn" transform="matrix(.707 0 0 -.707 16075.6 150)"/></g><use xlink:href="#o" data-mml-node="mo" transform="matrix(1 0 0 -1 16701.4 0)"/><g data-mml-node="msub"><use xlink:href="#c" data-mml-node="mi" transform="matrix(1 0 0 -1 17701.6 0)"/><use xlink:href="#h" data-mml-node="mn" transform="matrix(.707 0 0 -.707 18170.6 150)"/></g><use xlink:href="#i" data-mml-node="mo" transform="matrix(1 0 0 -1 18574.2 0)"/></g><g data-mml-node="mtd"><use xlink:href="#n" data-mml-node="mn" transform="matrix(1 0 0 -1 20686.1 0)"/></g></g><g data-mml-node="mtr"><g data-mml-node="mtd"><g data-mml-node="mtext" transform="matrix(1 0 0 -1 7462 1294.7)"><use xlink:href="#s"/><use xlink:href="#t" transform="translate(444)"/><use xlink:href="#p" transform="translate(944)"/></g><use xlink:href="#b" data-mml-node="mo" transform="matrix(1 0 0 -1 8800 1294.7)"/><g data-mml-node="msub"><use xlink:href="#c" data-mml-node="mi" transform="matrix(1 0 0 -1 9189 1294.7)"/><use xlink:href="#d" data-mml-node="mn" transform="matrix(.707 0 0 -.707 9658 1444.7)"/></g><use xlink:href="#o" data-mml-node="mo" transform="matrix(1 0 0 -1 10283.8 1294.7)"/><g data-mml-node="msub"><use xlink:href="#c" data-mml-node="mi" transform="matrix(1 0 0 -1 11284 1294.7)"/><use xlink:href="#h" data-mml-node="mn" transform="matrix(.707 0 0 -.707 11753 1444.7)"/></g><use xlink:href="#i" data-mml-node="mo" transform="matrix(1 0 0 -1 12156.6 1294.7)"/></g><g data-mml-node="mtd"><use xlink:href="#o" data-mml-node="mo" transform="matrix(1 0 0 -1 13545.6 1294.7)"/><g data-mml-node="mtext" transform="matrix(1 0 0 -1 14323.6 1294.7)"><use xlink:href="#p"/><use xlink:href="#q" transform="translate(394)"/><use xlink:href="#r" transform="translate(672)"/></g><use xlink:href="#b" data-mml-node="mo" transform="matrix(1 0 0 -1 15551.6 1294.7)"/><g data-mml-node="msub"><use xlink:href="#c" data-mml-node="mi" transform="matrix(1 0 0 -1 15940.6 1294.7)"/><use xlink:href="#d" data-mml-node="mn" transform="matrix(.707 0 0 -.707 16409.6 1444.7)"/></g><use xlink:href="#o" data-mml-node="mo" transform="matrix(1 0 0 -1 17035.4 1294.7)"/><g data-mml-node="msub"><use xlink:href="#c" data-mml-node="mi" transform="matrix(1 0 0 -1 18035.6 1294.7)"/><use xlink:href="#h" data-mml-node="mn" transform="matrix(.707 0 0 -.707 18504.6 1444.7)"/></g><use xlink:href="#i" data-mml-node="mo" transform="matrix(1 0 0 -1 18908.2 1294.7)"/></g><g data-mml-node="mtd"><use xlink:href="#n" data-mml-node="mn" transform="matrix(1 0 0 -1 20686.1 1294.7)"/></g></g></g><g data-mml-node="mo" transform="matrix(1 0 0 -1 21575.1 0)"><use xlink:href="#u" transform="translate(104 890.7)"/><use xlink:href="#v" transform="translate(104 -900.7)"/><svg width="667" height="191.3" y="154.3" x="104" viewBox="0 47.8 667 191.3"><use xlink:href="#w" transform="scale(1 .477)"/></svg></g></g></g></svg>