<svg xmlns="http://www.w3.org/2000/svg" width="400" height="65" viewBox="0 -3014.2 13758.3 5528.5" xmlns:xlink="http://www.w3.org/1999/xlink"><defs><path id="a" d="M38 220q0 53 16 94t41 66 57 41 59 22 53 6q104 0 165-63l9-9 46 73h56v-582h69v-62h-9q-18 3-125 3-115 0-124-3h-9v62h69V42q-2-1-12-8t-16-9-16-9-20-9-23-6-28-5-32-2Q162-6 100 56T38 220zM287 46q81 0 130 81v174l-5 11q-14 35-43 59t-67 24q-20 0-39-7t-38-26-31-54-12-87q0-95 32-135t73-40z"/><path id="b" d="M56 347q0 13 14 20h637q15-8 15-20 0-11-14-19l-318-1H72q-16 5-16 20zm0-194q0 15 16 20h636q14-10 14-20 0-13-15-20H70q-14 7-14 20z"/><path id="c" d="M319-645v1799h347v-84H403V-645h-84z"/><path id="d" d="M319-644v1799h84V-560h263v-84H319z"/><path id="e" d="M319 0v602h84V0h-84z"/><path id="g" d="M95 178q-6 0-14 8t-9 14 31 30 66 50 38 29q2 2 5 2h1q6 0 14-17t54-117q19-43 31-69l85-185q1 0 104 213t206 429 107 221q6 14 20 14 7 0 12-6t7-12v-6L620 293 385-193q-4-7-19-7-9 0-12 3-2 2-98 212l-96 210-16-11q-15-12-31-24t-18-12z"/><path id="f" d="M127 463q-27 0-42 17t-16 44q0 55 48 98t116 43q35 0 44-1 74-12 113-53t40-89q0-52-34-101t-94-71l-3-2q0-1 9-3t29-9 38-21q82-53 82-140 0-79-62-138T238-22q-80 0-138 43T42 130q0 28 18 45t45 18q28 0 46-18t18-45q0-11-3-20t-7-16-11-12-12-8-10-4-8-3l-4-1q51-45 124-45 55 0 83 53 17 33 17 101v20q0 95-64 127-15 6-61 7l-42 1-3 2q-2 3-2 16 0 18 8 18 28 0 58 5 34 5 62 42t28 112v8q0 57-35 79-22 14-47 14-32 0-59-11t-38-23-11-12h3q3-1 8-2t10-5 12-7 10-11 8-15 3-20q0-22-14-39t-45-18z"/><path id="h" d="M109 429q-27 0-43 18t-16 44q0 71 53 123t132 52q91 0 152-56t62-145q0-43-20-82t-48-68-80-74q-36-31-100-92l-59-56 76-1q157 0 167 5 7 2 24 89v3h40v-3q-1-3-13-91T421 3V0H50v31q0 7 6 15t30 35q29 32 50 56 9 10 34 37t34 37 29 33 28 34 23 30 21 32 15 29 13 32 7 30 3 33q0 63-34 109t-97 46q-33 0-58-17t-35-33-10-19q0-1 5-1 18 0 37-14t19-46q0-25-16-42t-45-18z"/><path id="i" d="M96 585q56 81 153 81 48 0 96-26t78-92q37-83 37-228 0-155-43-237-20-42-55-67t-61-31-51-7q-26 0-52 6t-61 32-55 67q-43 82-43 237 0 174 57 265zm225 12q-30 32-71 32-42 0-72-32-25-26-33-72t-8-192q0-158 8-208t36-79q28-30 69-30 40 0 68 30 29 30 36 84t8 203q0 145-8 191t-33 73z"/><path id="j" d="M213 578l-13-5q-14-5-40-10t-58-7H83v46h19q47 2 87 15t56 24 28 22q2 3 12 3 9 0 17-6V361l1-300q7-7 12-9t24-4 62-2h26V0h-11q-21 3-159 3-136 0-157-3H88v46h64q16 0 25 1t16 3 8 2 6 5 6 4v517z"/><path id="k" d="M0 1070v84h347V-645h-84v1715H0z"/><path id="l" d="M263-560v1715h84V-644H0v84h263z"/><path id="m" d="M263 0v602h84V0h-84z"/><path id="n" d="M137 305h-22l-37 15-15 39q0 35 34 62t121 27q73 0 118-32t60-76q5-14 5-31t1-115v-70q0-48 5-66t21-18q15 0 20 16t5 53v36h40v-39q-1-40-3-47-9-30-35-47T400-6t-47 18-24 42v4l-2-3q-2-3-5-6t-8-9-12-11-15-12-18-11-22-8-26-6-31-3q-60 0-108 31t-48 87q0 21 7 40t27 41 48 37 78 28 110 15h14v22q0 34-6 50-22 71-97 71-18 0-34-1t-25-4-8-3q22-15 22-44 0-25-16-39zm-11-199q0-31 24-55t59-25q38 0 67 23t39 60q2 7 3 66 0 58-1 58-8 0-21-1t-45-9-58-20-46-37-21-60z"/><path id="o" d="M41 46h14q39 0 47 14v62q0 17 1 39t0 42v66q0 35-1 59v23q-3 19-14 25t-45 9H25v23q0 23 2 23l10 1q10 1 28 2t37 2q17 1 36 2t29 3 11 1h3v-40q0-38 1-38t5 5 12 15 19 18 29 19 38 16q20 5 51 5 114-4 127-113 1-7 1-139v-86q0-38 2-45t11-10q21-3 49-3h16V0h-8l-24 1q-23 1-50 1t-38 1Q319 3 310 0h-8v46h16q61 0 61 16 1 2 1 138-1 135-2 143-6 28-20 42t-24 17-26 2q-45 0-79-34-27-27-34-55t-8-83V108q0-30 1-40t3-13 9-6q21-3 49-3h16V0h-8l-23 1q-24 1-51 1t-38 1Q42 3 33 0h-8v46h16z"/><path id="p" d="M376 495v40q0 24 1 33 0 45-10 56t-51 13h-18v23q0 23 2 23l10 1q10 1 29 2t37 2 37 2 30 3 11 1h3V390q0-306 1-309 3-20 14-26t45-9h18V0q-2 0-76-5t-79-6h-7v55l-8-7q-58-48-130-48-77 0-139 61T34 215q0 100 63 163t147 64q75 0 132-49v102zm-3-153q-45 63-113 63-49 0-87-36-27-28-34-64t-8-94q0-56 7-91t35-61q30-33 78-33 71 0 122 77v239z"/></defs><g data-mml-node="math" stroke="currentColor" fill="currentColor" stroke-width="0"><g data-mml-node="TeXAtom"><use xlink:href="#a" data-mml-node="mi" transform="scale(1 -1)"/></g><use xlink:href="#b" data-mml-node="mo" transform="matrix(1 0 0 -1 884.8 0)"/><g data-mml-node="mrow"><g data-mml-node="mo" transform="matrix(1 0 0 -1 1940.6 0)"><use xlink:href="#c" transform="translate(104 1860.2)"/><use xlink:href="#d" transform="translate(104 -1870.2)"/><svg width="667" height="2130.5" y="-815.2" x="104" viewBox="0 532.6 667 2130.5"><use xlink:href="#e" transform="scale(1 5.308)"/></svg></g><g data-mml-node="mtable"><g data-mml-node="mtr"><g data-mml-node="mtd"><g data-mml-node="mfrac"><g data-mml-node="msqrt"><use xlink:href="#f" data-mml-node="mn" transform="matrix(.707 0 0 -.707 3624.531 -2375)"/><use xlink:href="#g" data-mml-node="mo" transform="matrix(.707 0 0 -.707 3035.6 -2418.551)"/><path stroke="none" d="M3624.531-2954.104h353.5v-29.977h-353.5z"/></g><use xlink:href="#h" data-mml-node="mn" transform="matrix(.707 0 0 -.707 3330.1 -1579.7)"/><path stroke="none" d="M2935.6-2144.7h1142.6v-60H2935.6z"/></g></g></g><g data-mml-node="mtr"><g data-mml-node="mtd"><use xlink:href="#i" data-mml-node="mn" transform="matrix(1 0 0 -1 3256.9 -535)"/></g></g><g data-mml-node="mtr"><g data-mml-node="mtd"><g data-mml-node="mfrac"><use xlink:href="#j" data-mml-node="mn" transform="matrix(.707 0 0 -.707 3330.1 480.6)"/><use xlink:href="#h" data-mml-node="mn" transform="matrix(.707 0 0 -.707 3330.1 1219.6)"/><path stroke="none" d="M3230.1 654.6h553.6v-60h-553.6z"/></g></g></g><g data-mml-node="mtr"><g data-mml-node="mtd"><use xlink:href="#i" data-mml-node="mn" transform="matrix(1 0 0 -1 3256.9 2264.2)"/></g></g></g><g data-mml-node="mo" transform="matrix(1 0 0 -1 4198.2 0)"><use xlink:href="#k" transform="translate(104 1860.2)"/><use xlink:href="#l" transform="translate(104 -1870.2)"/><svg width="667" height="2130.5" y="-815.2" x="104" viewBox="0 532.6 667 2130.5"><use xlink:href="#m" transform="scale(1 5.308)"/></svg></g></g><g data-mml-node="mtext" transform="matrix(1 0 0 -1 6073.1 0)"><use xlink:href="#n"/><use xlink:href="#o" transform="translate(500)"/><use xlink:href="#p" transform="translate(1056)"/></g><g data-mml-node="TeXAtom"><use xlink:href="#a" data-mml-node="mi" transform="matrix(1 0 0 -1 8685.1 0)"/></g><use xlink:href="#b" data-mml-node="mo" transform="matrix(1 0 0 -1 9569.9 0)"/><g data-mml-node="mrow"><g data-mml-node="mo" transform="matrix(1 0 0 -1 10625.7 0)"><use xlink:href="#c" transform="translate(104 1860.2)"/><use xlink:href="#d" transform="translate(104 -1870.2)"/><svg width="667" height="2130.5" y="-815.2" x="104" viewBox="0 532.6 667 2130.5"><use xlink:href="#e" transform="scale(1 5.308)"/></svg></g><g data-mml-node="mtable"><g data-mml-node="mtr"><g data-mml-node="mtd"><g data-mml-node="mfrac"><g data-mml-node="msqrt"><use xlink:href="#f" data-mml-node="mn" transform="matrix(.707 0 0 -.707 12309.631 -2375)"/><use xlink:href="#g" data-mml-node="mo" transform="matrix(.707 0 0 -.707 11720.7 -2418.551)"/><path stroke="none" d="M12309.631-2954.104h353.5v-29.977h-353.5z"/></g><use xlink:href="#h" data-mml-node="mn" transform="matrix(.707 0 0 -.707 12015.2 -1579.7)"/><path stroke="none" d="M11620.7-2144.7h1142.6v-60h-1142.6z"/></g></g></g><g data-mml-node="mtr"><g data-mml-node="mtd"><use xlink:href="#i" data-mml-node="mn" transform="matrix(1 0 0 -1 11942 -535)"/></g></g><g data-mml-node="mtr"><g data-mml-node="mtd"><use xlink:href="#i" data-mml-node="mn" transform="matrix(1 0 0 -1 11942 759.6)"/></g></g><g data-mml-node="mtr"><g data-mml-node="mtd"><g data-mml-node="mfrac"><use xlink:href="#j" data-mml-node="mn" transform="matrix(.707 0 0 -.707 12015.2 1775.2)"/><use xlink:href="#h" data-mml-node="mn" transform="matrix(.707 0 0 -.707 12015.2 2514.2)"/><path stroke="none" d="M11915.2 1949.2h553.6v-60h-553.6z"/></g></g></g></g><g data-mml-node="mo" transform="matrix(1 0 0 -1 12883.3 0)"><use xlink:href="#k" transform="translate(104 1860.2)"/><use xlink:href="#l" transform="translate(104 -1870.2)"/><svg width="667" height="2130.5" y="-815.2" x="104" viewBox="0 532.6 667 2130.5"><use xlink:href="#m" transform="scale(1 5.308)"/></svg></g></g></g></svg>