<svg xmlns="http://www.w3.org/2000/svg" width="450" height="65" viewBox="0 -2044.7 7403.7 3589.3" xmlns:xlink="http://www.w3.org/1999/xlink"><defs><path id="a" d="M319-645v1799h347v-84H403V-645h-84z"/><path id="b" d="M319-644v1799h84V-560h263v-84H319z"/><path id="c" d="M319 0v602h84V0h-84z"/><path id="d" d="M39 168q0 57 19 104t49 78 67 52 70 31 63 9h3q45 0 78-22t33-65q0-90-111-118-49-13-134-14-37 0-38-2 0-2-6-35t-7-58q0-47 21-74t63-28 93 19 92 66q9 10 12 10 4 0 13-9t10-14-9-16-30-27-46-31-63-25-76-10q-79 0-122 53T39 168zm334 185q-6 52-68 52-33 0-61-14t-45-34-29-41-16-36-5-19q0-1 20-1 113 0 158 24t46 69z"/><path id="e" d="M213 578l-13-5q-14-5-40-10t-58-7H83v46h19q47 2 87 15t56 24 28 22q2 3 12 3 9 0 17-6V361l1-300q7-7 12-9t24-4 62-2h26V0h-11q-21 3-159 3-136 0-157-3H88v46h64q16 0 25 1t16 3 8 2 6 5 6 4v517z"/><path id="f" d="M109 429q-27 0-43 18t-16 44q0 71 53 123t132 52q91 0 152-56t62-145q0-43-20-82t-48-68-80-74q-36-31-100-92l-59-56 76-1q157 0 167 5 7 2 24 89v3h40v-3q-1-3-13-91T421 3V0H50v31q0 7 6 15t30 35q29 32 50 56 9 10 34 37t34 37 29 33 28 34 23 30 21 32 15 29 13 32 7 30 3 33q0 63-34 109t-97 46q-33 0-58-17t-35-33-10-19q0-1 5-1 18 0 37-14t19-46q0-25-16-42t-45-18z"/><path id="g" d="M127 463q-27 0-42 17t-16 44q0 55 48 98t116 43q35 0 44-1 74-12 113-53t40-89q0-52-34-101t-94-71l-3-2q0-1 9-3t29-9 38-21q82-53 82-140 0-79-62-138T238-22q-80 0-138 43T42 130q0 28 18 45t45 18q28 0 46-18t18-45q0-11-3-20t-7-16-11-12-12-8-10-4-8-3l-4-1q51-45 124-45 55 0 83 53 17 33 17 101v20q0 95-64 127-15 6-61 7l-42 1-3 2q-2 3-2 16 0 18 8 18 28 0 58 5 34 5 62 42t28 112v8q0 57-35 79-22 14-47 14-32 0-59-11t-38-23-11-12h3q3-1 8-2t10-5 12-7 10-11 8-15 3-20q0-22-14-39t-45-18z"/><path id="h" d="M0 1070v84h347V-645h-84v1715H0z"/><path id="i" d="M263-560v1715h84V-644H0v84h263z"/><path id="j" d="M263 0v602h84V0h-84z"/><path id="k" d="M56 347q0 13 14 20h637q15-8 15-20 0-11-14-19l-318-1H72q-16 5-16 20zm0-194q0 15 16 20h636q14-10 14-20 0-13-15-20H70q-14 7-14 20z"/><path id="l" d="M64 343q0 159 110 256t294 98q34 0 65-6t53-17 37-19 24-16 10-7l37 31q9 7 17 14t12 10 7 5 5 3 5 1 6 1q13 0 16-5t4-24V449q0-21-4-25t-20-5h-22q-21 0-23 17-7 62-40 109-46 73-125 87-10 2-36 2-140 0-210-81-54-65-54-210t54-210q69-81 211-81 100 0 153 60t54 125q0 11 5 14t20 3h6q15 0 20-1t8-5 3-14q0-98-86-171T469-11q-184 0-294 97T64 343z"/></defs><g data-mml-node="math" stroke="currentColor" fill="currentColor" stroke-width="0"><g data-mml-node="mrow"><g data-mml-node="mo" transform="scale(1 -1)"><use xlink:href="#a" transform="translate(104 890.7)"/><use xlink:href="#b" transform="translate(104 -900.7)"/><svg width="667" height="191.3" y="154.3" x="104" viewBox="0 47.8 667 191.3"><use xlink:href="#c" transform="scale(1 .477)"/></svg></g><g data-mml-node="mtable"><g data-mml-node="mtr"><g data-mml-node="mtd"><g data-mml-node="msub"><use xlink:href="#d" data-mml-node="mi" transform="matrix(1 0 0 -1 875 -1294.7)"/><use xlink:href="#e" data-mml-node="mn" transform="matrix(.707 0 0 -.707 1341 -1144.7)"/></g></g></g><g data-mml-node="mtr"><g data-mml-node="mtd"><g data-mml-node="msub"><use xlink:href="#d" data-mml-node="mi" transform="matrix(1 0 0 -1 875 0)"/><use xlink:href="#f" data-mml-node="mn" transform="matrix(.707 0 0 -.707 1341 150)"/></g></g></g><g data-mml-node="mtr"><g data-mml-node="mtd"><g data-mml-node="msub"><use xlink:href="#d" data-mml-node="mi" transform="matrix(1 0 0 -1 875 1294.7)"/><use xlink:href="#g" data-mml-node="mn" transform="matrix(.707 0 0 -.707 1341 1444.7)"/></g></g></g></g><g data-mml-node="mo" transform="matrix(1 0 0 -1 1744.6 0)"><use xlink:href="#h" transform="translate(104 890.7)"/><use xlink:href="#i" transform="translate(104 -900.7)"/><svg width="667" height="191.3" y="154.3" x="104" viewBox="0 47.8 667 191.3"><use xlink:href="#j" transform="scale(1 .477)"/></svg></g></g><use xlink:href="#k" data-mml-node="mo" transform="matrix(1 0 0 -1 2897.3 0)"/><g data-mml-node="TeXAtom"><use xlink:href="#l" data-mml-node="mi" transform="matrix(1 0 0 -1 3953.1 0)"/></g><g data-mml-node="mrow"><g data-mml-node="mo" transform="matrix(1 0 0 -1 4784.1 0)"><use xlink:href="#a" transform="translate(104 890.7)"/><use xlink:href="#b" transform="translate(104 -900.7)"/><svg width="667" height="191.3" y="154.3" x="104" viewBox="0 47.8 667 191.3"><use xlink:href="#c" transform="scale(1 .477)"/></svg></g><g data-mml-node="mtable"><g data-mml-node="mtr"><g data-mml-node="mtd"><g data-mml-node="msub"><use xlink:href="#d" data-mml-node="mi" transform="matrix(1 0 0 -1 5659.1 -1294.7)"/><use xlink:href="#e" data-mml-node="mn" transform="matrix(.707 0 0 -.707 6125.1 -1144.7)"/></g></g></g><g data-mml-node="mtr"><g data-mml-node="mtd"><g data-mml-node="msub"><use xlink:href="#d" data-mml-node="mi" transform="matrix(1 0 0 -1 5659.1 0)"/><use xlink:href="#f" data-mml-node="mn" transform="matrix(.707 0 0 -.707 6125.1 150)"/></g></g></g><g data-mml-node="mtr"><g data-mml-node="mtd"><g data-mml-node="msub"><use xlink:href="#d" data-mml-node="mi" transform="matrix(1 0 0 -1 5659.1 1294.7)"/><use xlink:href="#g" data-mml-node="mn" transform="matrix(.707 0 0 -.707 6125.1 1444.7)"/></g></g></g></g><g data-mml-node="mo" transform="matrix(1 0 0 -1 6528.7 0)"><use xlink:href="#h" transform="translate(104 890.7)"/><use xlink:href="#i" transform="translate(104 -900.7)"/><svg width="667" height="191.3" y="154.3" x="104" viewBox="0 47.8 667 191.3"><use xlink:href="#j" transform="scale(1 .477)"/></svg></g></g></g></svg>