<svg xmlns="http://www.w3.org/2000/svg" width="400" height="65" viewBox="0 -2692 19485.7 4884" xmlns:xlink="http://www.w3.org/1999/xlink"><defs><path id="a" d="M38 220q0 53 16 94t41 66 57 41 59 22 53 6q104 0 165-63l9-9 46 73h56v-582h69v-62h-9q-18 3-125 3-115 0-124-3h-9v62h69V42q-2-1-12-8t-16-9-16-9-20-9-23-6-28-5-32-2Q162-6 100 56T38 220zM287 46q81 0 130 81v174l-5 11q-14 35-43 59t-67 24q-20 0-39-7t-38-26-31-54-12-87q0-95 32-135t73-40z"/><path id="b" d="M201-25q-34 0-65 11T75 23 29 94 12 202q0 88 38 192t111 180q66 68 142 99t130 31q2 1 24 1 76-4 76-65 0-34-26-92t-43-74q-33-30-68-30-15 0-15 9 0 6 7 20t19 40 21 50q5 17 5 31 0 42-52 42-67 0-121-42t-85-105-47-126-16-116q0-90 41-146t120-57q74 0 125 77 15 23 39 36t44 14q15 0 15-11 0-10-20-37-50-67-126-107T201-25z"/><path id="c" d="M576 668q0 20 30 40t54 20q16 0 15-16V571q0-162 13-319 8-130 32-195 2-4 3-7t5-4 4-3 5-2 6-2l11 6q34 16 49 16 16 0 16-14-1-4-5-12-15-20-59-42t-80-23q-16 0-27 5T630-8t-9 19-7 23q-11 43-15 72t-5 40-3 14v3H460l-131 1-13-19Q241 35 196-7t-77-43-60 26-29 67q0 32 16 57t28 25q7 0 9-5t5-16 8-20q22-27 55-27 38 0 126 125 155 218 265 443l17 34h8q7 0 8 1t1 8zm8-419q-5 84-7 137t-2 87-1 47v61l-11-21q-66-134-151-270l-40-62-2-4h1l12 4 10 4h193l-2 17z"/><path id="d" d="M56 347q0 13 14 20h637q15-8 15-20 0-11-14-19l-318-1H72q-16 5-16 20zm0-194q0 15 16 20h636q14-10 14-20 0-13-15-20H70q-14 7-14 20z"/><path id="e" d="M304 342q-12 0-12 11 0 19 31 38 8 5 94 37t116 59q30 25 30 68v7q0 13-6 27t-27 29-55 18q-46 0-79-23t-66-74q-67-93-120-301-14-55-37-118-38-89-52-104-13-15-36-26T47-22 32-10q0 5 12 28t33 75 35 113q23 90 42 189t28 155 9 65q0 1-1 1-2 0-11-5t-22-10-26-7q-18 0-18 11 0 18 31 39 10 6 61 32t62 27q10 2 12 2 16 0 16-12 0-7-7-58t-10-60q0-3 9 7 49 53 115 87t138 35q63 0 93-31t31-74q0-40-26-76t-58-61q-27-22-76-49l-13-6 13-5q62-21 92-64t31-94q0-72-52-134T444 13 284-22q-76 0-126 50-14 14-12 22 4 17 32 35t52 18q6 0 16-8t21-20 35-19 55-9q79 0 129 46 40 43 40 105v12q0 18-8 39t-27 43-55 38-86 15q-15 0-29-1t-17-2z"/><path id="f" d="M56 250q0 144 100 238t228 95q146 0 242-98t96-235q0-140-97-236T390-83q-141 0-237 97T56 250zm526 221q-51 39-86 52-50 19-115 19-57 0-109-23t-76-48l193-193 96 97 97 96zm-415-29q-72-80-72-192 0-113 72-192l192 192-192 192zM610 58q72 80 72 192 0 113-72 192L418 250 610 58zM196 29q13-13 34-27t65-29 93-15q21 0 41 2t36 7 31 10 26 12 22 12 17 12 13 9 8 7L388 222 196 29z"/><path id="g" d="M319-645v1799h347v-84H403V-645h-84z"/><path id="h" d="M319-644v1799h84V-560h263v-84H319z"/><path id="i" d="M319 0v602h84V0h-84z"/><path id="j" d="M23 287q1 3 2 8t5 22 10 31 15 33 20 30 26 22 33 9q75 0 96-64l10 9q62 55 118 55 65 0 102-47t37-114q0-108-76-199T249-10q-22 0-39 6-11 5-23 15t-19 17l-7 8q-1-1-22-87t-21-87q0-6 8-7t37-3h25q6-7 6-9t-3-18q-3-12-6-15t-13-4h-11q-9 0-34 1t-62 1q-70 0-89-2h-8q-7 7-7 11 2 27 13 35h20q34 1 39 12 3 6 61 239t61 247q1 5 1 14 0 41-25 41-22 0-37-28t-23-61-12-36q-2-2-16-2H29q-6 6-6 9zm155-185q22-76 74-76 30 0 58 23t46 58q18 34 36 108t19 110v6q0 74-61 74-11 0-22-3t-22-9-20-13-17-15-15-15-11-14-8-10l-3-4q0-1-3-14t-11-44-14-52q-26-106-26-110z"/><path id="k" d="M96 585q56 81 153 81 48 0 96-26t78-92q37-83 37-228 0-155-43-237-20-42-55-67t-61-31-51-7q-26 0-52 6t-61 32-55 67q-43 82-43 237 0 174 57 265zm225 12q-30 32-71 32-42 0-72-32-25-26-33-72t-8-192q0-158 8-208t36-79q28-30 69-30 40 0 68 30 29 30 36 84t8 203q0 145-8 191t-33 73z"/><path id="l" d="M84 237v13l14 20h581q15-8 15-20t-15-20H98q-14 7-14 20z"/><path id="m" d="M213 578l-13-5q-14-5-40-10t-58-7H83v46h19q47 2 87 15t56 24 28 22q2 3 12 3 9 0 17-6V361l1-300q7-7 12-9t24-4 62-2h26V0h-11q-21 3-159 3-136 0-157-3H88v46h64q16 0 25 1t16 3 8 2 6 5 6 4v517z"/><path id="n" d="M109 429q-27 0-43 18t-16 44q0 71 53 123t132 52q91 0 152-56t62-145q0-43-20-82t-48-68-80-74q-36-31-100-92l-59-56 76-1q157 0 167 5 7 2 24 89v3h40v-3q-1-3-13-91T421 3V0H50v31q0 7 6 15t30 35q29 32 50 56 9 10 34 37t34 37 29 33 28 34 23 30 21 32 15 29 13 32 7 30 3 33q0 63-34 109t-97 46q-33 0-58-17t-35-33-10-19q0-1 5-1 18 0 37-14t19-46q0-25-16-42t-45-18z"/><path id="o" d="M127 463q-27 0-42 17t-16 44q0 55 48 98t116 43q35 0 44-1 74-12 113-53t40-89q0-52-34-101t-94-71l-3-2q0-1 9-3t29-9 38-21q82-53 82-140 0-79-62-138T238-22q-80 0-138 43T42 130q0 28 18 45t45 18q28 0 46-18t18-45q0-11-3-20t-7-16-11-12-12-8-10-4-8-3l-4-1q51-45 124-45 55 0 83 53 17 33 17 101v20q0 95-64 127-15 6-61 7l-42 1-3 2q-2 3-2 16 0 18 8 18 28 0 58 5 34 5 62 42t28 112v8q0 57-35 79-22 14-47 14-32 0-59-11t-38-23-11-12h3q3-1 8-2t10-5 12-7 10-11 8-15 3-20q0-22-14-39t-45-18z"/><path id="p" d="M33 157q0 101 76 192t171 92q60 0 92-52 1 1 5 6t11 11 16 12q34 24 46 24 4 0 7-3t3-5q0-9-69-285-71-284-71-288 0-8 45-9h25q6-8 6-9t-3-18q-4-13-10-19h-13q-31 2-108 2h-88q-14 0-17-1-14 0-14 8 0 3 2 15 4 16 7 19t20 3q48 0 58 7 8 5 28 88t21 85q0 1-7-3-48-39-100-39-55 0-97 40T33 157zm319 169q-23 79-75 79-35 0-67-31t-50-81q-29-79-41-164v-11q0-8-1-12 0-45 18-62t43-18q54 0 111 72l8 11 54 217z"/><path id="q" d="M0 1070v84h347V-645h-84v1715H0z"/><path id="r" d="M263-560v1715h84V-644H0v84h263z"/><path id="s" d="M263 0v602h84V0h-84z"/></defs><g data-mml-node="math" stroke="currentColor" fill="currentColor" stroke-width="0"><g data-mml-node="msubsup"><g data-mml-node="TeXAtom"><use xlink:href="#a" data-mml-node="mi" transform="scale(1 -1)"/></g><g data-mml-node="TeXAtom"><use xlink:href="#b" data-mml-node="mi" transform="matrix(.707 0 0 -.707 607 -413)"/></g><g data-mml-node="TeXAtom"><use xlink:href="#c" data-mml-node="mi" transform="matrix(.707 0 0 -.707 607 299.5)"/></g></g><use xlink:href="#d" data-mml-node="mo" transform="matrix(1 0 0 -1 1221.3 0)"/><g data-mml-node="msubsup"><g data-mml-node="TeXAtom"><use xlink:href="#a" data-mml-node="mi" transform="matrix(1 0 0 -1 1999.3 0)"/></g><g data-mml-node="TeXAtom"><use xlink:href="#b" data-mml-node="mi" transform="matrix(.707 0 0 -.707 2606.3 -413)"/></g><g data-mml-node="TeXAtom"><use xlink:href="#e" data-mml-node="mi" transform="matrix(.707 0 0 -.707 2606.3 283.2)"/></g></g><use xlink:href="#f" data-mml-node="mo" transform="matrix(1 0 0 -1 3120.8 0)"/><g data-mml-node="msubsup"><g data-mml-node="TeXAtom"><use xlink:href="#a" data-mml-node="mi" transform="matrix(1 0 0 -1 3898.8 0)"/></g><g data-mml-node="TeXAtom"><use xlink:href="#e" data-mml-node="mi" transform="matrix(.707 0 0 -.707 4505.8 -413)"/></g><g data-mml-node="TeXAtom"><use xlink:href="#c" data-mml-node="mi" transform="matrix(.707 0 0 -.707 4505.8 297.3)"/></g></g><use xlink:href="#d" data-mml-node="mo" transform="matrix(1 0 0 -1 5120.1 0)"/><g data-mml-node="mrow"><g data-mml-node="mo" transform="matrix(1 0 0 -1 6175.9 0)"><use xlink:href="#g" transform="translate(104 1538)"/><use xlink:href="#h" transform="translate(104 -1548)"/><svg width="667" height="1486" y="-493" x="104" viewBox="0 371.5 667 1486"><use xlink:href="#i" transform="scale(1 3.703)"/></svg></g><g data-mml-node="mtable"><g data-mml-node="mtr"><g data-mml-node="mtd"><g data-mml-node="msub"><use xlink:href="#j" data-mml-node="mi" transform="matrix(1 0 0 -1 7050.9 -1942)"/><use xlink:href="#k" data-mml-node="mn" transform="matrix(.707 0 0 -.707 7553.9 -1792)"/></g></g><g data-mml-node="mtd"><use xlink:href="#l" data-mml-node="mo" transform="matrix(1 0 0 -1 8957.5 -1942)"/><g data-mml-node="msub"><use xlink:href="#j" data-mml-node="mi" transform="matrix(1 0 0 -1 9735.5 -1942)"/><use xlink:href="#m" data-mml-node="mn" transform="matrix(.707 0 0 -.707 10238.5 -1792)"/></g></g><g data-mml-node="mtd"><use xlink:href="#l" data-mml-node="mo" transform="matrix(1 0 0 -1 11642 -1942)"/><g data-mml-node="msub"><use xlink:href="#j" data-mml-node="mi" transform="matrix(1 0 0 -1 12420 -1942)"/><use xlink:href="#n" data-mml-node="mn" transform="matrix(.707 0 0 -.707 12923 -1792)"/></g></g><g data-mml-node="mtd"><use xlink:href="#l" data-mml-node="mo" transform="matrix(1 0 0 -1 14326.6 -1942)"/><g data-mml-node="msub"><use xlink:href="#j" data-mml-node="mi" transform="matrix(1 0 0 -1 15104.6 -1942)"/><use xlink:href="#o" data-mml-node="mn" transform="matrix(.707 0 0 -.707 15607.6 -1792)"/></g></g></g><g data-mml-node="mtr"><g data-mml-node="mtd"><g data-mml-node="msub"><use xlink:href="#p" data-mml-node="mi" transform="matrix(1 0 0 -1 7079.4 -647.3)"/><use xlink:href="#m" data-mml-node="mn" transform="matrix(.707 0 0 -.707 7525.4 -497.3)"/></g></g><g data-mml-node="mtd"><g data-mml-node="msub"><use xlink:href="#j" data-mml-node="mi" transform="matrix(1 0 0 -1 9346.5 -647.3)"/><use xlink:href="#k" data-mml-node="mn" transform="matrix(.707 0 0 -.707 9849.5 -497.3)"/></g></g><g data-mml-node="mtd"><g data-mml-node="msub"><use xlink:href="#j" data-mml-node="mi" transform="matrix(1 0 0 -1 12031 -647.3)"/><use xlink:href="#o" data-mml-node="mn" transform="matrix(.707 0 0 -.707 12534 -497.3)"/></g></g><g data-mml-node="mtd"><use xlink:href="#l" data-mml-node="mo" transform="matrix(1 0 0 -1 14326.6 -647.3)"/><g data-mml-node="msub"><use xlink:href="#j" data-mml-node="mi" transform="matrix(1 0 0 -1 15104.6 -647.3)"/><use xlink:href="#n" data-mml-node="mn" transform="matrix(.707 0 0 -.707 15607.6 -497.3)"/></g></g></g><g data-mml-node="mtr"><g data-mml-node="mtd"><g data-mml-node="msub"><use xlink:href="#j" data-mml-node="mi" transform="matrix(1 0 0 -1 7050.9 647.3)"/><use xlink:href="#n" data-mml-node="mn" transform="matrix(.707 0 0 -.707 7553.9 797.3)"/></g></g><g data-mml-node="mtd"><use xlink:href="#l" data-mml-node="mo" transform="matrix(1 0 0 -1 8957.5 647.3)"/><g data-mml-node="msub"><use xlink:href="#j" data-mml-node="mi" transform="matrix(1 0 0 -1 9735.5 647.3)"/><use xlink:href="#o" data-mml-node="mn" transform="matrix(.707 0 0 -.707 10238.5 797.3)"/></g></g><g data-mml-node="mtd"><g data-mml-node="msub"><use xlink:href="#j" data-mml-node="mi" transform="matrix(1 0 0 -1 12031 647.3)"/><use xlink:href="#k" data-mml-node="mn" transform="matrix(.707 0 0 -.707 12534 797.3)"/></g></g><g data-mml-node="mtd"><g data-mml-node="msub"><use xlink:href="#j" data-mml-node="mi" transform="matrix(1 0 0 -1 14715.6 647.3)"/><use xlink:href="#m" data-mml-node="mn" transform="matrix(.707 0 0 -.707 15218.6 797.3)"/></g></g></g><g data-mml-node="mtr"><g data-mml-node="mtd"><g data-mml-node="msub"><use xlink:href="#j" data-mml-node="mi" transform="matrix(1 0 0 -1 7050.9 1942)"/><use xlink:href="#o" data-mml-node="mn" transform="matrix(.707 0 0 -.707 7553.9 2092)"/></g></g><g data-mml-node="mtd"><g data-mml-node="msub"><use xlink:href="#j" data-mml-node="mi" transform="matrix(1 0 0 -1 9346.5 1942)"/><use xlink:href="#n" data-mml-node="mn" transform="matrix(.707 0 0 -.707 9849.5 2092)"/></g></g><g data-mml-node="mtd"><use xlink:href="#l" data-mml-node="mo" transform="matrix(1 0 0 -1 11642 1942)"/><g data-mml-node="msub"><use xlink:href="#j" data-mml-node="mi" transform="matrix(1 0 0 -1 12420 1942)"/><use xlink:href="#m" data-mml-node="mn" transform="matrix(.707 0 0 -.707 12923 2092)"/></g></g><g data-mml-node="mtd"><g data-mml-node="msub"><use xlink:href="#j" data-mml-node="mi" transform="matrix(1 0 0 -1 14715.6 1942)"/><use xlink:href="#k" data-mml-node="mn" transform="matrix(.707 0 0 -.707 15218.6 2092)"/></g></g></g></g><g data-mml-node="mo" transform="matrix(1 0 0 -1 16011.1 0)"><use xlink:href="#q" transform="translate(104 1538)"/><use xlink:href="#r" transform="translate(104 -1548)"/><svg width="667" height="1486" y="-493" x="104" viewBox="0 371.5 667 1486"><use xlink:href="#s" transform="scale(1 3.703)"/></svg></g></g><g data-mml-node="mrow"><g data-mml-node="mo" transform="matrix(1 0 0 -1 16886.1 0)"><use xlink:href="#g" transform="translate(104 1538)"/><use xlink:href="#h" transform="translate(104 -1548)"/><svg width="667" height="1486" y="-493" x="104" viewBox="0 371.5 667 1486"><use xlink:href="#i" transform="scale(1 3.703)"/></svg></g><g data-mml-node="mtable"><g data-mml-node="mtr"><g data-mml-node="mtd"><g data-mml-node="msub"><use xlink:href="#p" data-mml-node="mi" transform="matrix(1 0 0 -1 17761.1 -1942)"/><use xlink:href="#k" data-mml-node="mn" transform="matrix(.707 0 0 -.707 18207.1 -1792)"/></g></g></g><g data-mml-node="mtr"><g data-mml-node="mtd"><g data-mml-node="msub"><use xlink:href="#p" data-mml-node="mi" transform="matrix(1 0 0 -1 17761.1 -647.3)"/><use xlink:href="#m" data-mml-node="mn" transform="matrix(.707 0 0 -.707 18207.1 -497.3)"/></g></g></g><g data-mml-node="mtr"><g data-mml-node="mtd"><g data-mml-node="msub"><use xlink:href="#p" data-mml-node="mi" transform="matrix(1 0 0 -1 17761.1 647.3)"/><use xlink:href="#n" data-mml-node="mn" transform="matrix(.707 0 0 -.707 18207.1 797.3)"/></g></g></g><g data-mml-node="mtr"><g data-mml-node="mtd"><g data-mml-node="msub"><use xlink:href="#p" data-mml-node="mi" transform="matrix(1 0 0 -1 17761.1 1942)"/><use xlink:href="#o" data-mml-node="mn" transform="matrix(.707 0 0 -.707 18207.1 2092)"/></g></g></g></g><g data-mml-node="mo" transform="matrix(1 0 0 -1 18610.7 0)"><use xlink:href="#q" transform="translate(104 1538)"/><use xlink:href="#r" transform="translate(104 -1548)"/><svg width="667" height="1486" y="-493" x="104" viewBox="0 371.5 667 1486"><use xlink:href="#s" transform="scale(1 3.703)"/></svg></g></g></g></svg>