<svg xmlns="http://www.w3.org/2000/svg" width="400" height="15" viewBox="0 -750 14827.1 1000" xmlns:xlink="http://www.w3.org/1999/xlink"><defs><path id="a" d="M64 343q0 159 110 256t294 98q34 0 65-6t53-17 37-19 24-16 10-7l37 31q9 7 17 14t12 10 7 5 5 3 5 1 6 1q13 0 16-5t4-24V449q0-21-4-25t-20-5h-22q-21 0-23 17-7 62-40 109-46 73-125 87-10 2-36 2-140 0-210-81-54-65-54-210t54-210q69-81 211-81 100 0 153 60t54 125q0 11 5 14t20 3h6q15 0 20-1t8-5 3-14q0-98-86-171T469-11q-184 0-294 97T64 343z"/><path id="b" d="M94 250q0 69 10 131t23 107 37 88 38 67 42 52 33 34 25 21h17q14 0 14-9 0-3-17-21t-41-53-49-86-42-138-17-193 17-192 41-139 49-86 42-53 17-21q0-9-15-9h-16l-28 24q-94 85-137 212T94 250z"/><path id="c" d="M35 200q0 102 39 215t106 195 139 94h8q7 0 12 1 54-4 84-49 39-60 39-161 0-115-45-234T302 66 168-10h-7q-36 0-62 20T60 63t-19 67-6 70zm348 366q0 102-53 102-36 0-70-45t-56-102-34-100-13-50q49-1 97-1l97 1q1 1 8 33t16 80 8 82zM113 132q0-106 53-106 15 0 32 10t41 38 48 87 48 146l5 17H145q0-3-9-38t-16-78-7-76z"/><path id="d" d="M213 578l-13-5q-14-5-40-10t-58-7H83v46h19q47 2 87 15t56 24 28 22q2 3 12 3 9 0 17-6V361l1-300q7-7 12-9t24-4 62-2h26V0h-11q-21 3-159 3-136 0-157-3H88v46h64q16 0 25 1t16 3 8 2 6 5 6 4v517z"/><path id="e" d="M78 35v25l16 43 43 18q28 0 50-25t23-88q0-35-9-68t-21-57-26-41-24-27-13-9q-4 0-13 9t-9 13q0 4 11 16t25 30 26 50 16 73V9l-1-1q-2-1-5-2t-6-3-9-2-12-1q-27 0-44 17z"/><path id="f" d="M109 429q-27 0-43 18t-16 44q0 71 53 123t132 52q91 0 152-56t62-145q0-43-20-82t-48-68-80-74q-36-31-100-92l-59-56 76-1q157 0 167 5 7 2 24 89v3h40v-3q-1-3-13-91T421 3V0H50v31q0 7 6 15t30 35q29 32 50 56 9 10 34 37t34 37 29 33 28 34 23 30 21 32 15 29 13 32 7 30 3 33q0 63-34 109t-97 46q-33 0-58-17t-35-33-10-19q0-1 5-1 18 0 37-14t19-46q0-25-16-42t-45-18z"/><path id="g" d="M127 463q-27 0-42 17t-16 44q0 55 48 98t116 43q35 0 44-1 74-12 113-53t40-89q0-52-34-101t-94-71l-3-2q0-1 9-3t29-9 38-21q82-53 82-140 0-79-62-138T238-22q-80 0-138 43T42 130q0 28 18 45t45 18q28 0 46-18t18-45q0-11-3-20t-7-16-11-12-12-8-10-4-8-3l-4-1q51-45 124-45 55 0 83 53 17 33 17 101v20q0 95-64 127-15 6-61 7l-42 1-3 2q-2 3-2 16 0 18 8 18 28 0 58 5 34 5 62 42t28 112v8q0 57-35 79-22 14-47 14-32 0-59-11t-38-23-11-12h3q3-1 8-2t10-5 12-7 10-11 8-15 3-20q0-22-14-39t-45-18z"/><path id="h" d="M60 749l4 1h22l28-24q94-85 137-212t43-264q0-68-10-131T261 12t-37-88-38-67-41-51-32-33-23-19l-4-4H63q-3 0-5 3t-3 9q1 1 11 13Q221-64 221 250T66 725q-10 12-11 13 0 8 5 11z"/><path id="i" d="M56 347q0 13 14 20h637q15-8 15-20 0-11-14-19l-318-1H72q-16 5-16 20zm0-194q0 15 16 20h636q14-10 14-20 0-13-15-20H70q-14 7-14 20z"/></defs><g data-mml-node="math" stroke="currentColor" fill="currentColor" stroke-width="0"><g data-mml-node="TeXAtom"><use xlink:href="#a" data-mml-node="mi" transform="scale(1 -1)"/></g><use xlink:href="#b" data-mml-node="mo" transform="matrix(1 0 0 -1 831 0)"/><g data-mml-node="msub"><use xlink:href="#c" data-mml-node="mi" transform="matrix(1 0 0 -1 1220 0)"/><use xlink:href="#d" data-mml-node="mn" transform="matrix(.707 0 0 -.707 1689 150)"/></g><use xlink:href="#e" data-mml-node="mo" transform="matrix(1 0 0 -1 2092.6 0)"/><g data-mml-node="msub"><use xlink:href="#c" data-mml-node="mi" transform="matrix(1 0 0 -1 2537.2 0)"/><use xlink:href="#f" data-mml-node="mn" transform="matrix(.707 0 0 -.707 3006.2 150)"/></g><use xlink:href="#e" data-mml-node="mo" transform="matrix(1 0 0 -1 3409.8 0)"/><g data-mml-node="msub"><use xlink:href="#c" data-mml-node="mi" transform="matrix(1 0 0 -1 3854.4 0)"/><use xlink:href="#g" data-mml-node="mn" transform="matrix(.707 0 0 -.707 4323.4 150)"/></g><use xlink:href="#h" data-mml-node="mo" transform="matrix(1 0 0 -1 4727 0)"/><use xlink:href="#i" data-mml-node="mo" transform="matrix(1 0 0 -1 5393.8 0)"/><g data-mml-node="msub"><g data-mml-node="TeXAtom"><use xlink:href="#a" data-mml-node="mi" transform="matrix(1 0 0 -1 6171.8 0)"/></g><use xlink:href="#d" data-mml-node="mn" transform="matrix(.707 0 0 -.707 7002.8 150)"/></g><use xlink:href="#b" data-mml-node="mo" transform="matrix(1 0 0 -1 7406.3 0)"/><g data-mml-node="msub"><use xlink:href="#c" data-mml-node="mi" transform="matrix(1 0 0 -1 7795.3 0)"/><use xlink:href="#d" data-mml-node="mn" transform="matrix(.707 0 0 -.707 8264.3 150)"/></g><use xlink:href="#h" data-mml-node="mo" transform="matrix(1 0 0 -1 8667.9 0)"/><g data-mml-node="msub"><g data-mml-node="TeXAtom"><use xlink:href="#a" data-mml-node="mi" transform="matrix(1 0 0 -1 9056.9 0)"/></g><use xlink:href="#f" data-mml-node="mn" transform="matrix(.707 0 0 -.707 9887.9 150)"/></g><use xlink:href="#b" data-mml-node="mo" transform="matrix(1 0 0 -1 10291.4 0)"/><g data-mml-node="msub"><use xlink:href="#c" data-mml-node="mi" transform="matrix(1 0 0 -1 10680.4 0)"/><use xlink:href="#f" data-mml-node="mn" transform="matrix(.707 0 0 -.707 11149.4 150)"/></g><use xlink:href="#h" data-mml-node="mo" transform="matrix(1 0 0 -1 11553 0)"/><g data-mml-node="msub"><g data-mml-node="TeXAtom"><use xlink:href="#a" data-mml-node="mi" transform="matrix(1 0 0 -1 11942 0)"/></g><use xlink:href="#g" data-mml-node="mn" transform="matrix(.707 0 0 -.707 12773 150)"/></g><use xlink:href="#b" data-mml-node="mo" transform="matrix(1 0 0 -1 13176.5 0)"/><g data-mml-node="msub"><use xlink:href="#c" data-mml-node="mi" transform="matrix(1 0 0 -1 13565.5 0)"/><use xlink:href="#g" data-mml-node="mn" transform="matrix(.707 0 0 -.707 14034.5 150)"/></g><use xlink:href="#h" data-mml-node="mo" transform="matrix(1 0 0 -1 14438.1 0)"/></g></svg>