<svg xmlns="http://www.w3.org/2000/svg" width="400" height="15" viewBox="0 -883.9 12355.2 1168.8" xmlns:xlink="http://www.w3.org/1999/xlink"><defs><path id="a" d="M139-249h-2q-12 0-18 14v486l1 486q10 13 19 13 13 0 20-15v-970q-8-14-18-14h-2z"/><path id="b" d="M38 220q0 53 16 94t41 66 57 41 59 22 53 6q104 0 165-63l9-9 46 73h56v-582h69v-62h-9q-18 3-125 3-115 0-124-3h-9v62h69V42q-2-1-12-8t-16-9-16-9-20-9-23-6-28-5-32-2Q162-6 100 56T38 220zM287 46q81 0 130 81v174l-5 11q-14 35-43 59t-67 24q-20 0-39-7t-38-26-31-54-12-87q0-95 32-135t73-40z"/><path id="c" d="M109 429q-27 0-43 18t-16 44q0 71 53 123t132 52q91 0 152-56t62-145q0-43-20-82t-48-68-80-74q-36-31-100-92l-59-56 76-1q157 0 167 5 7 2 24 89v3h40v-3q-1-3-13-91T421 3V0H50v31q0 7 6 15t30 35q29 32 50 56 9 10 34 37t34 37 29 33 28 34 23 30 21 32 15 29 13 32 7 30 3 33q0 63-34 109t-97 46q-33 0-58-17t-35-33-10-19q0-1 5-1 18 0 37-14t19-46q0-25-16-42t-45-18z"/><path id="d" d="M56 347q0 13 14 20h637q15-8 15-20 0-11-14-19l-318-1H72q-16 5-16 20zm0-194q0 15 16 20h636q14-10 14-20 0-13-15-20H70q-14 7-14 20z"/><path id="e" d="M33 157q0 101 76 192t171 92q60 0 92-52 1 1 5 6t11 11 16 12q34 24 46 24 4 0 7-3t3-5q0-9-69-285-71-284-71-288 0-8 45-9h25q6-8 6-9t-3-18q-4-13-10-19h-13q-31 2-108 2h-88q-14 0-17-1-14 0-14 8 0 3 2 15 4 16 7 19t20 3q48 0 58 7 8 5 28 88t21 85q0 1-7-3-48-39-100-39-55 0-97 40T33 157zm319 169q-23 79-75 79-35 0-67-31t-50-81q-29-79-41-164v-11q0-8-1-12 0-45 18-62t43-18q54 0 111 72l8 11 54 217z"/><path id="f" d="M96 585q56 81 153 81 48 0 96-26t78-92q37-83 37-228 0-155-43-237-20-42-55-67t-61-31-51-7q-26 0-52 6t-61 32-55 67q-43 82-43 237 0 174 57 265zm225 12q-30 32-71 32-42 0-72-32-25-26-33-72t-8-192q0-158 8-208t36-79q28-30 69-30 40 0 68 30 29 30 36 84t8 203q0 145-8 191t-33 73z"/><path id="g" d="M56 237v13l14 20h299v150l1 150q10 13 19 13 13 0 20-15V270h298q15-8 15-20t-15-20H409V-68q-8-14-18-14h-4q-12 0-18 14v298H70q-14 7-14 20z"/><path id="h" d="M213 578l-13-5q-14-5-40-10t-58-7H83v46h19q47 2 87 15t56 24 28 22q2 3 12 3 9 0 17-6V361l1-300q7-7 12-9t24-4 62-2h26V0h-11q-21 3-159 3-136 0-157-3H88v46h64q16 0 25 1t16 3 8 2 6 5 6 4v517z"/><path id="i" d="M127 463q-27 0-42 17t-16 44q0 55 48 98t116 43q35 0 44-1 74-12 113-53t40-89q0-52-34-101t-94-71l-3-2q0-1 9-3t29-9 38-21q82-53 82-140 0-79-62-138T238-22q-80 0-138 43T42 130q0 28 18 45t45 18q28 0 46-18t18-45q0-11-3-20t-7-16-11-12-12-8-10-4-8-3l-4-1q51-45 124-45 55 0 83 53 17 33 17 101v20q0 95-64 127-15 6-61 7l-42 1-3 2q-2 3-2 16 0 18 8 18 28 0 58 5 34 5 62 42t28 112v8q0 57-35 79-22 14-47 14-32 0-59-11t-38-23-11-12h3q3-1 8-2t10-5 12-7 10-11 8-15 3-20q0-22-14-39t-45-18z"/></defs><g data-mml-node="math" stroke="currentColor" fill="currentColor" stroke-width="0"><use xlink:href="#a" data-mml-node="mo" transform="scale(1 -1)"/><g data-mml-node="TeXAtom"><use xlink:href="#a" data-mml-node="mo" transform="matrix(1 0 0 -1 278 0)"/></g><g data-mml-node="TeXAtom"><use xlink:href="#b" data-mml-node="mi" transform="matrix(1 0 0 -1 556 0)"/></g><g data-mml-node="TeXAtom"><use xlink:href="#a" data-mml-node="mo" transform="matrix(1 0 0 -1 1163 0)"/></g><g data-mml-node="msub"><g data-mml-node="TeXAtom"><use xlink:href="#a" data-mml-node="mo" transform="matrix(1 0 0 -1 1441 0)"/></g><use xlink:href="#c" data-mml-node="mn" transform="matrix(.707 0 0 -.707 1719 284.9)"/></g><use xlink:href="#d" data-mml-node="mo" transform="matrix(1 0 0 -1 2400.3 0)"/><g data-mml-node="msubsup"><use xlink:href="#e" data-mml-node="mi" transform="matrix(1 0 0 -1 3456.1 0)"/><use xlink:href="#c" data-mml-node="mn" transform="matrix(.707 0 0 -.707 3902.1 -413)"/><use xlink:href="#f" data-mml-node="mn" transform="matrix(.707 0 0 -.707 3902.1 247)"/></g><use xlink:href="#g" data-mml-node="mo" transform="matrix(1 0 0 -1 4527.9 0)"/><g data-mml-node="msubsup"><use xlink:href="#e" data-mml-node="mi" transform="matrix(1 0 0 -1 5528.1 0)"/><use xlink:href="#c" data-mml-node="mn" transform="matrix(.707 0 0 -.707 5974.1 -413)"/><use xlink:href="#h" data-mml-node="mn" transform="matrix(.707 0 0 -.707 5974.1 247)"/></g><use xlink:href="#g" data-mml-node="mo" transform="matrix(1 0 0 -1 6599.9 0)"/><g data-mml-node="msubsup"><use xlink:href="#e" data-mml-node="mi" transform="matrix(1 0 0 -1 7600.1 0)"/><use xlink:href="#c" data-mml-node="mn" transform="matrix(.707 0 0 -.707 8046.1 -413)"/><use xlink:href="#c" data-mml-node="mn" transform="matrix(.707 0 0 -.707 8046.1 247)"/></g><use xlink:href="#g" data-mml-node="mo" transform="matrix(1 0 0 -1 8671.9 0)"/><g data-mml-node="msubsup"><use xlink:href="#e" data-mml-node="mi" transform="matrix(1 0 0 -1 9672.1 0)"/><use xlink:href="#c" data-mml-node="mn" transform="matrix(.707 0 0 -.707 10118.1 -413)"/><use xlink:href="#i" data-mml-node="mn" transform="matrix(.707 0 0 -.707 10118.1 247)"/></g><use xlink:href="#d" data-mml-node="mo" transform="matrix(1 0 0 -1 10799.4 0)"/><use xlink:href="#h" data-mml-node="mn" transform="matrix(1 0 0 -1 11855.2 0)"/></g></svg>