<svg xmlns="http://www.w3.org/2000/svg" width="500" height="250" viewBox="0 -7076 19399.2 13652" xmlns:xlink="http://www.w3.org/1999/xlink"><defs><path id="a" d="M64 349q0 50 43 77t148 27q91 0 147-30t71-82q5-14 5-31t1-114V77q14-14 50-15 20 0 24-5t5-26q0-22-6-26t-38-5h-33Q375 0 367 56l-11-10Q300-6 210-6 130-6 81 30t-49 91q0 67 79 105t221 46h18v20q0 21-2 35t-11 34-31 30-58 11-54-3h-5q15-23 15-45 0-27-17-48t-53-22q-37 0-53 21t-17 44zm100-228q0-32 22-54t52-22q36 0 69 18t39 45l4 9v109h-3q-99-8-141-37t-42-68z"/><path id="b" d="M112 560l137 134 8-8q130-124 130-126l-26-29q-2 1-58 50l-53 46-55-47q-13-11-26-23t-21-19l-8-6q-2-2-15 14l-13 14z"/><path id="c" d="M213 578l-13-5q-14-5-40-10t-58-7H83v46h19q47 2 87 15t56 24 28 22q2 3 12 3 9 0 17-6V361l1-300q7-7 12-9t24-4 62-2h26V0h-11q-21 3-159 3-136 0-157-3H88v46h64q16 0 25 1t16 3 8 2 6 5 6 4v517z"/><path id="d" d="M137 305h-22l-37 15-15 39q0 35 34 62t121 27q73 0 118-32t60-76q5-14 5-31t1-115v-70q0-48 5-66t21-18q15 0 20 16t5 53v36h40v-39q-1-40-3-47-9-30-35-47T400-6t-47 18-24 42v4l-2-3q-2-3-5-6t-8-9-12-11-15-12-18-11-22-8-26-6-31-3q-60 0-108 31t-48 87q0 21 7 40t27 41 48 37 78 28 110 15h14v22q0 34-6 50-22 71-97 71-18 0-34-1t-25-4-8-3q22-15 22-44 0-25-16-39zm-11-199q0-31 24-55t59-25q38 0 67 23t39 60q2 7 3 66 0 58-1 58-8 0-21-1t-45-9-58-20-46-37-21-60z"/><path id="e" d="M201 0q-12 3-99 3-76 0-85-3h-6v46h14q23 1 42 6t29 9 25 17 18 18 21 26 20 28l46 60-58 78q-9 13-19 27t-16 21-11 15-9 12-6 7-7 6-6 3-6 2-8 2q-6 0-36 2H16v46h7q36-2 103-2 93 0 103 2h8v-46q-36-4-36-16 0-2 10-16t28-38 29-41l4-4 25 34q32 41 32 54 0 6-2 11t-5 7-5 4-7 4l-3 1h-5v46h7q15-3 99-3 79 0 85 3h6v-46h-7q-49 0-81-17-17-8-34-27t-65-84l-16-21 62-85q66-90 71-94t17-7q18-4 53-4h17V0h-14q-8 1-20 1t-25 1-25 0-18 1h-37q-26 0-50-2l-23-1h-9v46h3q11 0 22 5t11 12q0 2-40 57l-41 55q-1-1-31-42t-34-45q-4-5-4-14 0-11 7-19t18-9q2 0 2-23V0h-7z"/><path id="f" d="M69 609q0 28 18 44t44 16q23-2 40-17t17-43q0-30-17-45t-42-15q-25 0-42 15t-18 45zM247 0q-15 3-104 3h-37Q80 3 56 1L34 0h-8v46h16q28 0 49 3 9 4 11 11t2 42v191q0 52-2 66t-14 19q-14 7-47 7H30v23q0 23 2 23l10 1q10 1 28 2t36 2 36 2 29 3 11 1h3V62q5-10 12-12t35-4h23V0h-8z"/><path id="g" d="M295 316q0 40-27 69t-78 29q-36 0-62-13-30-19-30-52-1-5 0-13t16-24 43-25q18-5 44-9t44-9 32-13q17-8 33-20t32-41 17-62q0-62-38-102T198-10h-8q-52 0-96 36l-8-7-9-9Q71 4 65-1L54-11H42q-3 0-9 6v137q0 21 2 25t10 5h9q12 0 16-4t5-12 7-27 19-42q35-51 97-51 97 0 97 78 0 29-18 47-20 24-83 36t-83 23q-36 17-57 46t-21 62q0 39 17 66t43 40 50 18 44 5h11q40 0 70-15l15-8 9 7q10 9 22 17h12q3 0 9-6V310l-6-6h-28q-6 6-6 12z"/><path id="h" d="M78 370q0 24 17 42t43 18q24 0 42-16t19-43q0-25-17-43t-43-18-43 17-18 43zm0-310q0 24 17 42t43 18q24 0 42-16t19-43q0-25-17-43T139 0 96 17 78 60z"/><path id="i" d="M64 343q0 159 110 256t294 98q34 0 65-6t53-17 37-19 24-16 10-7l37 31q9 7 17 14t12 10 7 5 5 3 5 1 6 1q13 0 16-5t4-24V449q0-21-4-25t-20-5h-22q-21 0-23 17-7 62-40 109-46 73-125 87-10 2-36 2-140 0-210-81-54-65-54-210t54-210q69-81 211-81 100 0 153 60t54 125q0 11 5 14t20 3h6q15 0 20-1t8-5 3-14q0-98-86-171T469-11q-184 0-294 97T64 343z"/><path id="j" d="M94 250q0 69 10 131t23 107 37 88 38 67 42 52 33 34 25 21h17q14 0 14-9 0-3-17-21t-41-53-49-86-42-138-17-193 17-192 41-139 49-86 42-53 17-21q0-9-15-9h-16l-28 24q-94 85-137 212T94 250z"/><path id="k" d="M35 200q0 102 39 215t106 195 139 94h8q7 0 12 1 54-4 84-49 39-60 39-161 0-115-45-234T302 66 168-10h-7q-36 0-62 20T60 63t-19 67-6 70zm348 366q0 102-53 102-36 0-70-45t-56-102-34-100-13-50q49-1 97-1l97 1q1 1 8 33t16 80 8 82zM113 132q0-106 53-106 15 0 32 10t41 38 48 87 48 146l5 17H145q0-3-9-38t-16-78-7-76z"/><path id="l" d="M60 749l4 1h22l28-24q94-85 137-212t43-264q0-68-10-131T261 12t-37-88-38-67-41-51-32-33-23-19l-4-4H63q-3 0-5 3t-3 9q1 1 11 13Q221-64 221 250T66 725q-10 12-11 13 0 8 5 11z"/><path id="m" d="M56 347q0 13 14 20h637q15-8 15-20 0-11-14-19l-318-1H72q-16 5-16 20zm0-194q0 15 16 20h636q14-10 14-20 0-13-15-20H70q-14 7-14 20z"/><path id="n" d="M319-645v1799h347v-84H403V-645h-84z"/><path id="o" d="M319-644v1799h84V-560h263v-84H319z"/><path id="p" d="M319 0v602h84V0h-84z"/><path id="q" d="M96 585q56 81 153 81 48 0 96-26t78-92q37-83 37-228 0-155-43-237-20-42-55-67t-61-31-51-7q-26 0-52 6t-61 32-55 67q-43 82-43 237 0 174 57 265zm225 12q-30 32-71 32-42 0-72-32-25-26-33-72t-8-192q0-158 8-208t36-79q28-30 69-30 40 0 68 30 29 30 36 84t8 203q0 145-8 191t-33 73z"/><path id="r" d="M370 305h-21l-36 15-16 38q0 23 15 38 5 5 5 6t-10 2q-26 4-49 4-49 0-80-32-47-47-47-157 0-82 31-129 41-61 110-61 41 0 66 26t36 62q2 8 5 10t16 2h14q6-6 6-9 0-4-4-16t-16-33-29-38-48-31-69-13q-86 0-150 64T34 214q0 104 65 169t151 65 120-27 34-64q0-23-17-37z"/><path id="s" d="M28 214q0 95 65 164t157 70q90 0 155-68t66-165q0-95-64-160T250-10q-97 0-159 67T28 214zM250 30q122 0 122 163v57q0 22-1 38t-7 38-16 36-31 28-49 20q-5 1-16 1-30 0-57-12-43-22-56-61t-13-92v-20q0-96 19-135 32-61 105-61z"/><path id="t" d="M41 46h14q39 0 47 14v62q0 17 1 39t0 42v66q0 35-1 59v23q-3 19-14 25t-45 9H25v23q0 23 2 23l10 1q10 1 28 2t37 2q17 1 36 2t29 3 11 1h3v-40q0-38 1-38t5 5 12 15 19 18 29 19 38 16q20 5 51 5 114-4 127-113 1-7 1-139v-86q0-38 2-45t11-10q21-3 49-3h16V0h-8l-24 1q-23 1-50 1t-38 1Q319 3 310 0h-8v46h16q61 0 61 16 1 2 1 138-1 135-2 143-6 28-20 42t-24 17-26 2q-45 0-79-34-27-27-34-55t-8-83V108q0-30 1-40t3-13 9-6q21-3 49-3h16V0h-8l-23 1q-24 1-51 1t-38 1Q42 3 33 0h-8v46h16z"/><path id="u" d="M84 237v13l14 20h581q15-8 15-20t-15-20H98q-14 7-14 20z"/><path id="v" d="M0 1070v84h347V-645h-84v1715H0z"/><path id="w" d="M263-560v1715h84V-644H0v84h263z"/><path id="x" d="M263 0v602h84V0h-84z"/><path id="y" d="M109 429q-27 0-43 18t-16 44q0 71 53 123t132 52q91 0 152-56t62-145q0-43-20-82t-48-68-80-74q-36-31-100-92l-59-56 76-1q157 0 167 5 7 2 24 89v3h40v-3q-1-3-13-91T421 3V0H50v31q0 7 6 15t30 35q29 32 50 56 9 10 34 37t34 37 29 33 28 34 23 30 21 32 15 29 13 32 7 30 3 33q0 63-34 109t-97 46q-33 0-58-17t-35-33-10-19q0-1 5-1 18 0 37-14t19-46q0-25-16-42t-45-18z"/><path id="z" d="M127 463q-27 0-42 17t-16 44q0 55 48 98t116 43q35 0 44-1 74-12 113-53t40-89q0-52-34-101t-94-71l-3-2q0-1 9-3t29-9 38-21q82-53 82-140 0-79-62-138T238-22q-80 0-138 43T42 130q0 28 18 45t45 18q28 0 46-18t18-45q0-11-3-20t-7-16-11-12-12-8-10-4-8-3l-4-1q51-45 124-45 55 0 83 53 17 33 17 101v20q0 95-64 127-15 6-61 7l-42 1-3 2q-2 3-2 16 0 18 8 18 28 0 58 5 34 5 62 42t28 112v8q0 57-35 79-22 14-47 14-32 0-59-11t-38-23-11-12h3q3-1 8-2t10-5 12-7 10-11 8-15 3-20q0-22-14-39t-45-18z"/></defs><g data-mml-node="math" stroke="currentColor" fill="currentColor" stroke-width="0"><g data-mml-node="mtable"><g data-mml-node="mtr"><g data-mml-node="mtd"><g data-mml-node="msub"><g data-mml-node="TeXAtom"><g data-mml-node="mover"><g data-mml-node="TeXAtom"><use xlink:href="#a" data-mml-node="mi" transform="matrix(1 0 0 -1 0 -5031.3)"/></g><use xlink:href="#b" data-mml-node="mo" transform="matrix(1 0 0 -1 29.5 -5013.3)"/></g></g><use xlink:href="#c" data-mml-node="mn" transform="matrix(.707 0 0 -.707 559 -4881.3)"/></g><g data-mml-node="mtext" transform="matrix(1 0 0 -1 1962.6 -5031.3)"><use xlink:href="#d"/><use xlink:href="#e" transform="translate(500)"/><use xlink:href="#f" transform="translate(1028)"/><use xlink:href="#g" transform="translate(1306)"/></g><use xlink:href="#h" data-mml-node="mo" transform="matrix(1 0 0 -1 3940.3 -5031.3)"/><g data-mml-node="msub"><g data-mml-node="TeXAtom"><use xlink:href="#i" data-mml-node="mi" transform="matrix(1 0 0 -1 5496.1 -5031.3)"/></g><use xlink:href="#c" data-mml-node="mn" transform="matrix(.707 0 0 -.707 6327.1 -4881.3)"/></g><use xlink:href="#j" data-mml-node="mo" transform="matrix(1 0 0 -1 6730.7 -5031.3)"/><use xlink:href="#k" data-mml-node="mi" transform="matrix(1 0 0 -1 7119.7 -5031.3)"/><use xlink:href="#l" data-mml-node="mo" transform="matrix(1 0 0 -1 7588.7 -5031.3)"/><use xlink:href="#m" data-mml-node="mo" transform="matrix(1 0 0 -1 8255.4 -5031.3)"/><g data-mml-node="mrow"><g data-mml-node="mo" transform="matrix(1 0 0 -1 9311.2 -5031.3)"><use xlink:href="#n" transform="translate(104 890.7)"/><use xlink:href="#o" transform="translate(104 -900.7)"/><svg width="667" height="191.3" y="154.3" x="104" viewBox="0 47.8 667 191.3"><use xlink:href="#p" transform="scale(1 .477)"/></svg></g><g data-mml-node="mtable"><g data-mml-node="mtr"><g data-mml-node="mtd"><use xlink:href="#c" data-mml-node="mn" transform="matrix(1 0 0 -1 10186.2 -6326)"/></g><g data-mml-node="mtd"><use xlink:href="#q" data-mml-node="mn" transform="matrix(1 0 0 -1 13062.7 -6326)"/></g><g data-mml-node="mtd"><use xlink:href="#q" data-mml-node="mn" transform="matrix(1 0 0 -1 16981.7 -6326)"/></g></g><g data-mml-node="mtr"><g data-mml-node="mtd"><use xlink:href="#q" data-mml-node="mn" transform="matrix(1 0 0 -1 10186.2 -5031.3)"/></g><g data-mml-node="mtd"><g data-mml-node="mtext" transform="matrix(1 0 0 -1 12020.2 -5031.3)"><use xlink:href="#r"/><use xlink:href="#s" transform="translate(444)"/><use xlink:href="#g" transform="translate(944)"/></g><use xlink:href="#j" data-mml-node="mo" transform="matrix(1 0 0 -1 13358.2 -5031.3)"/><use xlink:href="#k" data-mml-node="mi" transform="matrix(1 0 0 -1 13747.2 -5031.3)"/><use xlink:href="#l" data-mml-node="mo" transform="matrix(1 0 0 -1 14216.2 -5031.3)"/></g><g data-mml-node="mtd"><g data-mml-node="mtext" transform="matrix(1 0 0 -1 15994.2 -5031.3)"><use xlink:href="#g"/><use xlink:href="#f" transform="translate(394)"/><use xlink:href="#t" transform="translate(672)"/></g><use xlink:href="#j" data-mml-node="mo" transform="matrix(1 0 0 -1 17222.2 -5031.3)"/><use xlink:href="#k" data-mml-node="mi" transform="matrix(1 0 0 -1 17611.2 -5031.3)"/><use xlink:href="#l" data-mml-node="mo" transform="matrix(1 0 0 -1 18080.2 -5031.3)"/></g></g><g data-mml-node="mtr"><g data-mml-node="mtd"><use xlink:href="#q" data-mml-node="mn" transform="matrix(1 0 0 -1 10186.2 -3736.6)"/></g><g data-mml-node="mtd"><use xlink:href="#u" data-mml-node="mo" transform="matrix(1 0 0 -1 11686.2 -3736.6)"/><g data-mml-node="mtext" transform="matrix(1 0 0 -1 12464.2 -3736.6)"><use xlink:href="#g"/><use xlink:href="#f" transform="translate(394)"/><use xlink:href="#t" transform="translate(672)"/></g><use xlink:href="#j" data-mml-node="mo" transform="matrix(1 0 0 -1 13692.2 -3736.6)"/><use xlink:href="#k" data-mml-node="mi" transform="matrix(1 0 0 -1 14081.2 -3736.6)"/><use xlink:href="#l" data-mml-node="mo" transform="matrix(1 0 0 -1 14550.2 -3736.6)"/></g><g data-mml-node="mtd"><g data-mml-node="mtext" transform="matrix(1 0 0 -1 15939.2 -3736.6)"><use xlink:href="#r"/><use xlink:href="#s" transform="translate(444)"/><use xlink:href="#g" transform="translate(944)"/></g><use xlink:href="#j" data-mml-node="mo" transform="matrix(1 0 0 -1 17277.2 -3736.6)"/><use xlink:href="#k" data-mml-node="mi" transform="matrix(1 0 0 -1 17666.2 -3736.6)"/><use xlink:href="#l" data-mml-node="mo" transform="matrix(1 0 0 -1 18135.2 -3736.6)"/></g></g></g><g data-mml-node="mo" transform="matrix(1 0 0 -1 18524.2 -5031.3)"><use xlink:href="#v" transform="translate(104 890.7)"/><use xlink:href="#w" transform="translate(104 -900.7)"/><svg width="667" height="191.3" y="154.3" x="104" viewBox="0 47.8 667 191.3"><use xlink:href="#x" transform="scale(1 .477)"/></svg></g></g></g></g><g data-mml-node="mtr"><g data-mml-node="mtd"><g data-mml-node="msub"><g data-mml-node="TeXAtom"><g data-mml-node="mover"><g data-mml-node="TeXAtom"><use xlink:href="#a" data-mml-node="mi" transform="scale(1 -1)"/></g><use xlink:href="#b" data-mml-node="mo" transform="matrix(1 0 0 -1 29.5 18)"/></g></g><use xlink:href="#y" data-mml-node="mn" transform="matrix(.707 0 0 -.707 559 150)"/></g><g data-mml-node="mtext" transform="matrix(1 0 0 -1 1962.6 0)"><use xlink:href="#d"/><use xlink:href="#e" transform="translate(500)"/><use xlink:href="#f" transform="translate(1028)"/><use xlink:href="#g" transform="translate(1306)"/></g><use xlink:href="#h" data-mml-node="mo" transform="matrix(1 0 0 -1 3940.3 0)"/><g data-mml-node="msub"><g data-mml-node="TeXAtom"><use xlink:href="#i" data-mml-node="mi" transform="matrix(1 0 0 -1 5496.1 0)"/></g><use xlink:href="#y" data-mml-node="mn" transform="matrix(.707 0 0 -.707 6327.1 150)"/></g><use xlink:href="#j" data-mml-node="mo" transform="matrix(1 0 0 -1 6730.7 0)"/><use xlink:href="#k" data-mml-node="mi" transform="matrix(1 0 0 -1 7119.7 0)"/><use xlink:href="#l" data-mml-node="mo" transform="matrix(1 0 0 -1 7588.7 0)"/><use xlink:href="#m" data-mml-node="mo" transform="matrix(1 0 0 -1 8255.4 0)"/><g data-mml-node="mrow"><g data-mml-node="mo" transform="matrix(1 0 0 -1 9311.2 0)"><use xlink:href="#n" transform="translate(104 890.7)"/><use xlink:href="#o" transform="translate(104 -900.7)"/><svg width="667" height="191.3" y="154.3" x="104" viewBox="0 47.8 667 191.3"><use xlink:href="#p" transform="scale(1 .477)"/></svg></g><g data-mml-node="mtable"><g data-mml-node="mtr"><g data-mml-node="mtd"><g data-mml-node="mtext" transform="matrix(1 0 0 -1 10520.2 -1294.7)"><use xlink:href="#r"/><use xlink:href="#s" transform="translate(444)"/><use xlink:href="#g" transform="translate(944)"/></g><use xlink:href="#j" data-mml-node="mo" transform="matrix(1 0 0 -1 11858.2 -1294.7)"/><use xlink:href="#k" data-mml-node="mi" transform="matrix(1 0 0 -1 12247.2 -1294.7)"/><use xlink:href="#l" data-mml-node="mo" transform="matrix(1 0 0 -1 12716.2 -1294.7)"/></g><g data-mml-node="mtd"><use xlink:href="#q" data-mml-node="mn" transform="matrix(1 0 0 -1 14439.2 -1294.7)"/></g><g data-mml-node="mtd"><g data-mml-node="mtext" transform="matrix(1 0 0 -1 15994.2 -1294.7)"><use xlink:href="#g"/><use xlink:href="#f" transform="translate(394)"/><use xlink:href="#t" transform="translate(672)"/></g><use xlink:href="#j" data-mml-node="mo" transform="matrix(1 0 0 -1 17222.2 -1294.7)"/><use xlink:href="#k" data-mml-node="mi" transform="matrix(1 0 0 -1 17611.2 -1294.7)"/><use xlink:href="#l" data-mml-node="mo" transform="matrix(1 0 0 -1 18080.2 -1294.7)"/></g></g><g data-mml-node="mtr"><g data-mml-node="mtd"><use xlink:href="#q" data-mml-node="mn" transform="matrix(1 0 0 -1 11562.7 0)"/></g><g data-mml-node="mtd"><use xlink:href="#c" data-mml-node="mn" transform="matrix(1 0 0 -1 14439.2 0)"/></g><g data-mml-node="mtd"><use xlink:href="#q" data-mml-node="mn" transform="matrix(1 0 0 -1 16981.7 0)"/></g></g><g data-mml-node="mtr"><g data-mml-node="mtd"><use xlink:href="#u" data-mml-node="mo" transform="matrix(1 0 0 -1 10186.2 1294.7)"/><g data-mml-node="mtext" transform="matrix(1 0 0 -1 10964.2 1294.7)"><use xlink:href="#g"/><use xlink:href="#f" transform="translate(394)"/><use xlink:href="#t" transform="translate(672)"/></g><use xlink:href="#j" data-mml-node="mo" transform="matrix(1 0 0 -1 12192.2 1294.7)"/><use xlink:href="#k" data-mml-node="mi" transform="matrix(1 0 0 -1 12581.2 1294.7)"/><use xlink:href="#l" data-mml-node="mo" transform="matrix(1 0 0 -1 13050.2 1294.7)"/></g><g data-mml-node="mtd"><use xlink:href="#q" data-mml-node="mn" transform="matrix(1 0 0 -1 14439.2 1294.7)"/></g><g data-mml-node="mtd"><g data-mml-node="mtext" transform="matrix(1 0 0 -1 15939.2 1294.7)"><use xlink:href="#r"/><use xlink:href="#s" transform="translate(444)"/><use xlink:href="#g" transform="translate(944)"/></g><use xlink:href="#j" data-mml-node="mo" transform="matrix(1 0 0 -1 17277.2 1294.7)"/><use xlink:href="#k" data-mml-node="mi" transform="matrix(1 0 0 -1 17666.2 1294.7)"/><use xlink:href="#l" data-mml-node="mo" transform="matrix(1 0 0 -1 18135.2 1294.7)"/></g></g></g><g data-mml-node="mo" transform="matrix(1 0 0 -1 18524.2 0)"><use xlink:href="#v" transform="translate(104 890.7)"/><use xlink:href="#w" transform="translate(104 -900.7)"/><svg width="667" height="191.3" y="154.3" x="104" viewBox="0 47.8 667 191.3"><use xlink:href="#x" transform="scale(1 .477)"/></svg></g></g></g></g><g data-mml-node="mtr"><g data-mml-node="mtd"><g data-mml-node="msub"><g data-mml-node="TeXAtom"><g data-mml-node="mover"><g data-mml-node="TeXAtom"><use xlink:href="#a" data-mml-node="mi" transform="matrix(1 0 0 -1 0 5031.3)"/></g><use xlink:href="#b" data-mml-node="mo" transform="matrix(1 0 0 -1 29.5 5049.3)"/></g></g><use xlink:href="#z" data-mml-node="mn" transform="matrix(.707 0 0 -.707 559 5181.3)"/></g><g data-mml-node="mtext" transform="matrix(1 0 0 -1 1962.6 5031.3)"><use xlink:href="#d"/><use xlink:href="#e" transform="translate(500)"/><use xlink:href="#f" transform="translate(1028)"/><use xlink:href="#g" transform="translate(1306)"/></g><use xlink:href="#h" data-mml-node="mo" transform="matrix(1 0 0 -1 3940.3 5031.3)"/><g data-mml-node="msub"><g data-mml-node="TeXAtom"><use xlink:href="#i" data-mml-node="mi" transform="matrix(1 0 0 -1 5496.1 5031.3)"/></g><use xlink:href="#z" data-mml-node="mn" transform="matrix(.707 0 0 -.707 6327.1 5181.3)"/></g><use xlink:href="#j" data-mml-node="mo" transform="matrix(1 0 0 -1 6730.7 5031.3)"/><use xlink:href="#k" data-mml-node="mi" transform="matrix(1 0 0 -1 7119.7 5031.3)"/><use xlink:href="#l" data-mml-node="mo" transform="matrix(1 0 0 -1 7588.7 5031.3)"/><use xlink:href="#m" data-mml-node="mo" transform="matrix(1 0 0 -1 8255.4 5031.3)"/><g data-mml-node="mrow"><g data-mml-node="mo" transform="matrix(1 0 0 -1 9311.2 5031.3)"><use xlink:href="#n" transform="translate(104 890.7)"/><use xlink:href="#o" transform="translate(104 -900.7)"/><svg width="667" height="191.3" y="154.3" x="104" viewBox="0 47.8 667 191.3"><use xlink:href="#p" transform="scale(1 .477)"/></svg></g><g data-mml-node="mtable"><g data-mml-node="mtr"><g data-mml-node="mtd"><g data-mml-node="mtext" transform="matrix(1 0 0 -1 10520.2 3736.6)"><use xlink:href="#r"/><use xlink:href="#s" transform="translate(444)"/><use xlink:href="#g" transform="translate(944)"/></g><use xlink:href="#j" data-mml-node="mo" transform="matrix(1 0 0 -1 11858.2 3736.6)"/><use xlink:href="#k" data-mml-node="mi" transform="matrix(1 0 0 -1 12247.2 3736.6)"/><use xlink:href="#l" data-mml-node="mo" transform="matrix(1 0 0 -1 12716.2 3736.6)"/></g><g data-mml-node="mtd"><g data-mml-node="mtext" transform="matrix(1 0 0 -1 14494.2 3736.6)"><use xlink:href="#g"/><use xlink:href="#f" transform="translate(394)"/><use xlink:href="#t" transform="translate(672)"/></g><use xlink:href="#j" data-mml-node="mo" transform="matrix(1 0 0 -1 15722.2 3736.6)"/><use xlink:href="#k" data-mml-node="mi" transform="matrix(1 0 0 -1 16111.2 3736.6)"/><use xlink:href="#l" data-mml-node="mo" transform="matrix(1 0 0 -1 16580.2 3736.6)"/></g><g data-mml-node="mtd"><use xlink:href="#q" data-mml-node="mn" transform="matrix(1 0 0 -1 18024.2 3736.6)"/></g></g><g data-mml-node="mtr"><g data-mml-node="mtd"><use xlink:href="#u" data-mml-node="mo" transform="matrix(1 0 0 -1 10186.2 5031.3)"/><g data-mml-node="mtext" transform="matrix(1 0 0 -1 10964.2 5031.3)"><use xlink:href="#g"/><use xlink:href="#f" transform="translate(394)"/><use xlink:href="#t" transform="translate(672)"/></g><use xlink:href="#j" data-mml-node="mo" transform="matrix(1 0 0 -1 12192.2 5031.3)"/><use xlink:href="#k" data-mml-node="mi" transform="matrix(1 0 0 -1 12581.2 5031.3)"/><use xlink:href="#l" data-mml-node="mo" transform="matrix(1 0 0 -1 13050.2 5031.3)"/></g><g data-mml-node="mtd"><g data-mml-node="mtext" transform="matrix(1 0 0 -1 14439.2 5031.3)"><use xlink:href="#r"/><use xlink:href="#s" transform="translate(444)"/><use xlink:href="#g" transform="translate(944)"/></g><use xlink:href="#j" data-mml-node="mo" transform="matrix(1 0 0 -1 15777.2 5031.3)"/><use xlink:href="#k" data-mml-node="mi" transform="matrix(1 0 0 -1 16166.2 5031.3)"/><use xlink:href="#l" data-mml-node="mo" transform="matrix(1 0 0 -1 16635.2 5031.3)"/></g><g data-mml-node="mtd"><use xlink:href="#q" data-mml-node="mn" transform="matrix(1 0 0 -1 18024.2 5031.3)"/></g></g><g data-mml-node="mtr"><g data-mml-node="mtd"><use xlink:href="#q" data-mml-node="mn" transform="matrix(1 0 0 -1 11562.7 6326)"/></g><g data-mml-node="mtd"><use xlink:href="#q" data-mml-node="mn" transform="matrix(1 0 0 -1 15481.7 6326)"/></g><g data-mml-node="mtd"><use xlink:href="#c" data-mml-node="mn" transform="matrix(1 0 0 -1 18024.2 6326)"/></g></g></g><g data-mml-node="mo" transform="matrix(1 0 0 -1 18524.2 5031.3)"><use xlink:href="#v" transform="translate(104 890.7)"/><use xlink:href="#w" transform="translate(104 -900.7)"/><svg width="667" height="191.3" y="154.3" x="104" viewBox="0 47.8 667 191.3"><use xlink:href="#x" transform="scale(1 .477)"/></svg></g></g></g></g></g></g></svg>