<svg xmlns="http://www.w3.org/2000/svg" width="400" height="15" viewBox="0 -1017 10100.3 1182.6" xmlns:xlink="http://www.w3.org/1999/xlink"><defs><path id="a" d="M32 686l91 4q91 4 92 4h6V409q68 41 157 41 101 0 161-63t61-166q0-99-65-163T358-6h-3q-83 0-152 59L160 1l-31-1H98v435q0 73 1 90 0 66-2 79t-14 16q-14 4-41 4H29v62h3zm195-581l5-6 10-12q5-6 16-14t22-14 26-10 33-4q41 0 72 21t40 65q6 29 6 99 0 34-1 54t-8 45-18 38-34 22-53 9q-61 0-108-43l-8-7V105z"/><path id="b" d="M112 560l137 134 8-8q130-124 130-126l-26-29q-2 1-58 50l-53 46-55-47q-13-11-26-23t-21-19l-8-6q-2-2-15 14l-13 14z"/><path id="c" d="M213 578l-13-5q-14-5-40-10t-58-7H83v46h19q47 2 87 15t56 24 28 22q2 3 12 3 9 0 17-6V361l1-300q7-7 12-9t24-4 62-2h26V0h-11q-21 3-159 3-136 0-157-3H88v46h64q16 0 25 1t16 3 8 2 6 5 6 4v517z"/><path id="d" d="M56 347q0 13 14 20h637q15-8 15-20 0-11-14-19l-318-1H72q-16 5-16 20zm0-194q0 15 16 20h636q14-10 14-20 0-13-15-20H70q-14 7-14 20z"/><path id="e" d="M73 647q0 10 4 23t12 13q1 0 72 5t73 6q12 0 12-9t-34-143q-8-34-17-70t-15-54l-4-19q0-3 6 3 49 40 101 40 62 0 100-46t39-116q0-111-79-201T173-11q-50 0-91 38T40 150v9q0 21 8 58t49 197q50 197 50 209t-38 14H83q-3 0-7 3t-3 7zm263-322v6q0 74-61 74-17 0-35-8t-33-21-26-24-18-22l-6-8-21-86q-22-86-22-122 0-48 24-72 16-16 40-16 33 0 67 32 25 23 40 56t33 105q18 72 18 106z"/><path id="f" d="M64 349q0 50 43 77t148 27q91 0 147-30t71-82q5-14 5-31t1-114V77q14-14 50-15 20 0 24-5t5-26q0-22-6-26t-38-5h-33Q375 0 367 56l-11-10Q300-6 210-6 130-6 81 30t-49 91q0 67 79 105t221 46h18v20q0 21-2 35t-11 34-31 30-58 11-54-3h-5q15-23 15-45 0-27-17-48t-53-22q-37 0-53 21t-17 44zm100-228q0-32 22-54t52-22q36 0 69 18t39 45l4 9v109h-3q-99-8-141-37t-42-68z"/><path id="g" d="M56 237v13l14 20h299v150l1 150q10 13 19 13 13 0 20-15V270h298q15-8 15-20t-15-20H409V-68q-8-14-18-14h-4q-12 0-18 14v298H70q-14 7-14 20z"/><path id="h" d="M109 429q-27 0-43 18t-16 44q0 71 53 123t132 52q91 0 152-56t62-145q0-43-20-82t-48-68-80-74q-36-31-100-92l-59-56 76-1q157 0 167 5 7 2 24 89v3h40v-3q-1-3-13-91T421 3V0H50v31q0 7 6 15t30 35q29 32 50 56 9 10 34 37t34 37 29 33 28 34 23 30 21 32 15 29 13 32 7 30 3 33q0 63-34 109t-97 46q-33 0-58-17t-35-33-10-19q0-1 5-1 18 0 37-14t19-46q0-25-16-42t-45-18z"/><path id="i" d="M127 463q-27 0-42 17t-16 44q0 55 48 98t116 43q35 0 44-1 74-12 113-53t40-89q0-52-34-101t-94-71l-3-2q0-1 9-3t29-9 38-21q82-53 82-140 0-79-62-138T238-22q-80 0-138 43T42 130q0 28 18 45t45 18q28 0 46-18t18-45q0-11-3-20t-7-16-11-12-12-8-10-4-8-3l-4-1q51-45 124-45 55 0 83 53 17 33 17 101v20q0 95-64 127-15 6-61 7l-42 1-3 2q-2 3-2 16 0 18 8 18 28 0 58 5 34 5 62 42t28 112v8q0 57-35 79-22 14-47 14-32 0-59-11t-38-23-11-12h3q3-1 8-2t10-5 12-7 10-11 8-15 3-20q0-22-14-39t-45-18z"/></defs><g data-mml-node="math" stroke="currentColor" fill="currentColor" stroke-width="0"><g data-mml-node="msub"><g data-mml-node="TeXAtom"><g data-mml-node="mover"><g data-mml-node="TeXAtom"><use xlink:href="#a" data-mml-node="mi" transform="scale(1 -1)"/></g><use xlink:href="#b" data-mml-node="mo" transform="matrix(1 0 0 -1 69.5 -223)"/></g></g><use xlink:href="#c" data-mml-node="mn" transform="matrix(.707 0 0 -.707 639 150)"/></g><use xlink:href="#d" data-mml-node="mo" transform="matrix(1 0 0 -1 1042.6 0)"/><g data-mml-node="msub"><use xlink:href="#e" data-mml-node="mi" transform="matrix(1 0 0 -1 2098.3 0)"/><g data-mml-node="TeXAtom"><g data-mml-node="mn" transform="matrix(.707 0 0 -.707 2527.3 150)"><use xlink:href="#c"/><use xlink:href="#c" transform="translate(500)"/></g></g></g><g data-mml-node="msub"><g data-mml-node="TeXAtom"><g data-mml-node="mover"><g data-mml-node="TeXAtom"><use xlink:href="#f" data-mml-node="mi" transform="matrix(1 0 0 -1 3284.4 0)"/></g><use xlink:href="#b" data-mml-node="mo" transform="matrix(1 0 0 -1 3313.9 18)"/></g></g><use xlink:href="#c" data-mml-node="mn" transform="matrix(.707 0 0 -.707 3843.4 150)"/></g><use xlink:href="#g" data-mml-node="mo" transform="matrix(1 0 0 -1 4247 0)"/><g data-mml-node="msub"><use xlink:href="#e" data-mml-node="mi" transform="matrix(1 0 0 -1 5025 0)"/><g data-mml-node="TeXAtom"><g data-mml-node="mn" transform="matrix(.707 0 0 -.707 5454 150)"><use xlink:href="#c"/><use xlink:href="#h" transform="translate(500)"/></g></g></g><g data-mml-node="msub"><g data-mml-node="TeXAtom"><g data-mml-node="mover"><g data-mml-node="TeXAtom"><use xlink:href="#f" data-mml-node="mi" transform="matrix(1 0 0 -1 6211.1 0)"/></g><use xlink:href="#b" data-mml-node="mo" transform="matrix(1 0 0 -1 6240.6 18)"/></g></g><use xlink:href="#h" data-mml-node="mn" transform="matrix(.707 0 0 -.707 6770.1 150)"/></g><use xlink:href="#g" data-mml-node="mo" transform="matrix(1 0 0 -1 7173.7 0)"/><g data-mml-node="msub"><use xlink:href="#e" data-mml-node="mi" transform="matrix(1 0 0 -1 7951.7 0)"/><g data-mml-node="TeXAtom"><g data-mml-node="mn" transform="matrix(.707 0 0 -.707 8380.7 150)"><use xlink:href="#c"/><use xlink:href="#i" transform="translate(500)"/></g></g></g><g data-mml-node="msub"><g data-mml-node="TeXAtom"><g data-mml-node="mover"><g data-mml-node="TeXAtom"><use xlink:href="#f" data-mml-node="mi" transform="matrix(1 0 0 -1 9137.8 0)"/></g><use xlink:href="#b" data-mml-node="mo" transform="matrix(1 0 0 -1 9167.3 18)"/></g></g><use xlink:href="#i" data-mml-node="mn" transform="matrix(.707 0 0 -.707 9696.8 150)"/></g></g></svg>