<svg xmlns="http://www.w3.org/2000/svg" width="450" height="65" viewBox="0 -2250.8 28496.2 4001.6" xmlns:xlink="http://www.w3.org/1999/xlink"><defs><path id="a" d="M64 343q0 159 110 256t294 98q34 0 65-6t53-17 37-19 24-16 10-7l37 31q9 7 17 14t12 10 7 5 5 3 5 1 6 1q13 0 16-5t4-24V449q0-21-4-25t-20-5h-22q-21 0-23 17-7 62-40 109-46 73-125 87-10 2-36 2-140 0-210-81-54-65-54-210t54-210q69-81 211-81 100 0 153 60t54 125q0 11 5 14t20 3h6q15 0 20-1t8-5 3-14q0-98-86-171T469-11q-184 0-294 97T64 343z"/><path id="b" d="M94 250q0 69 10 131t23 107 37 88 38 67 42 52 33 34 25 21h17q14 0 14-9 0-3-17-21t-41-53-49-86-42-138-17-193 17-192 41-139 49-86 42-53 17-21q0-9-15-9h-16l-28 24q-94 85-137 212T94 250z"/><path id="c" d="M38 220q0 53 16 94t41 66 57 41 59 22 53 6q104 0 165-63l9-9 46 73h56v-582h69v-62h-9q-18 3-125 3-115 0-124-3h-9v62h69V42q-2-1-12-8t-16-9-16-9-20-9-23-6-28-5-32-2Q162-6 100 56T38 220zM287 46q81 0 130 81v174l-5 11q-14 35-43 59t-67 24q-20 0-39-7t-38-26-31-54-12-87q0-95 32-135t73-40z"/><path id="d" d="M60 749l4 1h22l28-24q94-85 137-212t43-264q0-68-10-131T261 12t-37-88-38-67-41-51-32-33-23-19l-4-4H63q-3 0-5 3t-3 9q1 1 11 13Q221-64 221 250T66 725q-10 12-11 13 0 8 5 11z"/><path id="e" d="M56 347q0 13 14 20h637q15-8 15-20 0-11-14-19l-318-1H72q-16 5-16 20zm0-194q0 15 16 20h636q14-10 14-20 0-13-15-20H70q-14 7-14 20z"/><path id="f" d="M319-645v1799h347v-84H403V-645h-84z"/><path id="g" d="M319-644v1799h84V-560h263v-84H319z"/><path id="h" d="M319 0v602h84V0h-84z"/><path id="i" d="M33 157q0 101 76 192t171 92q60 0 92-52 1 1 5 6t11 11 16 12q34 24 46 24 4 0 7-3t3-5q0-9-69-285-71-284-71-288 0-8 45-9h25q6-8 6-9t-3-18q-4-13-10-19h-13q-31 2-108 2h-88q-14 0-17-1-14 0-14 8 0 3 2 15 4 16 7 19t20 3q48 0 58 7 8 5 28 88t21 85q0 1-7-3-48-39-100-39-55 0-97 40T33 157zm319 169q-23 79-75 79-35 0-67-31t-50-81q-29-79-41-164v-11q0-8-1-12 0-45 18-62t43-18q54 0 111 72l8 11 54 217z"/><path id="j" d="M109 429q-27 0-43 18t-16 44q0 71 53 123t132 52q91 0 152-56t62-145q0-43-20-82t-48-68-80-74q-36-31-100-92l-59-56 76-1q157 0 167 5 7 2 24 89v3h40v-3q-1-3-13-91T421 3V0H50v31q0 7 6 15t30 35q29 32 50 56 9 10 34 37t34 37 29 33 28 34 23 30 21 32 15 29 13 32 7 30 3 33q0 63-34 109t-97 46q-33 0-58-17t-35-33-10-19q0-1 5-1 18 0 37-14t19-46q0-25-16-42t-45-18z"/><path id="k" d="M96 585q56 81 153 81 48 0 96-26t78-92q37-83 37-228 0-155-43-237-20-42-55-67t-61-31-51-7q-26 0-52 6t-61 32-55 67q-43 82-43 237 0 174 57 265zm225 12q-30 32-71 32-42 0-72-32-25-26-33-72t-8-192q0-158 8-208t36-79q28-30 69-30 40 0 68 30 29 30 36 84t8 203q0 145-8 191t-33 73z"/><path id="l" d="M56 237v13l14 20h299v150l1 150q10 13 19 13 13 0 20-15V270h298q15-8 15-20t-15-20H409V-68q-8-14-18-14h-4q-12 0-18 14v298H70q-14 7-14 20z"/><path id="m" d="M213 578l-13-5q-14-5-40-10t-58-7H83v46h19q47 2 87 15t56 24 28 22q2 3 12 3 9 0 17-6V361l1-300q7-7 12-9t24-4 62-2h26V0h-11q-21 3-159 3-136 0-157-3H88v46h64q16 0 25 1t16 3 8 2 6 5 6 4v517z"/><path id="n" d="M84 237v13l14 20h581q15-8 15-20t-15-20H98q-14 7-14 20z"/><path id="o" d="M127 463q-27 0-42 17t-16 44q0 55 48 98t116 43q35 0 44-1 74-12 113-53t40-89q0-52-34-101t-94-71l-3-2q0-1 9-3t29-9 38-21q82-53 82-140 0-79-62-138T238-22q-80 0-138 43T42 130q0 28 18 45t45 18q28 0 46-18t18-45q0-11-3-20t-7-16-11-12-12-8-10-4-8-3l-4-1q51-45 124-45 55 0 83 53 17 33 17 101v20q0 95-64 127-15 6-61 7l-42 1-3 2q-2 3-2 16 0 18 8 18 28 0 58 5 34 5 62 42t28 112v8q0 57-35 79-22 14-47 14-32 0-59-11t-38-23-11-12h3q3-1 8-2t10-5 12-7 10-11 8-15 3-20q0-22-14-39t-45-18z"/><path id="p" d="M0 1070v84h347V-645h-84v1715H0z"/><path id="q" d="M263-560v1715h84V-644H0v84h263z"/><path id="r" d="M263 0v602h84V0h-84z"/></defs><g data-mml-node="math" stroke="currentColor" fill="currentColor" stroke-width="0"><g data-mml-node="TeXAtom"><use xlink:href="#a" data-mml-node="mi" transform="scale(1 -1)"/></g><use xlink:href="#b" data-mml-node="mo" transform="matrix(1 0 0 -1 831 0)"/><g data-mml-node="TeXAtom"><use xlink:href="#c" data-mml-node="mi" transform="matrix(1 0 0 -1 1220 0)"/></g><use xlink:href="#d" data-mml-node="mo" transform="matrix(1 0 0 -1 1827 0)"/><use xlink:href="#e" data-mml-node="mo" transform="matrix(1 0 0 -1 2493.8 0)"/><g data-mml-node="mrow"><g data-mml-node="mo" transform="matrix(1 0 0 -1 3549.6 0)"><use xlink:href="#f" transform="translate(104 1096.8)"/><use xlink:href="#g" transform="translate(104 -1106.8)"/><svg width="667" height="603.6" y="-51.8" x="104" viewBox="0 150.9 667 603.6"><use xlink:href="#h" transform="scale(1 1.504)"/></svg></g><g data-mml-node="mtable"><g data-mml-node="mtr"><g data-mml-node="mtd"><g data-mml-node="msubsup"><use xlink:href="#i" data-mml-node="mi" transform="matrix(1 0 0 -1 4424.6 -1416.9)"/><use xlink:href="#j" data-mml-node="mn" transform="matrix(.707 0 0 -.707 4870.6 -1779.9)"/><use xlink:href="#k" data-mml-node="mn" transform="matrix(.707 0 0 -.707 4870.6 -1129)"/></g><use xlink:href="#l" data-mml-node="mo" transform="matrix(1 0 0 -1 5496.4 -1416.9)"/><g data-mml-node="msubsup"><use xlink:href="#i" data-mml-node="mi" transform="matrix(1 0 0 -1 6496.6 -1416.9)"/><use xlink:href="#j" data-mml-node="mn" transform="matrix(.707 0 0 -.707 6942.6 -1779.9)"/><use xlink:href="#m" data-mml-node="mn" transform="matrix(.707 0 0 -.707 6942.6 -1129)"/></g><use xlink:href="#n" data-mml-node="mo" transform="matrix(1 0 0 -1 7568.4 -1416.9)"/><g data-mml-node="msubsup"><use xlink:href="#i" data-mml-node="mi" transform="matrix(1 0 0 -1 8568.6 -1416.9)"/><use xlink:href="#j" data-mml-node="mn" transform="matrix(.707 0 0 -.707 9014.6 -1779.9)"/><use xlink:href="#j" data-mml-node="mn" transform="matrix(.707 0 0 -.707 9014.6 -1129)"/></g><use xlink:href="#n" data-mml-node="mo" transform="matrix(1 0 0 -1 9640.4 -1416.9)"/><g data-mml-node="msubsup"><use xlink:href="#i" data-mml-node="mi" transform="matrix(1 0 0 -1 10640.6 -1416.9)"/><use xlink:href="#j" data-mml-node="mn" transform="matrix(.707 0 0 -.707 11086.6 -1779.9)"/><use xlink:href="#o" data-mml-node="mn" transform="matrix(.707 0 0 -.707 11086.6 -1129.7)"/></g></g><g data-mml-node="mtd"><use xlink:href="#j" data-mml-node="mn" transform="matrix(1 0 0 -1 13073.6 -1416.9)"/><use xlink:href="#b" data-mml-node="mo" transform="matrix(1 0 0 -1 13573.6 -1416.9)"/><g data-mml-node="msub"><use xlink:href="#i" data-mml-node="mi" transform="matrix(1 0 0 -1 13962.6 -1416.9)"/><use xlink:href="#m" data-mml-node="mn" transform="matrix(.707 0 0 -.707 14408.6 -1266.9)"/></g><g data-mml-node="msub"><use xlink:href="#i" data-mml-node="mi" transform="matrix(1 0 0 -1 14812.2 -1416.9)"/><use xlink:href="#j" data-mml-node="mn" transform="matrix(.707 0 0 -.707 15258.2 -1266.9)"/></g><use xlink:href="#l" data-mml-node="mo" transform="matrix(1 0 0 -1 15883.9 -1416.9)"/><g data-mml-node="msub"><use xlink:href="#i" data-mml-node="mi" transform="matrix(1 0 0 -1 16884.2 -1416.9)"/><use xlink:href="#k" data-mml-node="mn" transform="matrix(.707 0 0 -.707 17330.2 -1266.9)"/></g><g data-mml-node="msub"><use xlink:href="#i" data-mml-node="mi" transform="matrix(1 0 0 -1 17733.7 -1416.9)"/><use xlink:href="#o" data-mml-node="mn" transform="matrix(.707 0 0 -.707 18179.7 -1266.9)"/></g><use xlink:href="#d" data-mml-node="mo" transform="matrix(1 0 0 -1 18583.3 -1416.9)"/></g><g data-mml-node="mtd"><use xlink:href="#j" data-mml-node="mn" transform="matrix(1 0 0 -1 21139.1 -1416.9)"/><use xlink:href="#b" data-mml-node="mo" transform="matrix(1 0 0 -1 21639.1 -1416.9)"/><g data-mml-node="msub"><use xlink:href="#i" data-mml-node="mi" transform="matrix(1 0 0 -1 22028.1 -1416.9)"/><use xlink:href="#m" data-mml-node="mn" transform="matrix(.707 0 0 -.707 22474.1 -1266.9)"/></g><g data-mml-node="msub"><use xlink:href="#i" data-mml-node="mi" transform="matrix(1 0 0 -1 22877.7 -1416.9)"/><use xlink:href="#o" data-mml-node="mn" transform="matrix(.707 0 0 -.707 23323.7 -1266.9)"/></g><use xlink:href="#n" data-mml-node="mo" transform="matrix(1 0 0 -1 23949.4 -1416.9)"/><g data-mml-node="msub"><use xlink:href="#i" data-mml-node="mi" transform="matrix(1 0 0 -1 24949.7 -1416.9)"/><use xlink:href="#k" data-mml-node="mn" transform="matrix(.707 0 0 -.707 25395.7 -1266.9)"/></g><g data-mml-node="msub"><use xlink:href="#i" data-mml-node="mi" transform="matrix(1 0 0 -1 25799.2 -1416.9)"/><use xlink:href="#j" data-mml-node="mn" transform="matrix(.707 0 0 -.707 26245.2 -1266.9)"/></g><use xlink:href="#d" data-mml-node="mo" transform="matrix(1 0 0 -1 26648.8 -1416.9)"/></g></g><g data-mml-node="mtr"><g data-mml-node="mtd"><use xlink:href="#j" data-mml-node="mn" transform="matrix(1 0 0 -1 5008 15.2)"/><use xlink:href="#b" data-mml-node="mo" transform="matrix(1 0 0 -1 5508 15.2)"/><g data-mml-node="msub"><use xlink:href="#i" data-mml-node="mi" transform="matrix(1 0 0 -1 5897 15.2)"/><use xlink:href="#m" data-mml-node="mn" transform="matrix(.707 0 0 -.707 6343 165.2)"/></g><g data-mml-node="msub"><use xlink:href="#i" data-mml-node="mi" transform="matrix(1 0 0 -1 6746.6 15.2)"/><use xlink:href="#j" data-mml-node="mn" transform="matrix(.707 0 0 -.707 7192.6 165.2)"/></g><use xlink:href="#n" data-mml-node="mo" transform="matrix(1 0 0 -1 7818.3 15.2)"/><g data-mml-node="msub"><use xlink:href="#i" data-mml-node="mi" transform="matrix(1 0 0 -1 8818.6 15.2)"/><use xlink:href="#k" data-mml-node="mn" transform="matrix(.707 0 0 -.707 9264.6 165.2)"/></g><g data-mml-node="msub"><use xlink:href="#i" data-mml-node="mi" transform="matrix(1 0 0 -1 9668.1 15.2)"/><use xlink:href="#o" data-mml-node="mn" transform="matrix(.707 0 0 -.707 10114.1 165.2)"/></g><use xlink:href="#d" data-mml-node="mo" transform="matrix(1 0 0 -1 10517.7 15.2)"/></g><g data-mml-node="mtd"><g data-mml-node="msubsup"><use xlink:href="#i" data-mml-node="mi" transform="matrix(1 0 0 -1 12490.1 15.2)"/><use xlink:href="#j" data-mml-node="mn" transform="matrix(.707 0 0 -.707 12936.1 -347.8)"/><use xlink:href="#k" data-mml-node="mn" transform="matrix(.707 0 0 -.707 12936.1 303.1)"/></g><use xlink:href="#n" data-mml-node="mo" transform="matrix(1 0 0 -1 13561.9 15.2)"/><g data-mml-node="msubsup"><use xlink:href="#i" data-mml-node="mi" transform="matrix(1 0 0 -1 14562.1 15.2)"/><use xlink:href="#j" data-mml-node="mn" transform="matrix(.707 0 0 -.707 15008.1 -347.8)"/><use xlink:href="#m" data-mml-node="mn" transform="matrix(.707 0 0 -.707 15008.1 303.1)"/></g><use xlink:href="#l" data-mml-node="mo" transform="matrix(1 0 0 -1 15633.9 15.2)"/><g data-mml-node="msubsup"><use xlink:href="#i" data-mml-node="mi" transform="matrix(1 0 0 -1 16634.1 15.2)"/><use xlink:href="#j" data-mml-node="mn" transform="matrix(.707 0 0 -.707 17080.1 -347.8)"/><use xlink:href="#j" data-mml-node="mn" transform="matrix(.707 0 0 -.707 17080.1 303.1)"/></g><use xlink:href="#n" data-mml-node="mo" transform="matrix(1 0 0 -1 17705.9 15.2)"/><g data-mml-node="msubsup"><use xlink:href="#i" data-mml-node="mi" transform="matrix(1 0 0 -1 18706.1 15.2)"/><use xlink:href="#j" data-mml-node="mn" transform="matrix(.707 0 0 -.707 19152.1 -347.8)"/><use xlink:href="#o" data-mml-node="mn" transform="matrix(.707 0 0 -.707 19152.1 302.4)"/></g></g><g data-mml-node="mtd"><use xlink:href="#j" data-mml-node="mn" transform="matrix(1 0 0 -1 21139.1 15.2)"/><use xlink:href="#b" data-mml-node="mo" transform="matrix(1 0 0 -1 21639.1 15.2)"/><g data-mml-node="msub"><use xlink:href="#i" data-mml-node="mi" transform="matrix(1 0 0 -1 22028.1 15.2)"/><use xlink:href="#j" data-mml-node="mn" transform="matrix(.707 0 0 -.707 22474.1 165.2)"/></g><g data-mml-node="msub"><use xlink:href="#i" data-mml-node="mi" transform="matrix(1 0 0 -1 22877.7 15.2)"/><use xlink:href="#o" data-mml-node="mn" transform="matrix(.707 0 0 -.707 23323.7 165.2)"/></g><use xlink:href="#l" data-mml-node="mo" transform="matrix(1 0 0 -1 23949.4 15.2)"/><g data-mml-node="msub"><use xlink:href="#i" data-mml-node="mi" transform="matrix(1 0 0 -1 24949.7 15.2)"/><use xlink:href="#k" data-mml-node="mn" transform="matrix(.707 0 0 -.707 25395.7 165.2)"/></g><g data-mml-node="msub"><use xlink:href="#i" data-mml-node="mi" transform="matrix(1 0 0 -1 25799.2 15.2)"/><use xlink:href="#m" data-mml-node="mn" transform="matrix(.707 0 0 -.707 26245.2 165.2)"/></g><use xlink:href="#d" data-mml-node="mo" transform="matrix(1 0 0 -1 26648.8 15.2)"/></g></g><g data-mml-node="mtr"><g data-mml-node="mtd"><use xlink:href="#j" data-mml-node="mn" transform="matrix(1 0 0 -1 5008 1447.3)"/><use xlink:href="#b" data-mml-node="mo" transform="matrix(1 0 0 -1 5508 1447.3)"/><g data-mml-node="msub"><use xlink:href="#i" data-mml-node="mi" transform="matrix(1 0 0 -1 5897 1447.3)"/><use xlink:href="#m" data-mml-node="mn" transform="matrix(.707 0 0 -.707 6343 1597.3)"/></g><g data-mml-node="msub"><use xlink:href="#i" data-mml-node="mi" transform="matrix(1 0 0 -1 6746.6 1447.3)"/><use xlink:href="#o" data-mml-node="mn" transform="matrix(.707 0 0 -.707 7192.6 1597.3)"/></g><use xlink:href="#l" data-mml-node="mo" transform="matrix(1 0 0 -1 7818.3 1447.3)"/><g data-mml-node="msub"><use xlink:href="#i" data-mml-node="mi" transform="matrix(1 0 0 -1 8818.6 1447.3)"/><use xlink:href="#k" data-mml-node="mn" transform="matrix(.707 0 0 -.707 9264.6 1597.3)"/></g><g data-mml-node="msub"><use xlink:href="#i" data-mml-node="mi" transform="matrix(1 0 0 -1 9668.1 1447.3)"/><use xlink:href="#j" data-mml-node="mn" transform="matrix(.707 0 0 -.707 10114.1 1597.3)"/></g><use xlink:href="#d" data-mml-node="mo" transform="matrix(1 0 0 -1 10517.7 1447.3)"/></g><g data-mml-node="mtd"><use xlink:href="#j" data-mml-node="mn" transform="matrix(1 0 0 -1 13073.6 1447.3)"/><use xlink:href="#b" data-mml-node="mo" transform="matrix(1 0 0 -1 13573.6 1447.3)"/><g data-mml-node="msub"><use xlink:href="#i" data-mml-node="mi" transform="matrix(1 0 0 -1 13962.6 1447.3)"/><use xlink:href="#j" data-mml-node="mn" transform="matrix(.707 0 0 -.707 14408.6 1597.3)"/></g><g data-mml-node="msub"><use xlink:href="#i" data-mml-node="mi" transform="matrix(1 0 0 -1 14812.2 1447.3)"/><use xlink:href="#o" data-mml-node="mn" transform="matrix(.707 0 0 -.707 15258.2 1597.3)"/></g><use xlink:href="#n" data-mml-node="mo" transform="matrix(1 0 0 -1 15883.9 1447.3)"/><g data-mml-node="msub"><use xlink:href="#i" data-mml-node="mi" transform="matrix(1 0 0 -1 16884.2 1447.3)"/><use xlink:href="#k" data-mml-node="mn" transform="matrix(.707 0 0 -.707 17330.2 1597.3)"/></g><g data-mml-node="msub"><use xlink:href="#i" data-mml-node="mi" transform="matrix(1 0 0 -1 17733.7 1447.3)"/><use xlink:href="#m" data-mml-node="mn" transform="matrix(.707 0 0 -.707 18179.7 1597.3)"/></g><use xlink:href="#d" data-mml-node="mo" transform="matrix(1 0 0 -1 18583.3 1447.3)"/></g><g data-mml-node="mtd"><g data-mml-node="msubsup"><use xlink:href="#i" data-mml-node="mi" transform="matrix(1 0 0 -1 20555.7 1447.3)"/><use xlink:href="#j" data-mml-node="mn" transform="matrix(.707 0 0 -.707 21001.7 1084.3)"/><use xlink:href="#k" data-mml-node="mn" transform="matrix(.707 0 0 -.707 21001.7 1735.2)"/></g><use xlink:href="#n" data-mml-node="mo" transform="matrix(1 0 0 -1 21627.5 1447.3)"/><g data-mml-node="msubsup"><use xlink:href="#i" data-mml-node="mi" transform="matrix(1 0 0 -1 22627.7 1447.3)"/><use xlink:href="#j" data-mml-node="mn" transform="matrix(.707 0 0 -.707 23073.7 1084.3)"/><use xlink:href="#m" data-mml-node="mn" transform="matrix(.707 0 0 -.707 23073.7 1735.2)"/></g><use xlink:href="#n" data-mml-node="mo" transform="matrix(1 0 0 -1 23699.5 1447.3)"/><g data-mml-node="msubsup"><use xlink:href="#i" data-mml-node="mi" transform="matrix(1 0 0 -1 24699.7 1447.3)"/><use xlink:href="#j" data-mml-node="mn" transform="matrix(.707 0 0 -.707 25145.7 1084.3)"/><use xlink:href="#j" data-mml-node="mn" transform="matrix(.707 0 0 -.707 25145.7 1735.2)"/></g><use xlink:href="#l" data-mml-node="mo" transform="matrix(1 0 0 -1 25771.5 1447.3)"/><g data-mml-node="msubsup"><use xlink:href="#i" data-mml-node="mi" transform="matrix(1 0 0 -1 26771.7 1447.3)"/><use xlink:href="#j" data-mml-node="mn" transform="matrix(.707 0 0 -.707 27217.7 1084.3)"/><use xlink:href="#o" data-mml-node="mn" transform="matrix(.707 0 0 -.707 27217.7 1734.5)"/></g></g></g></g><g data-mml-node="mo" transform="matrix(1 0 0 -1 27621.2 0)"><use xlink:href="#p" transform="translate(104 1096.8)"/><use xlink:href="#q" transform="translate(104 -1106.8)"/><svg width="667" height="603.6" y="-51.8" x="104" viewBox="0 150.9 667 603.6"><use xlink:href="#r" transform="scale(1 1.504)"/></svg></g></g></g></svg>