<svg xmlns="http://www.w3.org/2000/svg" width="300" height="45" viewBox="0 -2377.8 16554.2 4255.6" xmlns:xlink="http://www.w3.org/1999/xlink"><defs><path id="a" d="M32 686l91 4q91 4 92 4h6V409q68 41 157 41 101 0 161-63t61-166q0-99-65-163T358-6h-3q-83 0-152 59L160 1l-31-1H98v435q0 73 1 90 0 66-2 79t-14 16q-14 4-41 4H29v62h3zm195-581l5-6 10-12q5-6 16-14t22-14 26-10 33-4q41 0 72 21t40 65q6 29 6 99 0 34-1 54t-8 45-18 38-34 22-53 9q-61 0-108-43l-8-7V105z"/><path id="b" d="M112 560l137 134 8-8q130-124 130-126l-26-29q-2 1-58 50l-53 46-55-47q-13-11-26-23t-21-19l-8-6q-2-2-15 14l-13 14z"/><path id="c" d="M213 578l-13-5q-14-5-40-10t-58-7H83v46h19q47 2 87 15t56 24 28 22q2 3 12 3 9 0 17-6V361l1-300q7-7 12-9t24-4 62-2h26V0h-11q-21 3-159 3-136 0-157-3H88v46h64q16 0 25 1t16 3 8 2 6 5 6 4v517z"/><path id="d" d="M78 250q0 24 17 42t43 18q24 0 42-16t19-43q0-25-17-43t-43-18-43 17-18 43z"/><path id="e" d="M401 444q12-3 94-3 73 0 79 3h6v-62h-70L409 156Q348 18 339 6q-8-10-19-10h-7q-5 0-10 1h-15q-15 0-24 15t-43 90q-15 33-24 54L96 382H26v62h8q15-3 111-3 107 0 125 3h9v-62h-48l53-118q51-115 54-115 0 1 51 115t53 117q0 1-24 1h-24v62h7z"/><path id="f" d="M377 694q0 8 5 14t15 6q7 0 12-5 5-4 10-19 10-37 41-57 11-7 11-18 0-9-3-12t-14-9q-43-22-75-63-2-2-5-6t-5-6-5-2-7-1q-7 0-13 5t-7 15q0 19 47 59H213l-171 1q-13 9-13 19 0 7 13 20h359q-24 38-24 59z"/><path id="g" d="M56 347q0 13 14 20h637q15-8 15-20 0-11-14-19l-318-1H72q-16 5-16 20zm0-194q0 15 16 20h636q14-10 14-20 0-13-15-20H70q-14 7-14 20z"/><path id="h" d="M173 380q0 25-19 25-24 0-50-29t-43-89q-1-1-2-3t-1-3-2-2-3-1-4 0-8 0H27q-6 6-6 9 0 7 8 29t24 52 44 51 63 22q42 0 65-24t24-56q0-17-3-26 0-6-15-44t-31-89-18-89q0-27 5-44 13-43 63-43 37 0 69 34t50 79 29 83 11 55q0 23-8 40t-18 26-18 18-8 22q0 22 19 41t41 19q19 0 34-18t16-58q0-27-12-83t-37-125-71-119-106-51q-64 0-102 33-37 32-37 95 0 31 8 64t41 117q22 64 22 82z"/><path id="i" d="M79 43q-6 0-27 6T30 61q0 7 55 232t61 235q15 32 52 32 20 0 42-15t22-44q0-5-2-15-1-7-87-223T84 45t-5-2z"/><path id="j" d="M64 349q0 50 43 77t148 27q91 0 147-30t71-82q5-14 5-31t1-114V77q14-14 50-15 20 0 24-5t5-26q0-22-6-26t-38-5h-33Q375 0 367 56l-11-10Q300-6 210-6 130-6 81 30t-49 91q0 67 79 105t221 46h18v20q0 21-2 35t-11 34-31 30-58 11-54-3h-5q15-23 15-45 0-27-17-48t-53-22q-37 0-53 21t-17 44zm100-228q0-32 22-54t52-22q36 0 69 18t39 45l4 9v109h-3q-99-8-141-37t-42-68z"/><path id="k" d="M56 237v13l14 20h299v150l1 150q10 13 19 13 13 0 20-15V270h298q15-8 15-20t-15-20H409V-68q-8-14-18-14h-4q-12 0-18 14v298H70q-14 7-14 20z"/><path id="l" d="M109 429q-27 0-43 18t-16 44q0 71 53 123t132 52q91 0 152-56t62-145q0-43-20-82t-48-68-80-74q-36-31-100-92l-59-56 76-1q157 0 167 5 7 2 24 89v3h40v-3q-1-3-13-91T421 3V0H50v31q0 7 6 15t30 35q29 32 50 56 9 10 34 37t34 37 29 33 28 34 23 30 21 32 15 29 13 32 7 30 3 33q0 63-34 109t-97 46q-33 0-58-17t-35-33-10-19q0-1 5-1 18 0 37-14t19-46q0-25-16-42t-45-18z"/><path id="m" d="M127 463q-27 0-42 17t-16 44q0 55 48 98t116 43q35 0 44-1 74-12 113-53t40-89q0-52-34-101t-94-71l-3-2q0-1 9-3t29-9 38-21q82-53 82-140 0-79-62-138T238-22q-80 0-138 43T42 130q0 28 18 45t45 18q28 0 46-18t18-45q0-11-3-20t-7-16-11-12-12-8-10-4-8-3l-4-1q51-45 124-45 55 0 83 53 17 33 17 101v20q0 95-64 127-15 6-61 7l-42 1-3 2q-2 3-2 16 0 18 8 18 28 0 58 5 34 5 62 42t28 112v8q0 57-35 79-22 14-47 14-32 0-59-11t-38-23-11-12h3q3-1 8-2t10-5 12-7 10-11 8-15 3-20q0-22-14-39t-45-18z"/></defs><g data-mml-node="math" stroke="currentColor" fill="currentColor" stroke-width="0"><g data-mml-node="mtable"><g data-mml-node="mtr"><g data-mml-node="mtd"><g data-mml-node="msub"><g data-mml-node="TeXAtom"><g data-mml-node="mover"><g data-mml-node="TeXAtom"><use xlink:href="#a" data-mml-node="mi" transform="matrix(1 0 0 -1 0 -1360.8)"/></g><use xlink:href="#b" data-mml-node="mo" transform="matrix(1 0 0 -1 69.5 -1583.8)"/></g></g><use xlink:href="#c" data-mml-node="mn" transform="matrix(.707 0 0 -.707 639 -1210.8)"/></g><use xlink:href="#d" data-mml-node="mo" transform="matrix(1 0 0 -1 1042.6 -1360.8)"/><g data-mml-node="TeXAtom"><g data-mml-node="mover"><g data-mml-node="TeXAtom"><use xlink:href="#e" data-mml-node="mi" transform="matrix(1 0 0 -1 1320.6 -1360.8)"/></g><use xlink:href="#f" data-mml-node="mo" transform="matrix(1 0 0 -1 1374.1 -1348.8)"/></g></g><use xlink:href="#g" data-mml-node="mo" transform="matrix(1 0 0 -1 2205.3 -1360.8)"/><g data-mml-node="msubsup"><use xlink:href="#h" data-mml-node="mi" transform="matrix(1 0 0 -1 3261.1 -1360.8)"/><use xlink:href="#i" data-mml-node="mo" transform="matrix(.707 0 0 -.707 3746.1 -1773.8)"/><use xlink:href="#c" data-mml-node="mn" transform="matrix(.707 0 0 -.707 3746.1 -1113.8)"/></g><use xlink:href="#g" data-mml-node="mo" transform="matrix(1 0 0 -1 4427.4 -1360.8)"/><g data-mml-node="msub"><use xlink:href="#h" data-mml-node="mi" transform="matrix(1 0 0 -1 5483.2 -1360.8)"/><use xlink:href="#c" data-mml-node="mn" transform="matrix(.707 0 0 -.707 5968.2 -1210.8)"/></g><g data-mml-node="msub"><g data-mml-node="TeXAtom"><g data-mml-node="mover"><g data-mml-node="TeXAtom"><use xlink:href="#a" data-mml-node="mi" transform="matrix(1 0 0 -1 6371.8 -1360.8)"/></g><use xlink:href="#b" data-mml-node="mo" transform="matrix(1 0 0 -1 6441.3 -1583.8)"/></g></g><use xlink:href="#c" data-mml-node="mn" transform="matrix(.707 0 0 -.707 7010.8 -1210.8)"/></g><use xlink:href="#d" data-mml-node="mo" transform="matrix(1 0 0 -1 7414.3 -1360.8)"/><g data-mml-node="msub"><g data-mml-node="TeXAtom"><g data-mml-node="mover"><g data-mml-node="TeXAtom"><use xlink:href="#j" data-mml-node="mi" transform="matrix(1 0 0 -1 7692.3 -1360.8)"/></g><use xlink:href="#b" data-mml-node="mo" transform="matrix(1 0 0 -1 7721.8 -1342.8)"/></g></g><use xlink:href="#c" data-mml-node="mn" transform="matrix(.707 0 0 -.707 8251.3 -1210.8)"/></g><use xlink:href="#k" data-mml-node="mo" transform="matrix(1 0 0 -1 8654.9 -1360.8)"/><g data-mml-node="msub"><use xlink:href="#h" data-mml-node="mi" transform="matrix(1 0 0 -1 9432.9 -1360.8)"/><use xlink:href="#l" data-mml-node="mn" transform="matrix(.707 0 0 -.707 9917.9 -1210.8)"/></g><g data-mml-node="msub"><g data-mml-node="TeXAtom"><g data-mml-node="mover"><g data-mml-node="TeXAtom"><use xlink:href="#a" data-mml-node="mi" transform="matrix(1 0 0 -1 10321.4 -1360.8)"/></g><use xlink:href="#b" data-mml-node="mo" transform="matrix(1 0 0 -1 10390.9 -1583.8)"/></g></g><use xlink:href="#c" data-mml-node="mn" transform="matrix(.707 0 0 -.707 10960.4 -1210.8)"/></g><use xlink:href="#d" data-mml-node="mo" transform="matrix(1 0 0 -1 11364 -1360.8)"/><g data-mml-node="msub"><g data-mml-node="TeXAtom"><g data-mml-node="mover"><g data-mml-node="TeXAtom"><use xlink:href="#j" data-mml-node="mi" transform="matrix(1 0 0 -1 11642 -1360.8)"/></g><use xlink:href="#b" data-mml-node="mo" transform="matrix(1 0 0 -1 11671.5 -1342.8)"/></g></g><use xlink:href="#l" data-mml-node="mn" transform="matrix(.707 0 0 -.707 12201 -1210.8)"/></g><use xlink:href="#k" data-mml-node="mo" transform="matrix(1 0 0 -1 12604.5 -1360.8)"/><g data-mml-node="msub"><use xlink:href="#h" data-mml-node="mi" transform="matrix(1 0 0 -1 13382.5 -1360.8)"/><use xlink:href="#m" data-mml-node="mn" transform="matrix(.707 0 0 -.707 13867.5 -1210.8)"/></g><g data-mml-node="msub"><g data-mml-node="TeXAtom"><g data-mml-node="mover"><g data-mml-node="TeXAtom"><use xlink:href="#a" data-mml-node="mi" transform="matrix(1 0 0 -1 14271.1 -1360.8)"/></g><use xlink:href="#b" data-mml-node="mo" transform="matrix(1 0 0 -1 14340.6 -1583.8)"/></g></g><use xlink:href="#c" data-mml-node="mn" transform="matrix(.707 0 0 -.707 14910.1 -1210.8)"/></g><use xlink:href="#d" data-mml-node="mo" transform="matrix(1 0 0 -1 15313.6 -1360.8)"/><g data-mml-node="msub"><g data-mml-node="TeXAtom"><g data-mml-node="mover"><g data-mml-node="TeXAtom"><use xlink:href="#j" data-mml-node="mi" transform="matrix(1 0 0 -1 15591.6 -1360.8)"/></g><use xlink:href="#b" data-mml-node="mo" transform="matrix(1 0 0 -1 15621.1 -1342.8)"/></g></g><use xlink:href="#m" data-mml-node="mn" transform="matrix(.707 0 0 -.707 16150.6 -1210.8)"/></g></g></g><g data-mml-node="mtr"><g data-mml-node="mtd"><g data-mml-node="msub"><g data-mml-node="TeXAtom"><g data-mml-node="mover"><g data-mml-node="TeXAtom"><use xlink:href="#a" data-mml-node="mi" transform="matrix(1 0 0 -1 0 127.2)"/></g><use xlink:href="#b" data-mml-node="mo" transform="matrix(1 0 0 -1 69.5 -95.8)"/></g></g><use xlink:href="#l" data-mml-node="mn" transform="matrix(.707 0 0 -.707 639 277.2)"/></g><use xlink:href="#d" data-mml-node="mo" transform="matrix(1 0 0 -1 1042.6 127.2)"/><g data-mml-node="TeXAtom"><g data-mml-node="mover"><g data-mml-node="TeXAtom"><use xlink:href="#e" data-mml-node="mi" transform="matrix(1 0 0 -1 1320.6 127.2)"/></g><use xlink:href="#f" data-mml-node="mo" transform="matrix(1 0 0 -1 1374.1 139.2)"/></g></g><use xlink:href="#g" data-mml-node="mo" transform="matrix(1 0 0 -1 2205.3 127.2)"/><g data-mml-node="msubsup"><use xlink:href="#h" data-mml-node="mi" transform="matrix(1 0 0 -1 3261.1 127.2)"/><use xlink:href="#i" data-mml-node="mo" transform="matrix(.707 0 0 -.707 3746.1 -285.8)"/><use xlink:href="#l" data-mml-node="mn" transform="matrix(.707 0 0 -.707 3746.1 374.2)"/></g><use xlink:href="#g" data-mml-node="mo" transform="matrix(1 0 0 -1 4427.4 127.2)"/><g data-mml-node="msub"><use xlink:href="#h" data-mml-node="mi" transform="matrix(1 0 0 -1 5483.2 127.2)"/><use xlink:href="#c" data-mml-node="mn" transform="matrix(.707 0 0 -.707 5968.2 277.2)"/></g><g data-mml-node="msub"><g data-mml-node="TeXAtom"><g data-mml-node="mover"><g data-mml-node="TeXAtom"><use xlink:href="#a" data-mml-node="mi" transform="matrix(1 0 0 -1 6371.8 127.2)"/></g><use xlink:href="#b" data-mml-node="mo" transform="matrix(1 0 0 -1 6441.3 -95.8)"/></g></g><use xlink:href="#l" data-mml-node="mn" transform="matrix(.707 0 0 -.707 7010.8 277.2)"/></g><use xlink:href="#d" data-mml-node="mo" transform="matrix(1 0 0 -1 7414.3 127.2)"/><g data-mml-node="msub"><g data-mml-node="TeXAtom"><g data-mml-node="mover"><g data-mml-node="TeXAtom"><use xlink:href="#j" data-mml-node="mi" transform="matrix(1 0 0 -1 7692.3 127.2)"/></g><use xlink:href="#b" data-mml-node="mo" transform="matrix(1 0 0 -1 7721.8 145.2)"/></g></g><use xlink:href="#c" data-mml-node="mn" transform="matrix(.707 0 0 -.707 8251.3 277.2)"/></g><use xlink:href="#k" data-mml-node="mo" transform="matrix(1 0 0 -1 8654.9 127.2)"/><g data-mml-node="msub"><use xlink:href="#h" data-mml-node="mi" transform="matrix(1 0 0 -1 9432.9 127.2)"/><use xlink:href="#l" data-mml-node="mn" transform="matrix(.707 0 0 -.707 9917.9 277.2)"/></g><g data-mml-node="msub"><g data-mml-node="TeXAtom"><g data-mml-node="mover"><g data-mml-node="TeXAtom"><use xlink:href="#a" data-mml-node="mi" transform="matrix(1 0 0 -1 10321.4 127.2)"/></g><use xlink:href="#b" data-mml-node="mo" transform="matrix(1 0 0 -1 10390.9 -95.8)"/></g></g><use xlink:href="#l" data-mml-node="mn" transform="matrix(.707 0 0 -.707 10960.4 277.2)"/></g><use xlink:href="#d" data-mml-node="mo" transform="matrix(1 0 0 -1 11364 127.2)"/><g data-mml-node="msub"><g data-mml-node="TeXAtom"><g data-mml-node="mover"><g data-mml-node="TeXAtom"><use xlink:href="#j" data-mml-node="mi" transform="matrix(1 0 0 -1 11642 127.2)"/></g><use xlink:href="#b" data-mml-node="mo" transform="matrix(1 0 0 -1 11671.5 145.2)"/></g></g><use xlink:href="#l" data-mml-node="mn" transform="matrix(.707 0 0 -.707 12201 277.2)"/></g><use xlink:href="#k" data-mml-node="mo" transform="matrix(1 0 0 -1 12604.5 127.2)"/><g data-mml-node="msub"><use xlink:href="#h" data-mml-node="mi" transform="matrix(1 0 0 -1 13382.5 127.2)"/><use xlink:href="#m" data-mml-node="mn" transform="matrix(.707 0 0 -.707 13867.5 277.2)"/></g><g data-mml-node="msub"><g data-mml-node="TeXAtom"><g data-mml-node="mover"><g data-mml-node="TeXAtom"><use xlink:href="#a" data-mml-node="mi" transform="matrix(1 0 0 -1 14271.1 127.2)"/></g><use xlink:href="#b" data-mml-node="mo" transform="matrix(1 0 0 -1 14340.6 -95.8)"/></g></g><use xlink:href="#l" data-mml-node="mn" transform="matrix(.707 0 0 -.707 14910.1 277.2)"/></g><use xlink:href="#d" data-mml-node="mo" transform="matrix(1 0 0 -1 15313.6 127.2)"/><g data-mml-node="msub"><g data-mml-node="TeXAtom"><g data-mml-node="mover"><g data-mml-node="TeXAtom"><use xlink:href="#j" data-mml-node="mi" transform="matrix(1 0 0 -1 15591.6 127.2)"/></g><use xlink:href="#b" data-mml-node="mo" transform="matrix(1 0 0 -1 15621.1 145.2)"/></g></g><use xlink:href="#m" data-mml-node="mn" transform="matrix(.707 0 0 -.707 16150.6 277.2)"/></g></g></g><g data-mml-node="mtr"><g data-mml-node="mtd"><g data-mml-node="msub"><g data-mml-node="TeXAtom"><g data-mml-node="mover"><g data-mml-node="TeXAtom"><use xlink:href="#a" data-mml-node="mi" transform="matrix(1 0 0 -1 0 1615.2)"/></g><use xlink:href="#b" data-mml-node="mo" transform="matrix(1 0 0 -1 69.5 1392.2)"/></g></g><use xlink:href="#m" data-mml-node="mn" transform="matrix(.707 0 0 -.707 639 1765.2)"/></g><use xlink:href="#d" data-mml-node="mo" transform="matrix(1 0 0 -1 1042.6 1615.2)"/><g data-mml-node="TeXAtom"><g data-mml-node="mover"><g data-mml-node="TeXAtom"><use xlink:href="#e" data-mml-node="mi" transform="matrix(1 0 0 -1 1320.6 1615.2)"/></g><use xlink:href="#f" data-mml-node="mo" transform="matrix(1 0 0 -1 1374.1 1627.2)"/></g></g><use xlink:href="#g" data-mml-node="mo" transform="matrix(1 0 0 -1 2205.3 1615.2)"/><g data-mml-node="msubsup"><use xlink:href="#h" data-mml-node="mi" transform="matrix(1 0 0 -1 3261.1 1615.2)"/><use xlink:href="#i" data-mml-node="mo" transform="matrix(.707 0 0 -.707 3746.1 1202.2)"/><use xlink:href="#m" data-mml-node="mn" transform="matrix(.707 0 0 -.707 3746.1 1862.2)"/></g><use xlink:href="#g" data-mml-node="mo" transform="matrix(1 0 0 -1 4427.4 1615.2)"/><g data-mml-node="msub"><use xlink:href="#h" data-mml-node="mi" transform="matrix(1 0 0 -1 5483.2 1615.2)"/><use xlink:href="#c" data-mml-node="mn" transform="matrix(.707 0 0 -.707 5968.2 1765.2)"/></g><g data-mml-node="msub"><g data-mml-node="TeXAtom"><g data-mml-node="mover"><g data-mml-node="TeXAtom"><use xlink:href="#a" data-mml-node="mi" transform="matrix(1 0 0 -1 6371.8 1615.2)"/></g><use xlink:href="#b" data-mml-node="mo" transform="matrix(1 0 0 -1 6441.3 1392.2)"/></g></g><use xlink:href="#m" data-mml-node="mn" transform="matrix(.707 0 0 -.707 7010.8 1765.2)"/></g><use xlink:href="#d" data-mml-node="mo" transform="matrix(1 0 0 -1 7414.3 1615.2)"/><g data-mml-node="msub"><g data-mml-node="TeXAtom"><g data-mml-node="mover"><g data-mml-node="TeXAtom"><use xlink:href="#j" data-mml-node="mi" transform="matrix(1 0 0 -1 7692.3 1615.2)"/></g><use xlink:href="#b" data-mml-node="mo" transform="matrix(1 0 0 -1 7721.8 1633.2)"/></g></g><use xlink:href="#c" data-mml-node="mn" transform="matrix(.707 0 0 -.707 8251.3 1765.2)"/></g><use xlink:href="#k" data-mml-node="mo" transform="matrix(1 0 0 -1 8654.9 1615.2)"/><g data-mml-node="msub"><use xlink:href="#h" data-mml-node="mi" transform="matrix(1 0 0 -1 9432.9 1615.2)"/><use xlink:href="#l" data-mml-node="mn" transform="matrix(.707 0 0 -.707 9917.9 1765.2)"/></g><g data-mml-node="msub"><g data-mml-node="TeXAtom"><g data-mml-node="mover"><g data-mml-node="TeXAtom"><use xlink:href="#a" data-mml-node="mi" transform="matrix(1 0 0 -1 10321.4 1615.2)"/></g><use xlink:href="#b" data-mml-node="mo" transform="matrix(1 0 0 -1 10390.9 1392.2)"/></g></g><use xlink:href="#m" data-mml-node="mn" transform="matrix(.707 0 0 -.707 10960.4 1765.2)"/></g><use xlink:href="#d" data-mml-node="mo" transform="matrix(1 0 0 -1 11364 1615.2)"/><g data-mml-node="msub"><g data-mml-node="TeXAtom"><g data-mml-node="mover"><g data-mml-node="TeXAtom"><use xlink:href="#j" data-mml-node="mi" transform="matrix(1 0 0 -1 11642 1615.2)"/></g><use xlink:href="#b" data-mml-node="mo" transform="matrix(1 0 0 -1 11671.5 1633.2)"/></g></g><use xlink:href="#l" data-mml-node="mn" transform="matrix(.707 0 0 -.707 12201 1765.2)"/></g><use xlink:href="#k" data-mml-node="mo" transform="matrix(1 0 0 -1 12604.5 1615.2)"/><g data-mml-node="msub"><use xlink:href="#h" data-mml-node="mi" transform="matrix(1 0 0 -1 13382.5 1615.2)"/><use xlink:href="#m" data-mml-node="mn" transform="matrix(.707 0 0 -.707 13867.5 1765.2)"/></g><g data-mml-node="msub"><g data-mml-node="TeXAtom"><g data-mml-node="mover"><g data-mml-node="TeXAtom"><use xlink:href="#a" data-mml-node="mi" transform="matrix(1 0 0 -1 14271.1 1615.2)"/></g><use xlink:href="#b" data-mml-node="mo" transform="matrix(1 0 0 -1 14340.6 1392.2)"/></g></g><use xlink:href="#m" data-mml-node="mn" transform="matrix(.707 0 0 -.707 14910.1 1765.2)"/></g><use xlink:href="#d" data-mml-node="mo" transform="matrix(1 0 0 -1 15313.6 1615.2)"/><g data-mml-node="msub"><g data-mml-node="TeXAtom"><g data-mml-node="mover"><g data-mml-node="TeXAtom"><use xlink:href="#j" data-mml-node="mi" transform="matrix(1 0 0 -1 15591.6 1615.2)"/></g><use xlink:href="#b" data-mml-node="mo" transform="matrix(1 0 0 -1 15621.1 1633.2)"/></g></g><use xlink:href="#m" data-mml-node="mn" transform="matrix(.707 0 0 -.707 16150.6 1765.2)"/></g></g></g></g></g></svg>