<svg xmlns="http://www.w3.org/2000/svg" width="340" height="15" viewBox="0 -1017 19715.4 1279.6" xmlns:xlink="http://www.w3.org/1999/xlink"><defs><path id="a" d="M130 622q-7 7-11 9t-16 3-43 3H27v46h273q76 0 117-6t83-29q95-48 109-131 1-5 1-16 0-33-16-62t-38-47-45-31-39-18l-16-5q3-3 11-6 30-16 49-34t29-44 14-43 9-56 10-61q10-48 24-63t38-15h5q15 0 29 16t18 55q0 11 4 14t16 4 16-2 4-13q0-31-16-63t-44-43q-16-6-42-6-149 6-172 112-2 11-2 73t-7 83q-19 58-76 74l-10 2-66 1h-66V192l1-131q6-10 17-12t52-3h33V0h-11q-21 3-142 3Q59 3 38 0H27v46h33q42 1 51 3t19 12v561zm361-123v10q0 18-1 30t-9 31-19 31-38 22-62 13h-22q-20 0-36 1h-21q-45 0-49-9-3-4-3-136V360h58q101 0 145 18t55 78q2 11 2 43z"/><path id="b" d="M28 218q0 55 20 100t50 73 65 42 66 15q53 0 91-18t58-50 28-64 9-71q0-7-7-14H126v-15q0-148 100-180 20-6 44-6 42 0 72 32 17 17 27 42l10 24q3 3 16 3h3q17 0 17-10 0-4-3-13-19-55-63-87t-99-32q-95 0-158 69T28 218zm305 57q-11 128-95 136h-2q-8 0-16-1t-25-8-29-21-23-41-16-66v-7h206v8z"/><path id="c" d="M273 0q-18 3-127 3Q43 3 34 0h-8v46h16q28 0 49 3 8 3 12 11 1 2 1 164v161H33v46h71v66l1 67 2 10q19 65 64 94t95 36h9q8 0 14 1 41-3 62-26t21-52q0-23-14-37t-37-14-37 14-14 37q0 20 18 40h-4q-4 1-11 1-28 0-50-21t-34-55q-6-20-7-95v-66h111v-46H185V225q0-162 1-164t3-4 5-3 5-3 7-2 7-1 9-1 9 0 10-1 10 0h31V0h-9z"/><path id="d" d="M36 46h14q39 0 47 14v31q0 14 1 31t0 39 0 42v125l-1 23q-3 19-14 25t-45 9H20v23q0 23 2 23l10 1q10 1 28 2t36 2q16 1 35 2t29 3 11 1h3v-69q39 68 97 68h6q45 0 66-22t21-46q0-21-13-36t-38-15q-25 0-37 16t-13 34q0 9 2 16t5 12 3 5q-2 2-23-4-16-8-24-15-47-45-47-179v-53-27-26q0-12 1-20t0-15v-5q1-2 3-4t5-3 5-3 7-2 7-1 9-1 9 0 10-1 10 0h31V0h-9q-18 3-127 3Q37 3 28 0h-8v46h16z"/><path id="e" d="M41 46h14q39 0 47 14v62q0 17 1 39t0 42v66q0 35-1 59v23q-3 19-14 25t-45 9H25v23q0 23 2 23l10 1q10 1 28 2t37 2q17 1 36 2t29 3 11 1h3v-40q0-38 1-38t5 5 12 15 19 18 29 19 38 16q20 5 51 5 114-4 127-113 1-7 1-139v-86q0-38 2-45t11-10q21-3 49-3h16V0h-8l-24 1q-23 1-50 1t-38 1Q319 3 310 0h-8v46h16q61 0 61 16 1 2 1 138-1 135-2 143-6 28-20 42t-24 17-26 2q-45 0-79-34-27-27-34-55t-8-83V108q0-30 1-40t3-13 9-6q21-3 49-3h16V0h-8l-23 1q-24 1-51 1t-38 1Q42 3 33 0h-8v46h16z"/><path id="f" d="M370 305h-21l-36 15-16 38q0 23 15 38 5 5 5 6t-10 2q-26 4-49 4-49 0-80-32-47-47-47-157 0-82 31-129 41-61 110-61 41 0 66 26t36 62q2 8 5 10t16 2h14q6-6 6-9 0-4-4-16t-16-33-29-38-48-31-69-13q-86 0-150 64T34 214q0 104 65 169t151 65 120-27 34-64q0-23-17-37z"/><path id="h" d="M137 305h-22l-37 15-15 39q0 35 34 62t121 27q73 0 118-32t60-76q5-14 5-31t1-115v-70q0-48 5-66t21-18q15 0 20 16t5 53v36h40v-39q-1-40-3-47-9-30-35-47T400-6t-47 18-24 42v4l-2-3q-2-3-5-6t-8-9-12-11-15-12-18-11-22-8-26-6-31-3q-60 0-108 31t-48 87q0 21 7 40t27 41 48 37 78 28 110 15h14v22q0 34-6 50-22 71-97 71-18 0-34-1t-25-4-8-3q22-15 22-44 0-25-16-39zm-11-199q0-31 24-55t59-25q38 0 67 23t39 60q2 7 3 66 0 58-1 58-8 0-21-1t-45-9-58-20-46-37-21-60z"/><path id="i" d="M41 46h14q39 0 47 14v62q0 17 1 39t0 42v66q0 35-1 59v23q-3 19-14 25t-45 9H25v23q0 23 2 23l10 1q10 1 28 2t37 2q17 1 36 2t29 3 11 1h3v-40q0-38 1-38t5 5 12 15 19 18 29 19 38 16q20 5 51 5 15 0 28-2t23-6 19-8 15-9 11-11 9-11 7-11 4-10 3-8l2-5 3 4 6 8q3 4 9 11t13 13 15 13 20 12 23 10 26 7 31 3q126 0 137-113 1-7 1-139v-86q0-38 2-45t11-10q21-3 49-3h16V0h-8l-23 1q-24 1-51 1t-38 1Q596 3 587 0h-8v46h16q61 0 61 16 1 2 1 138-1 135-2 143-6 28-20 42t-24 17-26 2q-45 0-79-34-27-27-34-55t-8-83V108q0-30 1-40t3-13 9-6q21-3 49-3h16V0h-8l-24 1q-23 1-50 1t-38 1Q319 3 310 0h-8v46h16q61 0 61 16 1 2 1 138-1 135-2 143-6 28-20 42t-24 17-26 2q-45 0-79-34-27-27-34-55t-8-83V108q0-30 1-40t3-13 9-6q21-3 49-3h16V0h-8l-23 1q-24 1-51 1t-38 1Q42 3 33 0h-8v46h16z"/><path id="j" d="M304 342q-12 0-12 11 0 19 31 38 8 5 94 37t116 59q30 25 30 68v7q0 13-6 27t-27 29-55 18q-46 0-79-23t-66-74q-67-93-120-301-14-55-37-118-38-89-52-104-13-15-36-26T47-22 32-10q0 5 12 28t33 75 35 113q23 90 42 189t28 155 9 65q0 1-1 1-2 0-11-5t-22-10-26-7q-18 0-18 11 0 18 31 39 10 6 61 32t62 27q10 2 12 2 16 0 16-12 0-7-7-58t-10-60q0-3 9 7 49 53 115 87t138 35q63 0 93-31t31-74q0-40-26-76t-58-61q-27-22-76-49l-13-6 13-5q62-21 92-64t31-94q0-72-52-134T444 13 284-22q-76 0-126 50-14 14-12 22 4 17 32 35t52 18q6 0 16-8t21-20 35-19 55-9q79 0 129 46 40 43 40 105v12q0 18-8 39t-27 43-55 38-86 15q-15 0-29-1t-17-2z"/><path id="k" d="M78 370q0 24 17 42t43 18q24 0 42-16t19-43q0-25-17-43t-43-18-43 17-18 43zm0-310q0 24 17 42t43 18q24 0 42-16t19-43q0-25-17-43T139 0 96 17 78 60z"/><path id="l" d="M401 444q12-3 94-3 73 0 79 3h6v-62h-70L409 156Q348 18 339 6q-8-10-19-10h-7q-5 0-10 1h-15q-15 0-24 15t-43 90q-15 33-24 54L96 382H26v62h8q15-3 111-3 107 0 125 3h9v-62h-48l53-118q51-115 54-115 0 1 51 115t53 117q0 1-24 1h-24v62h7z"/><path id="m" d="M377 694q0 8 5 14t15 6q7 0 12-5 5-4 10-19 10-37 41-57 11-7 11-18 0-9-3-12t-14-9q-43-22-75-63-2-2-5-6t-5-6-5-2-7-1q-7 0-13 5t-7 15q0 19 47 59H213l-171 1q-13 9-13 19 0 7 13 20h359q-24 38-24 59z"/><path id="n" d="M56 347q0 13 14 20h637q15-8 15-20 0-11-14-19l-318-1H72q-16 5-16 20zm0-194q0 15 16 20h636q14-10 14-20 0-13-15-20H70q-14 7-14 20z"/><path id="o" d="M173 380q0 25-19 25-24 0-50-29t-43-89q-1-1-2-3t-1-3-2-2-3-1-4 0-8 0H27q-6 6-6 9 0 7 8 29t24 52 44 51 63 22q42 0 65-24t24-56q0-17-3-26 0-6-15-44t-31-89-18-89q0-27 5-44 13-43 63-43 37 0 69 34t50 79 29 83 11 55q0 23-8 40t-18 26-18 18-8 22q0 22 19 41t41 19q19 0 34-18t16-58q0-27-12-83t-37-125-71-119-106-51q-64 0-102 33-37 32-37 95 0 31 8 64t41 117q22 64 22 82z"/><path id="p" d="M79 43q-6 0-27 6T30 61q0 7 55 232t61 235q15 32 52 32 20 0 42-15t22-44q0-5-2-15-1-7-87-223T84 45t-5-2z"/><path id="q" d="M213 578l-13-5q-14-5-40-10t-58-7H83v46h19q47 2 87 15t56 24 28 22q2 3 12 3 9 0 17-6V361l1-300q7-7 12-9t24-4 62-2h26V0h-11q-21 3-159 3-136 0-157-3H88v46h64q16 0 25 1t16 3 8 2 6 5 6 4v517z"/><path id="r" d="M32 686l91 4q91 4 92 4h6V409q68 41 157 41 101 0 161-63t61-166q0-99-65-163T358-6h-3q-83 0-152 59L160 1l-31-1H98v435q0 73 1 90 0 66-2 79t-14 16q-14 4-41 4H29v62h3zm195-581l5-6 10-12q5-6 16-14t22-14 26-10 33-4q41 0 72 21t40 65q6 29 6 99 0 34-1 54t-8 45-18 38-34 22-53 9q-61 0-108-43l-8-7V105z"/><path id="s" d="M112 560l137 134 8-8q130-124 130-126l-26-29q-2 1-58 50l-53 46-55-47q-13-11-26-23t-21-19l-8-6q-2-2-15 14l-13 14z"/><path id="t" d="M56 237v13l14 20h299v150l1 150q10 13 19 13 13 0 20-15V270h298q15-8 15-20t-15-20H409V-68q-8-14-18-14h-4q-12 0-18 14v298H70q-14 7-14 20z"/><path id="u" d="M109 429q-27 0-43 18t-16 44q0 71 53 123t132 52q91 0 152-56t62-145q0-43-20-82t-48-68-80-74q-36-31-100-92l-59-56 76-1q157 0 167 5 7 2 24 89v3h40v-3q-1-3-13-91T421 3V0H50v31q0 7 6 15t30 35q29 32 50 56 9 10 34 37t34 37 29 33 28 34 23 30 21 32 15 29 13 32 7 30 3 33q0 63-34 109t-97 46q-33 0-58-17t-35-33-10-19q0-1 5-1 18 0 37-14t19-46q0-25-16-42t-45-18z"/><path id="v" d="M127 463q-27 0-42 17t-16 44q0 55 48 98t116 43q35 0 44-1 74-12 113-53t40-89q0-52-34-101t-94-71l-3-2q0-1 9-3t29-9 38-21q82-53 82-140 0-79-62-138T238-22q-80 0-138 43T42 130q0 28 18 45t45 18q28 0 46-18t18-45q0-11-3-20t-7-16-11-12-12-8-10-4-8-3l-4-1q51-45 124-45 55 0 83 53 17 33 17 101v20q0 95-64 127-15 6-61 7l-42 1-3 2q-2 3-2 16 0 18 8 18 28 0 58 5 34 5 62 42t28 112v8q0 57-35 79-22 14-47 14-32 0-59-11t-38-23-11-12h3q3-1 8-2t10-5 12-7 10-11 8-15 3-20q0-22-14-39t-45-18z"/></defs><g data-mml-node="math" stroke="currentColor" fill="currentColor" stroke-width="0"><g data-mml-node="mtext" transform="scale(1 -1)"><use xlink:href="#a"/><use xlink:href="#b" transform="translate(736)"/><use xlink:href="#c" transform="translate(1180)"/><use xlink:href="#b" transform="translate(1486)"/><use xlink:href="#d" transform="translate(1930)"/><use xlink:href="#b" transform="translate(2322)"/><use xlink:href="#e" transform="translate(2766)"/><use xlink:href="#f" transform="translate(3322)"/><use xlink:href="#b" transform="translate(3766)"/><use xlink:href="#g" transform="translate(4210)"/><use xlink:href="#c" transform="translate(4460)"/><use xlink:href="#d" transform="translate(4766)"/><use xlink:href="#h" transform="translate(5158)"/><use xlink:href="#i" transform="translate(5658)"/><use xlink:href="#b" transform="translate(6491)"/></g><g data-mml-node="TeXAtom"><use xlink:href="#j" data-mml-node="mi" transform="matrix(1 0 0 -1 7935 0)"/></g><use xlink:href="#k" data-mml-node="mo" transform="matrix(1 0 0 -1 8869.8 0)"/><g data-mml-node="TeXAtom"><g data-mml-node="mover"><g data-mml-node="TeXAtom"><use xlink:href="#l" data-mml-node="mi" transform="matrix(1 0 0 -1 10425.6 0)"/></g><use xlink:href="#m" data-mml-node="mo" transform="matrix(1 0 0 -1 10479.1 12)"/></g></g><use xlink:href="#n" data-mml-node="mo" transform="matrix(1 0 0 -1 11310.3 0)"/><g data-mml-node="msubsup"><use xlink:href="#o" data-mml-node="mi" transform="matrix(1 0 0 -1 12366.1 0)"/><use xlink:href="#p" data-mml-node="mo" transform="matrix(.707 0 0 -.707 12851.1 -413)"/><use xlink:href="#q" data-mml-node="mn" transform="matrix(.707 0 0 -.707 12851.1 247)"/></g><g data-mml-node="msub"><g data-mml-node="TeXAtom"><g data-mml-node="mover"><g data-mml-node="TeXAtom"><use xlink:href="#r" data-mml-node="mi" transform="matrix(1 0 0 -1 13254.7 0)"/></g><use xlink:href="#s" data-mml-node="mo" transform="matrix(1 0 0 -1 13324.2 -223)"/></g></g><use xlink:href="#q" data-mml-node="mn" transform="matrix(.707 0 0 -.707 13893.7 150)"/></g><use xlink:href="#t" data-mml-node="mo" transform="matrix(1 0 0 -1 14297.2 0)"/><g data-mml-node="msubsup"><use xlink:href="#o" data-mml-node="mi" transform="matrix(1 0 0 -1 15075.2 0)"/><use xlink:href="#p" data-mml-node="mo" transform="matrix(.707 0 0 -.707 15560.2 -413)"/><use xlink:href="#u" data-mml-node="mn" transform="matrix(.707 0 0 -.707 15560.2 247)"/></g><g data-mml-node="msub"><g data-mml-node="TeXAtom"><g data-mml-node="mover"><g data-mml-node="TeXAtom"><use xlink:href="#r" data-mml-node="mi" transform="matrix(1 0 0 -1 15963.8 0)"/></g><use xlink:href="#s" data-mml-node="mo" transform="matrix(1 0 0 -1 16033.3 -223)"/></g></g><use xlink:href="#u" data-mml-node="mn" transform="matrix(.707 0 0 -.707 16602.8 150)"/></g><use xlink:href="#t" data-mml-node="mo" transform="matrix(1 0 0 -1 17006.3 0)"/><g data-mml-node="msubsup"><use xlink:href="#o" data-mml-node="mi" transform="matrix(1 0 0 -1 17784.3 0)"/><use xlink:href="#p" data-mml-node="mo" transform="matrix(.707 0 0 -.707 18269.3 -413)"/><use xlink:href="#v" data-mml-node="mn" transform="matrix(.707 0 0 -.707 18269.3 247)"/></g><g data-mml-node="msub"><g data-mml-node="TeXAtom"><g data-mml-node="mover"><g data-mml-node="TeXAtom"><use xlink:href="#r" data-mml-node="mi" transform="matrix(1 0 0 -1 18672.9 0)"/></g><use xlink:href="#s" data-mml-node="mo" transform="matrix(1 0 0 -1 18742.4 -223)"/></g></g><use xlink:href="#v" data-mml-node="mn" transform="matrix(.707 0 0 -.707 19311.9 150)"/></g></g></svg>