<svg xmlns="http://www.w3.org/2000/svg" width="525.048" height="37.016" viewBox="0 -1359 29009.1 2045" xmlns:xlink="http://www.w3.org/1999/xlink"><defs><path id="a" d="M33 157q0 101 76 192t171 92q60 0 92-52 1 1 5 6t11 11 16 12q34 24 46 24 4 0 7-3t3-5q0-9-69-285-71-284-71-288 0-8 45-9h25q6-8 6-9t-3-18q-4-13-10-19h-13q-31 2-108 2h-88q-14 0-17-1-14 0-14 8 0 3 2 15 4 16 7 19t20 3q48 0 58 7 8 5 28 88t21 85q0 1-7-3-48-39-100-39-55 0-97 40T33 157zm319 169q-23 79-75 79-35 0-67-31t-50-81q-29-79-41-164v-11q0-8-1-12 0-45 18-62t43-18q54 0 111 72l8 11 54 217z"/><path id="b" d="M96 585q56 81 153 81 48 0 96-26t78-92q37-83 37-228 0-155-43-237-20-42-55-67t-61-31-51-7q-26 0-52 6t-61 32-55 67q-43 82-43 237 0 174 57 265zm225 12q-30 32-71 32-42 0-72-32-25-26-33-72t-8-192q0-158 8-208t36-79q28-30 69-30 40 0 68 30 29 30 36 84t8 203q0 145-8 191t-33 73z"/><path id="c" d="M56 347q0 13 14 20h637q15-8 15-20 0-11-14-19l-318-1H72q-16 5-16 20zm0-194q0 15 16 20h636q14-10 14-20 0-13-15-20H70q-14 7-14 20z"/><path id="d" d="M370 305h-21l-36 15-16 38q0 23 15 38 5 5 5 6t-10 2q-26 4-49 4-49 0-80-32-47-47-47-157 0-82 31-129 41-61 110-61 41 0 66 26t36 62q2 8 5 10t16 2h14q6-6 6-9 0-4-4-16t-16-33-29-38-48-31-69-13q-86 0-150 64T34 214q0 104 65 169t151 65 120-27 34-64q0-23-17-37z"/><path id="e" d="M28 214q0 95 65 164t157 70q90 0 155-68t66-165q0-95-64-160T250-10q-97 0-159 67T28 214zM250 30q122 0 122 163v57q0 22-1 38t-7 38-16 36-31 28-49 20q-5 1-16 1-30 0-57-12-43-22-56-61t-13-92v-20q0-96 19-135 32-61 105-61z"/><path id="f" d="M295 316q0 40-27 69t-78 29q-36 0-62-13-30-19-30-52-1-5 0-13t16-24 43-25q18-5 44-9t44-9 32-13q17-8 33-20t32-41 17-62q0-62-38-102T198-10h-8q-52 0-96 36l-8-7-9-9Q71 4 65-1L54-11H42q-3 0-9 6v137q0 21 2 25t10 5h9q12 0 16-4t5-12 7-27 19-42q35-51 97-51 97 0 97 78 0 29-18 47-20 24-83 36t-83 23q-36 17-57 46t-21 62q0 39 17 66t43 40 50 18 44 5h11q40 0 70-15l15-8 9 7q10 9 22 17h12q3 0 9-6V310l-6-6h-28q-6 6-6 12z"/><path id="g" d="M152 251q0 395 236 599h28q6-6 6-9 0-4-19-25t-46-63-55-104-47-167-19-232q0-126 19-231t46-166 55-104 47-64 19-25q0-3-6-9h-28q-29 24-56 53t-61 83-59 116-42 153-18 195z"/><path id="h" d="M312 622q-2 1-5 3t-4 4-6 2-11 3-16 1-24 1-35 1h-27v46h12q24-3 165-3t165 3h12v-46h-27q-43 0-64-2t-25-4-11-9v-89l14-2q100-12 170-65t70-124q0-41-23-75t-59-58-77-37-81-20l-14-2V61q6-6 10-8t26-5 64-2h27V0h-12q-24 3-165 3T196 0h-12v46h61q14 0 25 1t16 1 11 3 6 3 4 3 5 4v89h-2q-1 1-21 3t-57 13-72 29q-11 6-24 15t-33 28-34 46-13 58q0 72 72 125t166 63q15 2 16 3h2v89zM170 342q0-135 137-154h5v307h-3q-8 0-27-4t-51-22-45-46q-16-34-16-81zm245-154q72 11 104 48t32 106q0 42-12 72t-32 45-37 22-36 10-19 4h-5V188h5z"/><path id="i" d="M109 429q-27 0-43 18t-16 44q0 71 53 123t132 52q91 0 152-56t62-145q0-43-20-82t-48-68-80-74q-36-31-100-92l-59-56 76-1q157 0 167 5 7 2 24 89v3h40v-3q-1-3-13-91T421 3V0H50v31q0 7 6 15t30 35q29 32 50 56 9 10 34 37t34 37 29 33 28 34 23 30 21 32 15 29 13 32 7 30 3 33q0 63-34 109t-97 46q-33 0-58-17t-35-33-10-19q0-1 5-1 18 0 37-14t19-46q0-25-16-42t-45-18z"/><path id="j" d="M305 251q0-396-236-600H56q-13 0-17 2t-4 9q2 5 25 31t48 68 52 103 44 163 17 223-17 223-44 163-52 104-48 67-25 32q0 11 15 11h19q128-107 187-284 49-141 49-315z"/><path id="k" d="M78 370q0 24 17 42t43 18q24 0 42-16t19-43q0-25-17-43t-43-18-43 17-18 43zm0-310q0 25 16 43t43 18q65 0 65-113 0-52-19-102t-39-75-26-25q-3 0-12 8t-11 12q-1 3 12 19t30 48 23 69q1 6 2 16t3 18 0 8q0 1-4 0t-19-4q-32 0-48 18T78 60z"/><path id="l" d="M213 578l-13-5q-14-5-40-10t-58-7H83v46h19q47 2 87 15t56 24 28 22q2 3 12 3 9 0 17-6V361l1-300q7-7 12-9t24-4 62-2h26V0h-11q-21 3-159 3-136 0-157-3H88v46h64q16 0 25 1t16 3 8 2 6 5 6 4v517z"/><path id="m" d="M39 168q0 57 19 104t49 78 67 52 70 31 63 9h3q45 0 78-22t33-65q0-90-111-118-49-13-134-14-37 0-38-2 0-2-6-35t-7-58q0-47 21-74t63-28 93 19 92 66q9 10 12 10 4 0 13-9t10-14-9-16-30-27-46-31-63-25-76-10q-79 0-122 53T39 168zm334 185q-6 52-68 52-33 0-61-14t-45-34-29-41-16-36-5-19q0-1 20-1 113 0 158 24t46 69z"/><path id="n" d="M69 609q0 28 18 44t44 16q23-2 40-17t17-43q0-30-17-45t-42-15q-25 0-42 15t-18 45zM247 0q-15 3-104 3h-37Q80 3 56 1L34 0h-8v46h16q28 0 49 3 9 4 11 11t2 42v191q0 52-2 66t-14 19q-14 7-47 7H30v23q0 23 2 23l10 1q10 1 28 2t36 2 36 2 29 3 11 1h3V62q5-10 12-12t35-4h23V0h-8z"/><path id="o" d="M41 46h14q39 0 47 14v62q0 17 1 39t0 42v66q0 35-1 59v23q-3 19-14 25t-45 9H25v23q0 23 2 23l10 1q10 1 28 2t37 2q17 1 36 2t29 3 11 1h3v-40q0-38 1-38t5 5 12 15 19 18 29 19 38 16q20 5 51 5 114-4 127-113 1-7 1-139v-86q0-38 2-45t11-10q21-3 49-3h16V0h-8l-24 1q-23 1-50 1t-38 1Q319 3 310 0h-8v46h16q61 0 61 16 1 2 1 138-1 135-2 143-6 28-20 42t-24 17-26 2q-45 0-79-34-27-27-34-55t-8-83V108q0-30 1-40t3-13 9-6q21-3 49-3h16V0h-8l-23 1q-24 1-51 1t-38 1Q42 3 33 0h-8v46h16z"/><path id="p" d="M127 463q-27 0-42 17t-16 44q0 55 48 98t116 43q35 0 44-1 74-12 113-53t40-89q0-52-34-101t-94-71l-3-2q0-1 9-3t29-9 38-21q82-53 82-140 0-79-62-138T238-22q-80 0-138 43T42 130q0 28 18 45t45 18q28 0 46-18t18-45q0-11-3-20t-7-16-11-12-12-8-10-4-8-3l-4-1q51-45 124-45 55 0 83 53 17 33 17 101v20q0 95-64 127-15 6-61 7l-42 1-3 2q-2 3-2 16 0 18 8 18 28 0 58 5 34 5 62 42t28 112v8q0 57-35 79-22 14-47 14-32 0-59-11t-38-23-11-12h3q3-1 8-2t10-5 12-7 10-11 8-15 3-20q0-22-14-39t-45-18z"/></defs><g data-mml-node="math" stroke="currentColor" fill="currentColor" stroke-width="0"><g data-mml-node="msub"><use xlink:href="#a" data-mml-node="mi" transform="scale(1 -1)"/><use xlink:href="#b" data-mml-node="mn" transform="matrix(.707 0 0 -.707 446 150)"/></g><use xlink:href="#c" data-mml-node="mo" transform="matrix(1 0 0 -1 1127.3 0)"/><g data-mml-node="mtext" transform="matrix(1 0 0 -1 2183.1 0)"><use xlink:href="#d"/><use xlink:href="#e" transform="translate(444)"/><use xlink:href="#f" transform="translate(944)"/></g><g data-mml-node="TeXAtom"><use xlink:href="#g" data-mml-node="mo" transform="matrix(1 0 0 -1 3521.1 0)"/></g><g data-mml-node="mfrac"><use xlink:href="#h" data-mml-node="mi" transform="matrix(1 0 0 -1 4199.1 -676)"/><use xlink:href="#i" data-mml-node="mn" transform="matrix(1 0 0 -1 4310.1 686)"/><path stroke="none" d="M4099.1-220h922v-60h-922z"/></g><g data-mml-node="TeXAtom"><use xlink:href="#j" data-mml-node="mo" transform="matrix(1 0 0 -1 5141.1 0)"/></g><use xlink:href="#k" data-mml-node="mo" transform="matrix(1 0 0 -1 5599.1 0)"/><g data-mml-node="msub"><use xlink:href="#a" data-mml-node="mi" transform="matrix(1 0 0 -1 7043.8 0)"/><use xlink:href="#l" data-mml-node="mn" transform="matrix(.707 0 0 -.707 7489.8 150)"/></g><use xlink:href="#c" data-mml-node="mo" transform="matrix(1 0 0 -1 8171.1 0)"/><g data-mml-node="msub"><use xlink:href="#m" data-mml-node="mi" transform="matrix(1 0 0 -1 9226.9 0)"/><use xlink:href="#l" data-mml-node="mn" transform="matrix(.707 0 0 -.707 9692.9 150)"/></g><g data-mml-node="mtext" transform="matrix(1 0 0 -1 10096.4 0)"><use xlink:href="#f"/><use xlink:href="#n" transform="translate(394)"/><use xlink:href="#o" transform="translate(672)"/></g><g data-mml-node="TeXAtom"><use xlink:href="#g" data-mml-node="mo" transform="matrix(1 0 0 -1 11324.4 0)"/></g><g data-mml-node="mfrac"><use xlink:href="#h" data-mml-node="mi" transform="matrix(1 0 0 -1 12002.4 -676)"/><use xlink:href="#i" data-mml-node="mn" transform="matrix(1 0 0 -1 12113.4 686)"/><path stroke="none" d="M11902.4-220h922v-60h-922z"/></g><g data-mml-node="TeXAtom"><use xlink:href="#j" data-mml-node="mo" transform="matrix(1 0 0 -1 12944.4 0)"/></g><use xlink:href="#k" data-mml-node="mo" transform="matrix(1 0 0 -1 13402.4 0)"/><g data-mml-node="msub"><use xlink:href="#a" data-mml-node="mi" transform="matrix(1 0 0 -1 14847.1 0)"/><use xlink:href="#i" data-mml-node="mn" transform="matrix(.707 0 0 -.707 15293.1 150)"/></g><use xlink:href="#c" data-mml-node="mo" transform="matrix(1 0 0 -1 15974.4 0)"/><g data-mml-node="msub"><use xlink:href="#m" data-mml-node="mi" transform="matrix(1 0 0 -1 17030.2 0)"/><use xlink:href="#i" data-mml-node="mn" transform="matrix(.707 0 0 -.707 17496.2 150)"/></g><g data-mml-node="mtext" transform="matrix(1 0 0 -1 17899.8 0)"><use xlink:href="#f"/><use xlink:href="#n" transform="translate(394)"/><use xlink:href="#o" transform="translate(672)"/></g><g data-mml-node="TeXAtom"><use xlink:href="#g" data-mml-node="mo" transform="matrix(1 0 0 -1 19127.8 0)"/></g><g data-mml-node="mfrac"><use xlink:href="#h" data-mml-node="mi" transform="matrix(1 0 0 -1 19805.8 -676)"/><use xlink:href="#i" data-mml-node="mn" transform="matrix(1 0 0 -1 19916.8 686)"/><path stroke="none" d="M19705.8-220h922v-60h-922z"/></g><g data-mml-node="TeXAtom"><use xlink:href="#j" data-mml-node="mo" transform="matrix(1 0 0 -1 20747.8 0)"/></g><use xlink:href="#k" data-mml-node="mo" transform="matrix(1 0 0 -1 21205.8 0)"/><g data-mml-node="msub"><use xlink:href="#a" data-mml-node="mi" transform="matrix(1 0 0 -1 22650.4 0)"/><use xlink:href="#p" data-mml-node="mn" transform="matrix(.707 0 0 -.707 23096.4 150)"/></g><use xlink:href="#c" data-mml-node="mo" transform="matrix(1 0 0 -1 23777.8 0)"/><g data-mml-node="msub"><use xlink:href="#m" data-mml-node="mi" transform="matrix(1 0 0 -1 24833.5 0)"/><use xlink:href="#p" data-mml-node="mn" transform="matrix(.707 0 0 -.707 25299.5 150)"/></g><g data-mml-node="mtext" transform="matrix(1 0 0 -1 25703.1 0)"><use xlink:href="#f"/><use xlink:href="#n" transform="translate(394)"/><use xlink:href="#o" transform="translate(672)"/></g><g data-mml-node="TeXAtom"><use xlink:href="#g" data-mml-node="mo" transform="matrix(1 0 0 -1 26931.1 0)"/></g><g data-mml-node="mfrac"><use xlink:href="#h" data-mml-node="mi" transform="matrix(1 0 0 -1 27609.1 -676)"/><use xlink:href="#i" data-mml-node="mn" transform="matrix(1 0 0 -1 27720.1 686)"/><path stroke="none" d="M27509.1-220h922v-60h-922z"/></g><g data-mml-node="TeXAtom"><use xlink:href="#j" data-mml-node="mo" transform="matrix(1 0 0 -1 28551.1 0)"/></g></g></svg>