<svg xmlns="http://www.w3.org/2000/svg" width="400" height="15" viewBox="0 -802 8953.9 967.6" xmlns:xlink="http://www.w3.org/1999/xlink"><defs><path id="a" d="M401 444q12-3 94-3 73 0 79 3h6v-62h-70L409 156Q348 18 339 6q-8-10-19-10h-7q-5 0-10 1h-15q-15 0-24 15t-43 90q-15 33-24 54L96 382H26v62h8q15-3 111-3 107 0 125 3h9v-62h-48l53-118q51-115 54-115 0 1 51 115t53 117q0 1-24 1h-24v62h7z"/><path id="b" d="M377 694q0 8 5 14t15 6q7 0 12-5 5-4 10-19 10-37 41-57 11-7 11-18 0-9-3-12t-14-9q-43-22-75-63-2-2-5-6t-5-6-5-2-7-1q-7 0-13 5t-7 15q0 19 47 59H213l-171 1q-13 9-13 19 0 7 13 20h359q-24 38-24 59z"/><path id="c" d="M56 347q0 13 14 20h637q15-8 15-20 0-11-14-19l-318-1H72q-16 5-16 20zm0-194q0 15 16 20h636q14-10 14-20 0-13-15-20H70q-14 7-14 20z"/><path id="d" d="M173 380q0 25-19 25-24 0-50-29t-43-89q-1-1-2-3t-1-3-2-2-3-1-4 0-8 0H27q-6 6-6 9 0 7 8 29t24 52 44 51 63 22q42 0 65-24t24-56q0-17-3-26 0-6-15-44t-31-89-18-89q0-27 5-44 13-43 63-43 37 0 69 34t50 79 29 83 11 55q0 23-8 40t-18 26-18 18-8 22q0 22 19 41t41 19q19 0 34-18t16-58q0-27-12-83t-37-125-71-119-106-51q-64 0-102 33-37 32-37 95 0 31 8 64t41 117q22 64 22 82z"/><path id="e" d="M213 578l-13-5q-14-5-40-10t-58-7H83v46h19q47 2 87 15t56 24 28 22q2 3 12 3 9 0 17-6V361l1-300q7-7 12-9t24-4 62-2h26V0h-11q-21 3-159 3-136 0-157-3H88v46h64q16 0 25 1t16 3 8 2 6 5 6 4v517z"/><path id="f" d="M32 225q0 107 70 167t170 60h11q99 0 153-51 58-58 58-158 0-17-8-21t-46-5h-46q-37 0-67 1H175v-9q0-32 4-55t17-47 40-38 70-19q6-1 17-1 53 0 87 36 11 14 17 26t7 16 8 6 21 2h5q26 0 26-18 0-7-5-20t-21-31-37-34-58-27-81-11Q181-6 107 55T32 225zm351 51q-6 70-35 98t-68 28q-27 0-50-12t-35-33q-16-26-19-78v-13h207v10z"/><path id="g" d="M112 560l137 134 8-8q130-124 130-126l-26-29q-2 1-58 50l-53 46-55-47q-13-11-26-23t-21-19l-8-6q-2-2-15 14l-13 14z"/><path id="h" d="M56 237v13l14 20h299v150l1 150q10 13 19 13 13 0 20-15V270h298q15-8 15-20t-15-20H409V-68q-8-14-18-14h-4q-12 0-18 14v298H70q-14 7-14 20z"/><path id="i" d="M109 429q-27 0-43 18t-16 44q0 71 53 123t132 52q91 0 152-56t62-145q0-43-20-82t-48-68-80-74q-36-31-100-92l-59-56 76-1q157 0 167 5 7 2 24 89v3h40v-3q-1-3-13-91T421 3V0H50v31q0 7 6 15t30 35q29 32 50 56 9 10 34 37t34 37 29 33 28 34 23 30 21 32 15 29 13 32 7 30 3 33q0 63-34 109t-97 46q-33 0-58-17t-35-33-10-19q0-1 5-1 18 0 37-14t19-46q0-25-16-42t-45-18z"/><path id="j" d="M127 463q-27 0-42 17t-16 44q0 55 48 98t116 43q35 0 44-1 74-12 113-53t40-89q0-52-34-101t-94-71l-3-2q0-1 9-3t29-9 38-21q82-53 82-140 0-79-62-138T238-22q-80 0-138 43T42 130q0 28 18 45t45 18q28 0 46-18t18-45q0-11-3-20t-7-16-11-12-12-8-10-4-8-3l-4-1q51-45 124-45 55 0 83 53 17 33 17 101v20q0 95-64 127-15 6-61 7l-42 1-3 2q-2 3-2 16 0 18 8 18 28 0 58 5 34 5 62 42t28 112v8q0 57-35 79-22 14-47 14-32 0-59-11t-38-23-11-12h3q3-1 8-2t10-5 12-7 10-11 8-15 3-20q0-22-14-39t-45-18z"/></defs><g data-mml-node="math" stroke="currentColor" fill="currentColor" stroke-width="0"><g data-mml-node="TeXAtom"><g data-mml-node="mover"><g data-mml-node="TeXAtom"><use xlink:href="#a" data-mml-node="mi" transform="scale(1 -1)"/></g><use xlink:href="#b" data-mml-node="mo" transform="matrix(1 0 0 -1 53.5 12)"/></g></g><use xlink:href="#c" data-mml-node="mo" transform="matrix(1 0 0 -1 884.8 0)"/><g data-mml-node="msub"><use xlink:href="#d" data-mml-node="mi" transform="matrix(1 0 0 -1 1940.6 0)"/><use xlink:href="#e" data-mml-node="mn" transform="matrix(.707 0 0 -.707 2425.6 150)"/></g><g data-mml-node="msub"><g data-mml-node="TeXAtom"><g data-mml-node="mover"><g data-mml-node="TeXAtom"><use xlink:href="#f" data-mml-node="mi" transform="matrix(1 0 0 -1 2829.1 0)"/></g><use xlink:href="#g" data-mml-node="mo" transform="matrix(1 0 0 -1 2842.6 19)"/></g></g><use xlink:href="#e" data-mml-node="mn" transform="matrix(.707 0 0 -.707 3356.1 150)"/></g><use xlink:href="#h" data-mml-node="mo" transform="matrix(1 0 0 -1 3759.7 0)"/><g data-mml-node="msub"><use xlink:href="#d" data-mml-node="mi" transform="matrix(1 0 0 -1 4537.7 0)"/><use xlink:href="#i" data-mml-node="mn" transform="matrix(.707 0 0 -.707 5022.7 150)"/></g><g data-mml-node="msub"><g data-mml-node="TeXAtom"><g data-mml-node="mover"><g data-mml-node="TeXAtom"><use xlink:href="#f" data-mml-node="mi" transform="matrix(1 0 0 -1 5426.2 0)"/></g><use xlink:href="#g" data-mml-node="mo" transform="matrix(1 0 0 -1 5439.7 19)"/></g></g><use xlink:href="#i" data-mml-node="mn" transform="matrix(.707 0 0 -.707 5953.2 150)"/></g><use xlink:href="#h" data-mml-node="mo" transform="matrix(1 0 0 -1 6356.8 0)"/><g data-mml-node="msub"><use xlink:href="#d" data-mml-node="mi" transform="matrix(1 0 0 -1 7134.8 0)"/><use xlink:href="#j" data-mml-node="mn" transform="matrix(.707 0 0 -.707 7619.8 150)"/></g><g data-mml-node="msub"><g data-mml-node="TeXAtom"><g data-mml-node="mover"><g data-mml-node="TeXAtom"><use xlink:href="#f" data-mml-node="mi" transform="matrix(1 0 0 -1 8023.3 0)"/></g><use xlink:href="#g" data-mml-node="mo" transform="matrix(1 0 0 -1 8036.8 19)"/></g></g><use xlink:href="#j" data-mml-node="mn" transform="matrix(.707 0 0 -.707 8550.3 150)"/></g></g></svg>